<svg xmlns="http://www.w3.org/2000/svg" width="61.842" height="61.842" viewBox="0 0 61.842 61.842">
  <g id="Groupe_73" data-name="Groupe 73" transform="translate(-5154 67.974)">
    <rect id="Rectangle_98" data-name="Rectangle 98" width="55" height="48" rx="8" transform="translate(5158 -59)" fill="#433e36"/>
    <rect id="Rectangle_99" data-name="Rectangle 99" width="53" height="10" transform="translate(5159 -57)" fill="#f35f39"/>
    <path id="schedule" d="M32.921,39.105a3.092,3.092,0,1,0-3.092-3.092A3.092,3.092,0,0,0,32.921,39.105Zm15.461,0a3.092,3.092,0,1,0-3.092-3.092A3.092,3.092,0,0,0,48.382,39.105ZM32.921,51.474a3.092,3.092,0,1,0-3.092-3.092A3.092,3.092,0,0,0,32.921,51.474Zm15.461,0a3.092,3.092,0,1,0-3.092-3.092A3.092,3.092,0,0,0,48.382,51.474ZM17.461,39.105a3.092,3.092,0,1,0-3.092-3.092A3.092,3.092,0,0,0,17.461,39.105ZM54.566,8.184H51.474V5.092a3.092,3.092,0,1,0-6.184,0V8.184H20.553V5.092a3.092,3.092,0,1,0-6.184,0V8.184H11.276A9.276,9.276,0,0,0,2,17.461V54.566a9.276,9.276,0,0,0,9.276,9.276H54.566a9.276,9.276,0,0,0,9.276-9.276V17.461a9.276,9.276,0,0,0-9.276-9.276Zm3.092,46.382a3.092,3.092,0,0,1-3.092,3.092H11.276a3.092,3.092,0,0,1-3.092-3.092V26.737H57.658Zm0-34.013H8.184V17.461a3.092,3.092,0,0,1,3.092-3.092H54.566a3.092,3.092,0,0,1,3.092,3.092Zm-40.2,30.921a3.092,3.092,0,1,0-3.092-3.092A3.092,3.092,0,0,0,17.461,51.474Z" transform="translate(5152 -69.974)" fill="#433e36"/>
    <circle id="Ellipse_11" data-name="Ellipse 11" cx="4" cy="4" r="4" transform="translate(5165 -38)" fill="#f35f39"/>
    <circle id="Ellipse_12" data-name="Ellipse 12" cx="4" cy="4" r="4" transform="translate(5197 -38)" fill="#f35f39"/>
    <circle id="Ellipse_13" data-name="Ellipse 13" cx="4" cy="4" r="4" transform="translate(5181 -38)" fill="#f35f39"/>
    <circle id="Ellipse_14" data-name="Ellipse 14" cx="4" cy="4" r="4" transform="translate(5197 -26)" fill="#f35f39"/>
    <circle id="Ellipse_15" data-name="Ellipse 15" cx="4" cy="4" r="4" transform="translate(5181 -26)" fill="#f35f39"/>
    <circle id="Ellipse_16" data-name="Ellipse 16" cx="4" cy="4" r="4" transform="translate(5165 -26)" fill="#f35f39"/>
  </g>
</svg>
