<svg xmlns="http://www.w3.org/2000/svg" width="60.762" height="60.767" viewBox="0 0 60.762 60.767">
  <g id="Groupe_74" data-name="Groupe 74" transform="translate(-1308.08 -1308.072)">
    <path id="Tracé_98" data-name="Tracé 98" d="M1337.868,1308.072h1.187a4.242,4.242,0,0,1,2.219,1c3.636,2.591,7.288,5.159,10.926,7.747,4.1,2.92,8.229,5.813,12.324,8.748.819.587,1.634,1.181,2.472,1.739a3.485,3.485,0,0,1,1.847,2.838v1.187a3.566,3.566,0,0,1-3.89,3.016,4.1,4.1,0,0,1-1.965-.768c-.157-.1-.32-.326-.513-.216s-.095.362-.1.551q-.005,7.948,0,15.9,0,5.427,0,10.854c0,.841.026.865.862.87.692,0,1.385-.023,2.076.009a3.774,3.774,0,0,1,2.892,1.408,2.425,2.425,0,0,1,.575,1.581q0,.666,0,1.331a2.985,2.985,0,0,1-2.688,2.91.334.334,0,0,0-.218.062h-54.828a3.182,3.182,0,0,1-2.334-1.276,2.477,2.477,0,0,1-.571-1.683q0-.665,0-1.33c-.057-1.5,1.54-2.922,3.4-3,.79-.034,1.582-.016,2.373-.007.446.005.67-.164.636-.626-.009-.118,0-.237,0-.356q0-13.261,0-26.522c0-.228.115-.544-.1-.664s-.418.152-.61.274a3.724,3.724,0,0,1-5.353-1.031,3.85,3.85,0,0,1-.4-1.283v-1.306a3.482,3.482,0,0,1,1.7-2.618q9.78-6.9,19.535-13.843c2.3-1.638,4.618-3.255,6.914-4.9A3.72,3.72,0,0,1,1337.868,1308.072Z" fill="#433e36"/>
    <path id="Tracé_105" data-name="Tracé 105" d="M1308.189,1666.329l-.053-.022-.056.011v-1.424a.1.1,0,0,0,.109-.012Z" transform="translate(0 -300.327)" fill="#585858"/>
    <path id="Tracé_106" data-name="Tracé 106" d="M1691.345,1666.323l-.057-.013-.053.024q0-.723,0-1.446a.093.093,0,0,0,.109.011Z" transform="translate(-322.503 -300.333)" fill="#5c5c5c"/>
    <path id="Tracé_107" data-name="Tracé 107" d="M1455.72,1545.973c-2.609,0-5.219-.007-7.828.008-.373,0-.495-.075-.493-.476.018-3.38-.053-6.763.028-10.141.08-3.322,1.439-6.008,4.545-7.465a8.218,8.218,0,0,1,9.028.966,7.878,7.878,0,0,1,3,6.373c.073,3.438.011,6.88.031,10.319,0,.418-.175.421-.487.421C1460.939,1545.969,1458.33,1545.973,1455.72,1545.973Z" transform="translate(-117.256 -184.255)" fill="#fcf8f2"/>
    <path id="Tracé_111" data-name="Tracé 111" d="M1351.116,1664.331h-26.337c-1.124,0-1.684-.41-1.664-1.217.02-.785.553-1.156,1.663-1.156h52.674q1.694,0,1.663,1.215c-.021.785-.556,1.159-1.662,1.159Z" transform="translate(-12.655 -297.866)" fill="#f35f39"/>
    <path id="Tracé_114" data-name="Tracé 114" d="M1459.75,1436.965a1.659,1.659,0,0,1-.215.911,2.371,2.371,0,0,0-.012,2.624,1.959,1.959,0,0,1-.366,2.348,2.035,2.035,0,0,1-2.294.438,2.009,2.009,0,0,1-1.181-1.657,1.192,1.192,0,0,0-1.373-1.216q-3.855-.016-7.709,0c-.879,0-1.246.35-1.372,1.217a2.028,2.028,0,0,1-1.469,1.756,1.964,1.964,0,0,1-2.132-.671,1.932,1.932,0,0,1-.213-2.27,2.379,2.379,0,0,0,0-2.522,1.9,1.9,0,0,1,.226-2.263,1.873,1.873,0,0,1,2.123-.659,1.99,1.99,0,0,1,1.468,1.75,1.2,1.2,0,0,0,1.373,1.216q3.855.006,7.71,0a1.2,1.2,0,0,0,1.373-1.216,2.043,2.043,0,0,1,2.161-1.843A2.091,2.091,0,0,1,1459.75,1436.965Z" transform="translate(-111.995 -106.752)" fill="#f35f39"/>
  </g>
</svg>
