<svg xmlns="http://www.w3.org/2000/svg" width="51.131" height="61.705" viewBox="0 0 51.131 61.705">
  <g id="Groupe_75" data-name="Groupe 75" transform="translate(-1287.933 -1244.081)">
    <path id="Tracé_115" data-name="Tracé 115" d="M1322.684,1665.148c4.166-1.052,8.349-2.041,12.512-3.108,2.257-.579,4.532-1.08,6.786-1.667a2.161,2.161,0,0,0,1.252-.667,1.628,1.628,0,0,0-.108-2.206c-1.173-1.374-2.344-2.749-3.532-4.109-.392-.449-.537-.062-.72.166a21.364,21.364,0,0,1-5.934,5.133,22.486,22.486,0,0,1-25.608-1.875,20.163,20.163,0,0,1-3.3-3.329c-.354-.444-.387-.434-.756-.005-1.112,1.293-2.211,2.6-3.335,3.882-1.05,1.2-.684,2.569.864,2.954,4.229,1.052,8.454,2.119,12.69,3.141,2.343.566,4.678,1.159,7.014,1.75C1320.511,1665.208,1322.423,1665.214,1322.684,1665.148Z" transform="translate(-10.038 -359.759)" fill="#fefefe"/>
    <path id="Tracé_116" data-name="Tracé 116" d="M1448.2,1244.189a9.086,9.086,0,0,1,7.707,7.464,3.664,3.664,0,0,0,3.329,3.266,3.622,3.622,0,0,0,3.713-2.483,4.089,4.089,0,0,0,.19-1.122,1.8,1.8,0,1,1,3.6,0c.019,3.173.072,6.349-.023,9.519a6.563,6.563,0,0,1-4.863,5.928c-.511.139-.673.059-.757-.476a21.327,21.327,0,0,0-3.642-9,22.008,22.008,0,0,0-10.419-8.126,1.847,1.847,0,0,0-2.7,1.659q-.228,1.851-.5,3.7a1.8,1.8,0,0,1-1.861,1.618q-3.4.019-6.809,0a1.825,1.825,0,0,1-1.9-1.644,9.019,9.019,0,0,1,6.975-10.178c.234-.052.473-.081.71-.12.234-.122.509.046.739-.106h5.786C1447.7,1244.233,1447.972,1244.062,1448.2,1244.189Z" transform="translate(-127.709)" fill="#433e36"/>
    <path id="Tracé_117" data-name="Tracé 117" d="M1319.771,1663.785a39.618,39.618,0,0,0-4.1-1.077c-5.4-1.346-10.81-2.666-16.214-4a1.8,1.8,0,0,1-1-3.04c1.2-1.428,2.442-2.825,3.642-4.255.279-.332.407-.337.679.013a21.847,21.847,0,0,0,8.617,6.665,22.236,22.236,0,0,0,26.223-6.518c.441-.554.437-.551.9-.018q1.687,1.965,3.38,3.924c1.182,1.369.735,2.826-1.021,3.262q-9.941,2.468-19.886,4.921c-.094.023-.2.012-.252.124Z" transform="translate(-8.81 -357.999)" fill="#433e36"/>
    <path id="Tracé_118" data-name="Tracé 118" d="M1498.555,1244.081a.951.951,0,0,1-.739.106.125.125,0,0,0,.016-.106Z" transform="translate(-184.581)" fill="#606060"/>
    <path id="Tracé_119" data-name="Tracé 119" d="M1552.669,1244.189a.962.962,0,0,1-.735-.108h.723A.09.09,0,0,0,1552.669,1244.189Z" transform="translate(-232.175)" fill="#6b6b6b"/>
    <path id="Tracé_120" data-name="Tracé 120" d="M1357.2,1320.891a18.824,18.824,0,0,1,9.95,13.612h-36.833a17.677,17.677,0,0,1,1.792-5.484,18.594,18.594,0,0,1,6.565-7.216c.382-.246.473-.2.523.248a5.462,5.462,0,0,0,5.882,5.246q3.133,0,6.266,0a5.466,5.466,0,0,0,5.676-5.021C1357.076,1321.86,1357.131,1321.442,1357.2,1320.891Z" transform="translate(-37.276 -67.55)" fill="#433e36"/>
    <path id="Tracé_121" data-name="Tracé 121" d="M1369.068,1574.8a18.569,18.569,0,0,1-36.163-.022l4.62,1.538c4.178,1.39,8.358,2.771,12.53,4.179a2.774,2.774,0,0,0,1.868.007q8.281-2.78,16.573-5.525C1368.68,1574.916,1368.867,1574.863,1369.068,1574.8Z" transform="translate(-39.551 -290.83)" fill="#433e36"/>
    <path id="Tracé_122" data-name="Tracé 122" d="M1432.7,1478.9c-1.542-.51-3.018-1.01-4.5-1.479-.346-.109-.32-.333-.32-.594q0-3.793,0-7.587c0-1.606.015-3.212-.01-4.817-.006-.4.113-.494.5-.487,1.3.024,2.609.013,3.914.006.266,0,.431,0,.43.368C1432.7,1469.146,1432.7,1473.983,1432.7,1478.9Z" transform="translate(-123.07 -193.35)" fill="#f35f39"/>
    <path id="Tracé_123" data-name="Tracé 123" d="M1497.9,1478.93c0-4.925,0-9.762-.006-14.6,0-.283.069-.376.364-.372q2.047.022,4.1,0c.282,0,.374.066.374.363q-.014,6.323,0,12.646c0,.216-.015.372-.265.453C1500.963,1477.909,1499.467,1478.411,1497.9,1478.93Z" transform="translate(-184.653 -193.37)" fill="#f35f39"/>
    <path id="Tracé_124" data-name="Tracé 124" d="M1362.744,1476.126c-1.566-.522-3.078-1.037-4.6-1.524-.258-.083-.222-.241-.222-.412,0-3.289,0-6.578-.009-9.867,0-.315.122-.352.386-.35q2.046.016,4.092,0c.237,0,.357.029.356.317C1362.741,1468.217,1362.744,1472.144,1362.744,1476.126Z" transform="translate(-61.546 -193.382)" fill="#f35f39"/>
    <path id="Tracé_125" data-name="Tracé 125" d="M1567.861,1476.062v-2.093c0-3.169.008-6.338-.009-9.506,0-.42.056-.586.538-.571,1.262.041,2.527.025,3.79.007.356-.005.517.037.514.469-.022,3.208-.01,6.417-.017,9.626,0,.19.118.429-.215.536C1570.943,1475.021,1569.431,1475.536,1567.861,1476.062Z" transform="translate(-246.173 -193.311)" fill="#f35f39"/>
    <path id="Tracé_126" data-name="Tracé 126" d="M1292.761,1473.3c-1.566-.516-3.079-1.018-4.6-1.511-.233-.076-.225-.24-.225-.425,0-2.347.007-4.694-.006-7.041,0-.3.1-.36.379-.358,1.364.012,2.729.009,4.093,0,.228,0,.364.014.363.31C1292.757,1467.266,1292.761,1470.252,1292.761,1473.3Z" transform="translate(0 -193.378)" fill="#f35f39"/>
    <path id="Tracé_127" data-name="Tracé 127" d="M1637.885,1473.321c0-3.063,0-6.051,0-9.038,0-.237.076-.305.308-.3q2.106.013,4.213,0c.231,0,.31.065.309.3q-.011,3.58,0,7.161c0,.15-.011.284-.177.339Z" transform="translate(-307.76 -193.388)" fill="#f35f39"/>
  </g>
</svg>
