<svg xmlns="http://www.w3.org/2000/svg" width="858.546" height="943.471" viewBox="0 0 858.546 943.471">
  <g id="Groupe_79" data-name="Groupe 79" transform="translate(1113.286 -2908.68)">
    <g id="Rectangle_214" data-name="Rectangle 214" transform="translate(-708 3073)" fill="#fff" stroke="#707070" stroke-width="1">
      <rect width="211" height="151" stroke="none"/>
      <rect x="0.5" y="0.5" width="210" height="150" fill="none"/>
    </g>
    <g id="Groupe_78" data-name="Groupe 78">
      <g id="Fond_de_carte_des_13_nouvelles_régions_de_France_métropolitaine" transform="translate(-1114.342 2912.174)">
        <path id="path386" d="M109.9,116.888l-3.531,2.716-7.822.978-1.575,2.173-5.323-3.965-7.876,5.269,2.825,3.8-4.237,5.812-5.541-3.2-10.158.326v6.79H64.865l-.652-3.151-4.02.652-.76-8.42L55.2,131.338l-3.857-1.63-7.931.76-1.358,3.422-3.639.869-.652-3.694-8.746,1.141v2.336l-4.726.272-2.5-1.738-3.259,1.63-.652,3.911-8.963.326L3.646,145.3l3.965,2.988-5.269,4.291,1.847,3.259-1.412,7.822,6.193.76,1.847-1.793.815,1.141,13.2-1.738,2.662-1.847-2.281,2.173.869,4.291,6.355-2.825-1.249,4.291,7.6.38-.163.923-7.6-.272-6.355-1.63-8.2-3.911-5.486,6.3,6.464,2.173-.38,9.886L19.67,179.9l3.585-5.486,6.681,3.857,3.259.706,1.249,4.889-1.847,3.2-4.074-.272H24.342l-6.736,1.032-11.787.652L2.994,192.23l4.02,2.39,3.694-.326,3.042,2.716,4.346-.326,6.9,7.876,1.63,8.474-2.607,5.215,7.876,1.521,8.148-.38L42,215.805l-2.01-2.77,1.3.6,3.1-.326,5.432,3.042,4.02-.76V213.9l.326,1.412,4.563,7.5,10.267.706.217-1.249,1.738,2.5,6.138,1.086h4.128l.054.054,3.965,6.355,5.975,1.467.489-.652-.326,1.032,5.052,2.227,6.03,5.921,1.9,3.531-1.412,9.017,4.726,3.477,2.662-3.042-2.227-2.933v-5.215l3.911.923,1.086-3.259.489,1.141,5,4.346,2.553-4.183-.326-.652,1.141,1.575.272-.054-3.259,4.128,4.563,1.521,3.151,4.835,18.577-1.684,3.639.815-1.738,1.467.38,3.585.978.76,1.847-.326,2.77-2.716,1.793,2.064h5.7l6.627-3.422,9.832-3.857.326-9.56,2.173-1.2,6.3-3.314,21.294-1.086,1.412-3.965,3.2-3.151,7.713-1.032.326-3.639,4.346.6,2.988,4.074,7.442,1.793,1.521-3.151,1.738-6.084,4.291-10.7,2.118-1.2,6.138.76v-9.995l-2.39-2.39v-9.615L247,187.831v-5.16l3.422-3.422v-7.225l-1.684-1.358.326-9.615-2.988-1.467-4.128-.054-3.694-2.933-3.857,4.617-3.1.38-2.607,3.585-2.281-.543-5.595-4.889-1.956-6.3-1.141-4.672H200.774l-5.486-3.368,4.291-5.812-9.4-.38-3.585,4.074v.054l-1.793,2.01-6.681-.706-.706,3.8-3.1.272-.326-4.563-4.128-1.249-1.684,1.956V138.4l-4.726,3.531-6.247-1.032-2.173,4.237-12.657,6.9v3.2H140.7v-5.975l-7.062-3.314.652-6.084-6.464-4.726v-5.921l-4.726-1.032.326-5.486-3.694-.326.326-3.8h-7.713l-.76,2.336-1.684-4.02Zm16.948,127.164,3.2.76,3.042,3.639-1.3,2.064-3.911-1.2-5.215-2.444,5-.76Z" transform="translate(0 87.897)" fill="#fff" stroke="#000" stroke-width="2"/>
        <path id="polygon388" d="M246.254,140.232l-3.911.38-1.467,3.476-4.672,1.9-9.234-1.358L217.9,150.01l-3.368-2.39-5.106,3.422-3.368-2.444-2.444-4.128-5.486-2.281-3.476,2.77-6.138-.706-.326,9.669,1.684,1.358v6.3L186.447,165v5.649l1.032,3.477v9.941l2.39,2.39v8.365l-5.323-.652-2.716,1.575-4.509,11.081-1.684,6.03L175.094,214l-.6,1.2-.543-.109-5.7-1.412-3.042-4.128-5.867-.76-.326,3.857-7.225.978-3.531,3.531-1.358,3.585-20.7,1.032-9.343,4.943-.326,9.452L107.3,239.8l-6.355,3.314H95.9l-2.227-2.607-3.314,3.314-2.553.489,2.227,1.521-6.355,5.7,1.684,1.684,1.2,2.39-3.585,5,4.237,2.281,7.116,1.521.489-2.173,3.259,4.128H104.7l4.4-4.78h3.314l-4.4,2.227.326,3.748,1.249,2.879-3.314,3.368h-4.454l.869,6.247,7.713-1.412,8.311,7.6-.109.163-.38.489-9.886,12.711-.326,8.528,10.484,10.158-.38,3.368h3.259l6.41,19.229,6.9,3.422,6.9,6.9h7.659L152.28,358h7.551l3.314,5,8.311,4.128.326-4.454,1.358,1.3,10.647-6.41,4.237-.272,2.064,5.541,6.681-2.825,5.486,4.128,4.563-2.173,3.911-1.086,1.738-2.064,5.215-3.368-4.128-4.183-2.39,1.793L211,351.375l2.444-4.563-2.39-4.02,1.956-2.607-1.086-9.723-3.2-4.943,2.39-3.151-5.486-6.138,2.01-4.454-8.257-6.9v-4.02l-3.1-4.346.869-.38,5.541-2.39,10.592,2.444,5.106-3.422v-4.509l8.8-.652,8.365-1.684,8.8-.326.923,2.064,2.988,2.607,2.607-4.509,6.3-6.627h2.77l3.911-14.178,5.486-6.518-.38-7.5,3.422-4.454v-2.336l-1.575-1.956.978-2.01,1.956-3.911,6.464,4.509h4.617l-1.847-6.084,3.314,2.227,2.553-3.694,10.212-2.825-1.793-4.346,2.118-2.716,5.106-2.01,4.889-6.355v-6.138h3.314l1.467-5.215.326-7.388-3.2-2.988,2.444-4.291,4.346-5.541-5.16-3.639-4.4-.76-4.78-7.17h-2.118l-.109,1.032h-6.9l-3.368-5.052-5.649-2.01-1.63-11.9-2.988-4.128-9.615.326-9.18,8.474-4.672-.272-.489-.054-1.684-6.03-4.4-1.684-1.3-7.333Z" transform="translate(59.521 105.131)" fill="#fff" stroke="#000" stroke-width="2"/>
        <path id="polygon392" d="M243.164,219.545l-6.681,7.007-.76,1.358-1.249,2.173-1.847-1.521-1.086-2.607-9.615.38-8.42,1.684-9.669.706v4.943l-4.291,2.825-10.484-2.39-7.876,3.368,3.639,5.16v4.183l8.039,6.681-2.01,4.346,5.378,6.03-2.336,3.042,3.477,5.269,1.032,9.18-2.118,2.825,2.39,4.074-2.281,4.346.435,3.8,3.1-2.336,2.553,2.662L198.3,299.4l-1.684,2.01-3.694,1.032-4.074,1.9-.054-.054-.923-.76v.109l-4.454-3.368-6.247,2.662L175.21,297.6l-5.16.38-11.19,6.736,2.553,2.336-5.106,4.128-.6,3.259-4.454.543L148.593,312l-6.627-.6-.706-3.259-4.454-2.988-6.627,2.39,4.291,6.193H139.3l4.617,2.933,3.911,3.151,6.953-.326,1.3,2.988,4.726,1.032,1.684,4.672,2.933,1.249-.272,2.825-3.857-.6-1.738,2.553,3.1,4.509-1.521,6.844-4.183-.326-1.086-2.336-1.63-1.412-.706-8.365-5.975-.76-5.432-6.627-.815,13.526,7.822,5.812.652,6.247,1.358,7.388.76,8.039,4.4-.435,7.007,5.758,4.509,2.553.38,3.531,3.965.706,10.647,10.647,2.39,10.973.217,1.032h.054l2.716,11.516.652,9.669-.923,1.467-1.412-6.9-4.835-18.795L164.4,382.885l.435-7.333-4.237-.435-5.7,8.528-1.684,28.627-4.4,28.844-3.1,22.434-.326,5.812,1.032.163,2.336-7.714,4.346-5.649,6.247,5.7.706,1.9,1.467,2.064-7.17.326-1.467-2.173-4.02,1.63-.76,5.269-3.748,5.106v7.876l-.054.217-6.03,32.32L130.45,546.28l-2.39,11.57-1.956,8.094-4.78,8.2-.217.38-.326.489-1.086,1.956-7.713,9.4-5.867,2.336-4.835.706v4.454l4.4,4.02,5.812.272.326,4.4,5.595.435,1.3-2.933,6.03,2.553,3.8.923.815,3.477-2.281,2.01v6.3l-4.726,2.39-.38,3.585,3.259,3.694,6.138,1.9,1.141-5.541,1.9-2.119-.217,3.042,2.662,3.8h6.084l2.662,3.639,8.257,1.358,7.876,4.835h12.548l.706,6.844,8.854,6.9L187.54,654l4.074-2.173,3.042-.6,1.738,1.738,9.615-5.269.543-7.062,2.716-2.01,1.358-10.864,4.726.923L217.96,627l-2.39-4.835,8.854-7.55,5.486-12.331,3.585-4.672-6.736-10.1,3.748-3.422-6.138-10.1-9.126-.652-.109-.109-.38-.706-2.01-3.477,2.281-6.193,3.476-4.509-1.032-5.7,2.825-2.825-4.074-6.844,3.042-3.639,3.422-.652,3.476,1.467,4.454-3.8,1.467,4.346,1.956,2.825,4.509-1.2-.38-4.726,1.141-2.444.923-1.9,3.857,3.259,5.323-5.323,2.227,3.151,6.084-1.086,6.41-.706,2.716-4.78,9.615-.923,5.323,5.269,2.01-1.956,3.748-1.141-1.358-4.726,4.563-1.2,7.007-1.521-1.467-4.346,1.847-2.118,1.847-6.953-3.748-4.074,2.118-6.844,4.726,2.825,8.365-1.521-3.694-8.039-2.553-9.56,6.464-.272,1.684-4.4.109-.272,3.151-3.1.326-4.889,7.225-.652,5.323-7.551-2.39-.815-.272-2.825,5.649-.706.435-3.531,2.5-1.63,3.368-5.921-3.151-3.477v-3.314l2.5-2.173.217-.054,7.17-3.314,8.257,3.694,6.79,9.723,4.346-.6,5.378-5.378,1.9,3.368,4.128-4.074,4.672,1.249.217,1.63,5.432-3.8-1.521-3.748-1.847-1.9,2.281-2.825h2.879l1.793-5.7,1.467-2.879-1.032-6.084,4.183-5.812,6.3-3.857.326-8.963,2.173,1.249,3.531,3.857h3.857l2.444-2.825-1.738-4.183,1.63-6.03-1.086-6.03-2.01-2.336v-4.454l3.1-5.106-.76-5.106-.435-.489-7.333-7.388-.543-2.5,6.084-3.531,3.965-2.173.978-4.78,4.183-3.151-1.412-6.79-2.716-3.477-.652-10.375-3.857-9.18-3.8-1.358-2.988-5.269-2.444,3.1-1.847-2.336v-4.074l-4.346-6.138-11.407,1.358-6.41-1.63-17.437-2.118-2.01,5.432-5.649-.272-1.358-.76-4.074.38-3.259-2.227-5.269,6.084-.76.869-.272.326-.435.489-5.378-5.378-3.259,3.2-6.138-.435.76-5.758-3.8-2.064-2.118-7.225-5.595-.76-3.259-3.259-6.193-4.889,1.249-3.748v-6.844l-6.138-6.084-.652-4.78-5.867-6.138-2.01-8.257-2.5-1.086-2.933-4.02L279.83,237.8l.652,3.585-8.2,1.956h-9.615l.272-3.585v-6.844l-8.148-2.39v-4.128l-6.573-1.358-1.358-5.486h-3.694ZM156.958,345.622l.326,4.943.6,1.141h-3.422l-.489-2.119Z" transform="translate(73.04 163.683)" fill="#f5f1e9" stroke="#000" stroke-width="2"/>
        <path id="polygon398" d="M257.918,103.263l-3.259,4.02-2.118,7.659-2.01,3.368h-.054l-.217.435-9.452,2.716-1.684,2.118,1.847,2.879v2.988l2.5.543-1.2,1.249.272,2.662.6-.435,2.933,2.933,1.032,4.074,2.607,2.607-1.249,3.422-.054,3.748,2.281,2.553-2.336,4.02,2.553,6.192,4.672,3.314.706,3.911,4.074.652.978,7.225,3.259,4.02,5.7,1.086,1.249.217.6,4.074.706,1.141.76,9.506,11.57-1.032,4.183-3.911L292.9,196.1l9.017.652,2.119,3.151,1.249,1.847L309.2,203.7l.326,5.16-5.758,3.965,3.857,3.422,3.911-2.5,9.18.326,3.639-.706.978-2.662,2.988.272.706,3.042,9.071-5.106,7.6-8.963-2.77-3.1,2.173-4.672,5.812-2.879,13.308.652,2.825-2.173.706.706.869-6.736,1.358-6.681,2.39-3.1.326-3.911,4.726-2.01v-3.639l-5.215.326-.815-1.793,1.684-2.988-1.467-5.541L369,150.794l.652-4.128,2.77-1.793-.38-2.118,1.358-1.684-6.247-1.3-1.738-4.02-3.151-1.086-8.909-8.583-1.032-7.551-4.183-3.042-2.444,1.249-3.151,2.553-3.314-1.032-5.758,2.39-4.889-2.825-2.173,2.879-2.607.272-1.956-1.575-3.694-2.173-3.965,2.662-.6-.6-1.521-1.467-7.55-4.509-7.388-3.857-3.857,1.738-3.8.978-2.553-1.956-5.758-3.531-4.563,3.476-6.247.706-8.909-.706-1.9-3.042-1.63-3.857Z" transform="translate(174.803 77.839)" fill="none" stroke="#000" stroke-width="2"/>
        <path id="polygon400" d="M313.046-2.174,301.8,3.095,284.908,5.811l-.6.109H284.2l-.978.163v.054L265.19,9.559,249.817,21.346V67.41l-.054.706-.109,1.086-.869,10.973,7.5,6.79V89.3l-8.746-5.215L235.748,98.535l3.694,1.575,3.531-.326,1.521,3.1,14.938,14.612.978,5.921,3.259,5.975-.924,1.141-2.227,2.662-1.684,4.237h2.716l-1.141,2.77-1.358,7.007,2.01,3.422v6.193H264.1L260.79,162.9l-1.086,3.368,3.151,2.825.923,7.659,1.467,2.336-1.521.38-3.531-1.956-.869,6.627.815-1.032.978,2.281,2.227,3.639,9.56.706,6.573-.706,4.237-3.259,5.106,3.151,2.933,2.227,4.4-1.141,3.422-1.575,6.953,3.639,7.388,4.346,2.607,2.662,4.183-2.77,3.042,1.793,2.227,1.793,3.477-.38,1.9-2.5,4.563,2.607,5.867-2.444,3.477,1.086,3.476-2.825,1.793-.923.109.109v.054l.543.38.435.272,2.227,1.63,1.032,7.442,9.234,8.909,2.988,1.086,1.793,4.128,6.247,1.3.978-1.249,1.684-3.477,5.106-2.39,2.716-7.17,3.368-2.281-2.227-3.042h-4.237l-.435-1.521,2.77-1.249,1.738-2.607-3.151-2.118.76-2.39,8.2-.652-1.738-3.857-4.617-3.042V174.2l6.084-4.509h7.6l-.706-3.585,3.422-1.467,5.7,3.748,2.988-.815-.326-11.95,1.032-3.965,1.467-5.16-4.4-2.336.76-2.01,6.573-1.412v-4.509l5.052-2.662,1.467-4.509-1.738-2.77.326-4.726,3.2-2.825-3.151-5.975.978-6.464h-7.6l-.217-2.607,6.79-4.074-1.141-7.116L414.3,90.931l1.2-1.249V85.01l5.269-3.857-1.575-3.1-11.136-8.746-19.5,1.032-2.01,3.368h-1.575l.326-11.57-5.758-6.79L375.46,56l-2.444-2.77-6.79,3.042L364,54.047l-4.617-.652-1.249-4.02-.326-13.852-3.1-1.358-.38-2.227h-2.01l-.706-4.128-5,.435-8.637,2.77-4.02,5h-3.585l-2.5-3.1-.978-3.639-3.639-4.128h-4.726l-1.793-3.314V16.295l2.39-3.748-1.467-5.432-4.617-9.289Z" transform="translate(172.311)" fill="#fff" stroke="#000" stroke-width="2"/>
        <path id="polygon410" d="M507.342,333.013l-3.422,1.521-.706,5-5.215.6-.978-4.454-2.281-2.336-6.518.706-2.662,2.281-1.412,7.5,1.249,2.064,7.007.706,1.358,4.291,2.607,1.3v6.573l-6.138-.272-2.716,2.988-7.714-1.358-4.346,3.694-3.1-1.358-5,3.911,1.738,3.1-2.281,2.281h-8.8v4.889l2.553,1.3-.76,1.738-5.486,2.227-7.333.706-2.227,6.953-.326,4.346,3.531,2.825-3.151,3.694-4.346-2.173-6.084-.435-.869,3.8,3.1,2.173-3.8,2.5,1.575,6.41,11.57,3.1,2.064,4.454,3.151.6-1.086,10.375-.054.543-1.3-1.521-3.313-2.879-1.956,5.7-2.77,2.444-.652-.054h-.489l-.6-.054-2.281-.163-4.834-3.585-1.412-4.563-9.832-.706-6.736-.652-.6-3.477,2.281-5-.815-.6-4.183,3.585-6.3-.652-1.086-1.847,4.78-6.518-5.215-4.943-5.269.435-3.911,6.138,1.032,6.681,5.541.652-.652,1.793-4.346.326-4.78,4.834-.815-1.086.978-6.79-2.336-2.77-9.778,1.467-2.119,4.291,1.3.706,5.595,9.343v7.768l10.1,10.049v3.857l-4.563,2.607-8.8,5-2.444,17.98-9.941-1.358-3.1,8.311,2.227,3.1-10.7,6.573-3.422,7.876,11.516.543,14.069,1.032,1.684,1.684H375.67l-3.857,6.627,15.318,3.2,12.711-2.227-6.464-6.084,3.368-2.825,6.03,2.553,3.042,6.573,19.827.326,4.672-1.9.706,2.227-6.138,5.378,8.094.326-1.086,2.662-2.716,3.2H446.83l7.931,2.607.6.815,1.086,1.521,6.03,2.662,1.684,6.9,4.291.76,3.585-2.5,5.921-3.639,9.832.978-.217,1.9-3.2,1.575.217.978,9.452.435-2.77-2.879-.652-3.911,3.911-2.716,4.889,1.575,1.9.652,1.9,2.281L506.2,535.3l.652-4.509,2.39-2.064h7.225l2.01-3.042,4.509,1.358,5.921-2.553v-9.778l-5.649.272,3.748-2.336,2.825-3.857.76-5.269,9.669-1.358,5.215-5.812V496.3l.326-.326.38-.435.054-.109.326-7.333,6.518,1.3,2.39-3.1,3.694.76.326-10.7,7.551-.6,6.736-6.138h6.355l.38-3.965,6.3-3.8-3.476-7.876,5.052-4.346-.978-4.943,7.333-2.336,2.119-7.822-1.032-5.215-1.738-3.151-1.467-4.835-5.486.435-16.024,5.758H566.28l-8.637-7.007-9.071-2.5h-4.726V412.1l-7.116-4.4v-6.03l5.486-.76-3.585-3.151-3.368-1.032-1.521-3.965,1.249-2.77,6.193-6.627-.978-4.78.543-.543.109-.109.815-.869,2.281-2.5,3.965.38v-3.965l-4.726-2.39-1.032-9.886-4.183-1.521-4.726.706-8.42-4.237-1.412-10.212-5.16-1.684-1.63-3.259-2.336-5.16-6.953-.326Z" transform="translate(258.525 247.451)" fill="#fff" stroke="#000" stroke-width="2"/>
        <path id="path416" d="M496.541,443.7l-5.649,3.8.76,3.694,2.5,3.2-2.988,2.281.706,1.412.706,1.412-1.956,2.227v3.477l3.422,3.1v4.4l-1.956,4.128-1.738.76-1.032-1.358-1.63-2.281-4.889.38-1.032-.706h-4.4l-3.965,3.694-1.358,5.595-8.637,1.63-7.007,5.921L455.149,494l-2.77-.272-2.336-2.77-1.086,6.627-2.444.978-.76,5.867.923,2.173-3.531,2.553-.923,2.5h-2.879v4.563l3.639,2.553,5.595,3.259.272,2.01-2.933.923-5.867,1.086v2.988l2.01,2.064.38,6.953,7.822,2.5,2.5.6,2.118,3.314-1.412,1.956-2.716.978-2.119,3.857-2.173,2.553,1.086,6.79,5.378-.326,1.467,1.086,4.78-2.336.815.815-2.39,5.106,2.227,2.227-3.694,2.77-3.042,6.79,8.148,1.9,9.506.869-3.531,4.074a4.895,4.895,0,0,0-3.042-.217.516.516,0,0,0-.217.109c-.012.01-.071.066-.163.163a.611.611,0,0,0-.163.163l-.109.217a.282.282,0,0,0,0,.054v.054a.911.911,0,0,0-.054.217v.163c0,1.276-1.647,4.435-2.281,5.541l-.217.326,3.639,3.965,6.247,3.857,11.625,3.1,3.314,1.358,2.607,1.086-2.227,4.128,5.975-.38,1.032,2.336h6.193l1.575-7.388-3.042-.6,4.509-4.726-1.9-1.9.272-2.553,6.138-3.368.435-4.563-4.834-.38-2.01,1.738v-1.738l5.269-.326,1.793-4.346,1.412-12.059V567.5l-1.032-5.052-.109-4.617-.217-10.158,8.148-11.516V516.978l-.163-.272-3.2-6.355-1.032-20.37-2.444-3.857-4.346-3.368-.706-12.276,2.118-5.812-2.77-9.289-1.684-7.442-1.521-2.281-3.476-1.956Z" transform="translate(322.613 329.165)" fill="#fff" stroke="#000" stroke-width="2"/>
        <path id="polygon418" d="M327.282,55.263l-2.39,2.933-14.5,11.136L284.641,75.8l-17.057,6.138-13.906,7.5-8.311,12.385-1.847,9.995,7.062,5.323,7.333,1.575-6.79,1.2-13.037,7.551L223.748,133.1l-11.353-6.355-27.866-4.128-6.573-3.422-9.669,2.5-3.151.76-.326-7.659-8.746-10.375,2.444-6.193h4.128l-3.694-10.212-15.155-.706-7.659,5.323L127.6,87.041,114.4,83.13l-1.684,4.183L120,93.179v7.062l-2.879,3.585,2.064,2.064.76.543-.652,6.3,2.444,5.541,7.822,8.854,1.63,7.659,1.684,2.444v12.059l4.074,8.311v9.234l-4.454,8.909,4.943,12.711,7.388,1.63.543,2.716-3.259,1.467h-6.953l1.2,4.943,2.064,6.627,5.921,5.215,3.314.815,2.77-3.748,3.042-.38,3.477-4.183,3.151,2.5h4.128l2.336,1.141v.815l6.41.76,3.368-2.607,4.617,1.847v.054l.326.6,1.956,3.259,4.183,3.1,5.106-3.422,3.368,2.39,9.343-5.541,9.126,1.358,5.378-2.173,1.358-3.314,2.825-.272,2.77,2.444,1.358,7.551,4.454,1.738,1.738,6.247,6.355.326,9.18-8.474,8.746-.326,2.5,3.368,1.684,12.439,5.867,2.064,3.531,5.215h6.9l.272,1.9,1.032-.054.272-2.879h.652l4.726,7.062,4.509.76v-8.854l-2.336-3.151-.6-2.227,4.672-2.825,5.215-1.032,3.639-4.346-.706-12.983-7.17-6.084-.326-5.867-.815-.543,4.237-4.074h4.563l12.276-6.355,3.8,1.575,8.963.054L328.151,184v-5l6.79-3.368V170.15l1.9-1.575-.163-1.521,2.227-2.227-3.585-.76v-2.444l-1.63-2.553,1.032-1.249,9.56-2.716,2.5-4.291,2.064-7.5,2.553-3.151.435-3.368,2.553,1.412,3.314-.923-2.064-3.2-.978-7.876-2.933-2.662.815-2.607,2.39-4.454,1.793-3.1h-3.8V107.9l-1.956-3.314,1.3-6.464,1.63-4.128h-2.716l1.032-2.607,3.531-4.291-3.477-6.355-1.032-6.192L336.245,59.88,334.4,56.3l-3.965.326-3.151-1.358Z" transform="translate(81.484 42.403)" fill="#fff" stroke="#000" stroke-width="2"/>
        <path id="polygon424" d="M398.115,49.7l-3.531,5.215-3.2,3.2v7.062l-3.8,2.553-7.388,2.336-3.8,1.575-4.672-3.639H364.6l-.978,6.627,2.933,5.541-2.933,2.607-.326,5.486,1.63,2.607-1.2,3.639-5.215,2.77v4.291l-6.355,1.358-1.249,3.422,4.454,2.39-1.249,4.346-1.032,4.128.217,9.071.109,2.173-1.793.489-5.758-3.748-4.726,2.01.652,3.151H335.1l-6.79,5.052v9.669l4.835,3.151.978,2.227-7.442.6-1.2,3.8,2.933,1.956-.978,1.521-3.314,1.467.869,3.151h4.563l1.249,1.738-2.716,1.847-2.716,7.062L320.329,176l-1.793,3.748-1.847,2.281.38,1.9-2.607,1.684-.815,5.269,2.825,1.793,1.249,4.672-1.684,3.1,1.3,2.933,4.834-.272v1.793l-4.726,2.01-.326,4.237-2.281,2.933-1.467,7.062-.815,5.975,2.5,2.064h4.02l8.528,8.854-1.086,9.234,6.681,5.106,3.368-2.336,5,5.975.652,6.138,3.8,5.052,1.793,4.074,14.069.706,6.464-3.259,1.847,3.531,3.042.435,1.793-3.8,10.864-.326L390.728,266l.706-4.237h9.234l2.336,1.3,2.933,1.63,5.975,6.355,7.55,10.212-4.509,4.835,3.314,2.281.38,5.975,5.6-.326,1.358,2.716,4.509.326,2.77-1.521,5.106,6.355.869,2.01L447,302.127l1.358-3.314.543.109v-3.694l4.183-1.847,5.432,2.064,5.215-2.118H467.1l1.086-7.116,2.227-2.607-3.585-.38-.272-3.2,4.672-1.032.272-2.607h4.834v-4.563l3.911-1.412-1.032-2.825.326-.217.109-.054.815-.543,2.173-1.3-1.3-2.01.869-.489,2.336,2.716,3.965-2.77.978-3.2,5.867-.978,1.358,1.086-.326,3.748,4.78,3.639,3.1-.326,2.988-2.39h6.681l5.106,5.758H521.1l3.042-1.9.38-1.956,2.227-1.141,2.716,1.847,2.988,3.368,10.81,5.7,1.521,2.933,5.541.326,5.921,4.563.869,2.118-.326,3.857L555.1,293.11l.76,4.726,4.834-.706.869,3.314,1.793,7.659,3.8-.6-.652,3.259,2.77,2.39,12.928-.326L589,307.45l.326-7.551,3.585-4.617-4.672-5.378-2.173-5.052,2.607-3.639v-8.583l1.684-3.965v-6.844l3.151-4.563-3.476-4.889-.272-8.8-.054-.76v-.38l-.054-.6,8.8-17.22.109-.163-1.086-9.886,4.074-13.254,1.032-11.3,8.8-6.464v-4.128l3.151-4.128h2.716l3.368-3.368-.706-5.867,2.933-7.768,5.486-1.249-5.7-4.509-8.528-.978-7.659-3.857-4.943,2.988-2.607-2.879h-3.911l-5.378,1.467v-.054l-.978.272-.489.163-.109.054-2.119-3.042-6.844-4.183-2.5-3.911-8.637.76-4.78,4.4L552,144.055l-3.2-2.227c-.433-.77-2.036-3.459-3.531-4.291-.068-.037-.123-.128-.217-.163-.066-.033-.16-.026-.217-.054l-.326-.054v.489l-.163-.489c-1.2,0-3.65-1.285-4.78-1.956l-.217-.109-5.323,2.227-.326,3.965-5,.6-3.314-6.3-1.9-.652v-4.726l-4.78-2.064-.326-8.039-3.585-3.476-7.225-3.531-3.748-.054-1.032.706h-3.1l-4.726-4.074-5.487.326-4.237,3.531-.978,1.575h-5.215l-2.01-2.064h-5.432l-6.138-6.79h-8.257l-4.074,3.748-5.812.326-2.01,2.064h-1.412l-1.3-6.193-2.933-2.933-1.358-.217-1.086-.163-1.738-.272L434.13,96.09l-2.988-2.281L421.8,92.777l-1.63-4.237-3.2-2.118-10.7-1.358-.6-7.17,1.358-1.358V73L401.7,69.636l.869-3.314,1.521-3.748-2.227-1.9,3.477-3.151V50.9l-1.684-1.2h-5.541Z" transform="translate(229.018 38.297)" fill="#fff" stroke="#000" stroke-width="2"/>
        <path id="polygon432" d="M301.431,341.138,294.1,344.56l-1.793.272.435.652-2.173,1.847v4.183l2.933,3.259-2.825,4.943-2.825,1.847-.326,3.2-5.867.706.38,4.509,1.738.6-4.237,6.03-7.6.652-.38,5.378-2.933,2.879-1.684,4.346-7.116.326,2.933,10.864,2.988,6.518.163.38-6.681,1.2-5.486-3.259-2.662,8.691,3.748,4.074-1.575,6.084-2.173,2.5,1.3,3.8-5.921,1.249-5.6,1.467,1.358,4.78-1.793.489-.869.272-.272.109-1.521,1.412-4.943-4.834-10.647,1.032-2.716,4.78-5.921.652-5.432.923-2.553-3.585-5.541,5.541-4.183-3.531-2.716,5.812.272,4.128-2.933.815-1.467-2.01-1.9-5.812-5.106,4.4-3.2-1.3-4.128.76-3.694,4.509,3.965,6.79-2.607,2.607,1.032,5.812-3.2,4.183-2.553,6.844,2.988,5.215,8.311.6.869.109,5.378,8.909-3.748,3.422,6.844,10.212-3.2,4.183-5.378,12.168-9.4,7.985,2.336,4.726-1.467.978-5.432-1.086-1.412,11.516-2.77,2.064-.6,8.257,1.412-.869,5.486,3.259,6.627,5,.652,4.02,5.7,4.672h4.672l11.027-4.672,4.563,5.269,7.007,1.847,2.39-3.965,2.607,1.141,6.247.435,14.829,1.032.706-16.676,4.074.6,6.247,3.694,2.5,1.412,10.755,2.064h4.183l5.758,7.5,14.558-.706,5.867,9.289,5.378-2.173,14.395,2.01.978,5.378.163,1.032.543,3.2,5.215,4.889,9.995,2.77.326,5.921,5.812,5.106,4.509-.815,5.812-7.116,6.79-1.3,10.973,3.694,9.832,8.42,2.879-3.639h1.956l2.5,1.793,2.607-1.249.326-4.726,9.995-2.336,3.368-4.4,4.889-1.63h6.79l4.454,4.726,6.193.435v-6.193l-2.879-3.965-4.617-2.01-.706-28.464-.326-10.538.435-11.788-4.4.326-3.042-4.509,2.227-3.585,5.6,5.269,5.486-4.4,3.585-3.477.38-3.314.272-1.956,12.113-3.748,1.3-2.933,9.452-.326,3.1-3.857L461.73,498.83l11.407-8.039,3.2.217,5.975.435v6.844l8.257-.38,4.563.217,3.1-7.225,11.353-6.953-2.553-3.585,2.662-7.007,10.158,1.412,2.444-18.523,13.471-7.659v-4.889l-10.1-10.049v-7.6l-5.921-9.832-12.765-7.17L506,414.688l-3.965.38-1.467-5.323-5.649,1.086-.869,6.464-3.151-1.141-8.42-5.486-3.368,1.738v-9.071l-5.7-3.422-1.467-.869.978-7.116-5.812-6.3-2.39-12.331-8.963-11.516-6.138,1.467-1.3-4.617h-4.291l-.652,4.183-8.039,2.5-6.138-15.7-10.158,3.694-2.553,5.7-6.193-4.128-4.943,15.59-4.563,10.484-2.336-2.933-1.032-9.941H394.1l-1.521-9.669-6.681.978-.869-5.758-1.358-2.173L373.405,360.2v7.876h-2.336l-.978,7.822-2.336.923-1.847,4.183h-9.941l-.923-1.412h-5.432l-2.879,4.726-.489-.054-2.336-.326,1.847-5.595-4.291-1.9,4.291-9.995-5.921-4.4-1.956-12.6-5.867-1.575-3.585,3.531-1.9-3.368-6.138,6.084-3.368.435-6.573-9.4Z" transform="translate(117.058 253.449)" fill="#fff" stroke="#000" stroke-width="2"/>
        <path id="path436" d="M320.557,241.795l-4.726,6.138-2.716.326-2.77,2.879-3.422-3.748-9.669,9.723v5.867l1.684,1.412.272,2.173-4.291,3.368-4.291-1.3-8.8,1.793-4.509,5.16-2.118,4.563.923-.217,3.8,5.378v4.074l2.825,3.694,2.336-2.933,2.444,4.237,3.694,1.358,3.639,8.528.163,2.662v.054l.489,7.876,2.77,3.368,1.249,6.03-3.965,2.988-.978,4.726-3.531,1.9-6.79,3.911.76,3.585,7.822,7.822.652,4.4-3.1,5.052v5.106l2.118,2.444.978,5.486-.76,2.716-.978,3.422,1.684,3.911-1.738,2.01h-2.879l-3.259-3.585-3.911-2.227-.38,10.1-5.867,3.585-4.726,6.41,1.086,6.193-1.358,2.607-1.575,5.106h-2.607l-3.151,3.911,2.336,2.336,1.141,2.879-4.346,3.042,1.9,11.9,5.6,4.183-4.4,10.158,4.4,1.956-1.956,5.867,4.78.652,2.879-4.834h4.237l.923,1.412h11.244l1.956-4.4,2.444-1.032.978-7.5h2.444v-8.42l9.017-7.659.543.869.978,6.627,6.79-.978,1.412,9.56H321.7l.923,9.126v.163l3.639,4.509,5.269-12.113,4.563-14.286,6.03,4.074L345,427.461l8.583-3.1.217-.109,6.138,15.644,9.56-2.933.652-3.965H372.7l1.412,4.834,6.464-1.575,7.388,9.452.652.815.326.38,2.336,12.385.054.163,5.7,6.138-1.032,7.279,7.279,4.4V487.43l4.346-2.227,8.039,5.215,4.454,1.684.923-7.062,4.02-.76,1.412,5.269,5.649-.6.869-4.943,10.864,6.138,1.9-3.911,4.835-.706,3.8-.543,1.684,1.956-.978,6.79,1.847,2.336,5.323-5.378,4.617-.38,1.3-3.639-6.03-.706-.869-5.541,3.422-5.378,4.291-.326,4.237,3.965-4.672,6.355,1.684,2.879,7.279.76,2.716-2.336-1.412,3.1.815,4.617,7.5.706,9.18.652,1.3,4.237,5.323,3.965,4.78.326,3.314-2.933,1.521-4.509,2.064,1.847,2.825,3.314,1.521-14.286-3.585-.706-2.064-4.4-11.407-3.042-1.249-5.106,4.454-2.933-3.8-2.662.543-2.281,4.889.326,5,2.5,4.346-5.106-3.911-3.2.272-3.694,1.956-6.138,6.79-.652,6.084-2.444.543-1.2.109-.326.326-.706h-.054l.38-.815-2.879-1.467v-3.2h8.148l3.151-3.151-1.63-2.988,3.8-2.988,3.1,1.358,4.454-3.8,7.822,1.412,2.716-3.1,6.79.326v-8.311l-2.825-1.412-1.358-4.509-7.225-.706-.76-1.3,1.249-6.736,2.118-1.793,5.758-.652,1.738,1.738,1.086,5.106,6.953-.815.706-5.215,2.662-1.2,7.333.38-.272-.543,9.4-3.748,3.639,2.336h4.346l.38-4.291,4.128-2.227,1.738-2.064,9.017-3.477,1.141-6.247-1.684-2.607,4.943-8.42-4.78-1.793-1.3-4.726-9.126-5.378c.09-1.95.449-10.23-.38-12.222l.652-.543h-1.63c-1.123.282-4.983.572-6.03.652l-4.834-5.432.163-5.867.163-5.106,11.462-4.78,1.467-3.639-.706-7.822-7.876-8.2-1.956,1.141v-7.6l-6.518-3.1-.217-2.227,3.694-4.02v-5.16l-6.138-6.464-.326-4.672H571.9l-7.876,1.358-7.17,5.812L555,277.863l-4.4.38-3.531,7.768-.054.163.435,3.368,3.314,2.716-6.3,4.128-4.237,3.965H529.744V294.7l3.748-2.173,6.355-.706.489-4.128-1.847-1.249,4.943-6.247-.869-2.444-6.355-3.422-14.232,15.7h-9.126V286.12l-6.03-2.988-6.627,7.225-4.346.6v-4.509l-4.563-2.064-6.79-9.56-6.084-2.336-2.01-4.454-3.911-.815-3.477,2.444-2.39.652-3.694-3.1-4.237.435-2.553,4.78-6.41,24.987-.923,2.064v.054l-.978,2.336-1.63-.217-1.249-6.518-1.9-5.812-4.291.38-2.77,2.77-2.01-2.716-3.151,2.825-3.965-2.553h-3.694l-1.63,1.249-.815,4.4-1.141,6.247h-3.531l-2.5,2.5-1.847-1.847-11.027-1.684-.163-.054-4.128,2.444h-2.173l-.6-2.336-5.052-1.032-.326-5.378-.923-.326L394,289.107l.326-13.634-2.662-3.748h-5.432l-2.01-2.716h-5.758l-1.412-1.738v-4.943l-6.9-13.091-3.965-2.879-6.627,9.126-2.01.489-.978-4.128-3.748-1.684-1.412,2.879h-4.346l-.76-3.314-4.02,2.336-3.314,1.847-3.8-4.128-5.7-2.716-.326-4.509-8.583-.76Z" transform="translate(191.852 180.109)" fill="#fff" stroke="#000" stroke-width="2"/>
        <path id="polygon452" d="M283.778,119.826,281.171,122v5.323l-6.79,3.368v5.269l-1.738,2.064h-8.148l-4.183-1.738-12.385,6.464h-4.78l-5.541,5.269,1.467.978.326,5.758,7.17,6.084.652,12.113-3.1,3.8-4.943.978-5.6,3.314.76,3.1,2.336,3.1V195.6l1.032.109L241.9,198.7l-1.141,1.412-.38.489-.272.38-1.956,2.444-2.879,5.106,3.477,3.2-.326,6.79-1.249,4.346H233.64v6.79l-4.509,5.867-5.106,2.01-2.662,3.422.815,2.064.272.652.163.435.326.652-9.452,2.607-2.173,3.151-4.889-3.2,2.281,7.5h-2.879l-7.17-5.052-3.8,7.659,1.793,2.173v1.63l-3.422,4.454.38,7.442-5.323,6.3-4.128,14.775h.706l1.358,5.378,6.355,1.3v4.074l8.148,2.39v6.03l-.38,4.617h10.864l9.343-2.173-.76-3.911,2.01-1.249,2.5,3.477,2.281.978,2.01,8.039,5.812,6.084.652,4.78,5.541,5.486.543.543v6.193l-1.467,4.346,6.736,5.269,3.477,3.476,5.269.706,2.064,7.007,3.531,1.956-.543,4.346-2.336.435V374.8l1.032.217,8.746.652,2.879-2.825,5.432,5.432L282.8,370.4l2.825,1.9,4.074-.38,1.249.652,6.736.38,2.01-5.378,16.513,2.01,6.573,1.684,2.39-.272.869-.109h.163l7.876-.978,1.738-3.694,4.237-4.834L348.2,359.7l4.617,1.412,5.16-4.074-.38-3.2-1.684-1.3v-5l8.637-8.637,3.422,3.748,3.259-3.368,2.77-.326,4.672-6.03,7.116.6.054,1.412,1.032.109,2.662-8.528-1.684-3.1.272-4.237,1.086-9.071-3.748-3.748.706-8.039-3.477-7.17-.326-4.889-6.193-4.78-.869-3.694,2.988-4.346v-6.79l-3.151-3.748-.652-.76-.054-.054-.217-.217-.272-2.825,6.9-2.01-1.2-4.237-1.032-5.432-4.4-6.193-.815-2.988h6.247l5.106-3.639.706-5.541-2.825-3.2,8.583-7.225v-6.627l-4.509-4.78-1.684-5.432-6.518-6.193-8.2,4.617-.6-2.39-4.509-.38-1.032,2.825-2.988.543-9.343-.326-3.531,2.281-2.281-2.01,5.16-3.531-.38-6.355-4.237-2.118-3.476-5.215-9.234-.652-3.965-3.259-4.563,4.291-8.8.76.054-.054-.923.109-.38.054-.109.054-.706-8.746-.706-1.032-.706-4.672-7.279-1.412-2.879-3.477-1.032-7.713-4.074-.652-.652-3.585-4.78-3.422-2.281-5.432,2.5-4.183-2.553-2.825v-3.1l1.467-3.965-2.879-2.879-1.032-4.074-3.8-3.8Z" transform="translate(134.222 90.066)" fill="#fff" stroke="#000" stroke-width="2"/>
        <path id="polygon464" d="M327.906,151.107l-3.2,2.444-13.2-.652-6.41,3.2-2.607,5.6,2.662,2.933-7.225,8.528,6.41,6.03,1.63,5.323,4.454,4.78V195l-9.071,7.6,3.2,3.639-.6,4.617-4.454,3.2h-7.279l1.2,4.4,4.4,6.138,1.032,5.378.923,3.259-3.422.978-3.314.978.38,4.02,4.074,4.726v6.138l-3.1,4.454,1.086,4.454,6.084,4.726.326,4.509,3.422,7.225L304.6,283.7l3.748,3.694-1.032,8.637-.326,4.563,1.63,2.988-2.553,8.148.272,2.988,5.975,2.77,4.291,4.726,4.074-2.281,2.77-1.684.652,2.77h5.812l1.249-2.553L333.5,319.5l1.086,4.672,3.422-.815,6.3-8.583,2.825,2.01.76,1.412,5.975,11.244v5.16l1.956,2.39h5.758l2.01,2.716h5.432l2.118,2.988-.326,12.82-7.007,5.378-.6,1.358,1.3-.163.6.163.326,5.486,5.16,1.032.652,2.5h3.259l4.074-2.39,10.484,1.63,2.336,2.336,2.933-2.933H398.3l2.064-11.081,1.032-.815h3.042l4.346,2.879,2.879-2.607L413.731,361l3.368-3.314,3.1-.272,1.575,4.943,1.412,7.17,3.151.435,2.227-5.215,6.355-24.987,2.281-4.183,3.259-.326,3.748,3.151,2.988-.76,3.368-2.336,2.933.6,2.01,4.346,2.118.815.163.054,3.857,1.521,6.79,9.506,4.237,1.9V359.1l5.921-.815,6.3-6.953,4.78,2.39v4.291h10.592l14.721-16.187-.869-.489.6-6.627,5.486-6.518-3.694-1.467.272-1.793,20.913-19.61.163-.163-.652-16.187,7.116-3.531,5.106-2.39,5-4.617.38-6.355,4.454-2.281L570.5,256.868l-1.63-3.911,3.313-1.467,4.889-5.921-2.933-2.933-7.931,1.63-.109-.6,7.768-8.963h-.054l.76-.869,4.834-.76-1.793-7.768-1.141-4.237-4.726.706-.543-3.368,1.575-2.933.38-4.4-1.086-2.607-6.355-4.943-5.269-.326-1.141-2.281-.163-.326-10.918-5.758-2.988-3.368-3.422-2.281-3.2,1.63-.38,2.01-2.39,1.521h-1.3l-5.106-5.758h-7.551l-3.042,2.39-2.39.272-4.02-3.042.326-3.748-2.118-1.684-6.953,1.141-1.086,3.477-2.879,2.064-2.336-2.716-2.5,1.521,1.3,2.01-3.259,2.01.978,2.662-3.585,1.3v4.237H485.6l-.326,2.77-4.834,1.086.435,4.943,2.5.272-1.2,1.358-.978,6.518H478.59l-5.106,2.01-5.432-2.064-5.215,2.281v3.1h-.109l-1.467,3.585-6.736,1.521-.543-1.249-5.812-7.279-3.259,1.847-3.639-.326-1.358-2.77-5.269.326-.326-5.486-2.77-1.847,4.291-4.617-8.094-10.918-6.084-6.464-5.7-3.2H405.583l-.76,4.563-4.074,2.227-10.592.326-.272-1.2-.543,1.2h-.272l.109.435-1.521,3.259-1.738-.272-2.118-3.965-7.116,3.585-13.145-.652-1.63-3.585-3.639-4.943-.652-6.138-5.867-6.953-3.477,2.444-5.595-4.291,1.032-9.126-9.126-9.56h-4.128l-2.553-2.118Z" transform="translate(213.999 113.159)" fill="#fff" stroke="#000" stroke-width="2"/>
      </g>
      <text id="Cabanac" transform="translate(-789.19 3546.587)" fill="#f36742" font-size="12" font-family="Termina-Demi, Termina" font-weight="300"><tspan x="-33.042" y="0">Cabanac</tspan></text>
      <g id="cartes-et-drapeaux" transform="translate(-850.932 3511.662)">
        <g id="Groupe_52" data-name="Groupe 52" transform="translate(0)">
          <path id="Tracé_43" data-name="Tracé 43" d="M83.274,0a12.715,12.715,0,0,0-12.7,12.7c0,8.691,11.366,21.45,11.85,21.989a1.144,1.144,0,0,0,1.7,0c.484-.539,11.85-13.3,11.85-21.989A12.715,12.715,0,0,0,83.274,0Zm0,19.091a6.39,6.39,0,1,1,6.39-6.39A6.4,6.4,0,0,1,83.274,19.091Z" transform="translate(-70.573 0)" fill="#f36742"/>
        </g>
      </g>
    </g>
  </g>
</svg>
