<svg id="l_horloge" data-name="l&apos;horloge" xmlns="http://www.w3.org/2000/svg" width="20.471" height="20.471" viewBox="0 0 20.471 20.471">
  <path id="Tracé_19" data-name="Tracé 19" d="M18.317,5.386a.853.853,0,0,0-.4,1.139,8.443,8.443,0,0,1,.844,3.71,8.529,8.529,0,1,1-8.529-8.529,8.427,8.427,0,0,1,5.3,1.84.853.853,0,1,0,1.061-1.335,10.237,10.237,0,1,0,3.879,8.024,10.131,10.131,0,0,0-1.015-4.453A.852.852,0,0,0,18.317,5.386Zm0,0" fill="#797979"/>
  <path id="Tracé_20" data-name="Tracé 20" d="M176.853,64a.853.853,0,0,0-.853.853v5.971a.853.853,0,0,0,.853.853h4.265a.853.853,0,0,0,0-1.706h-3.412V64.853A.853.853,0,0,0,176.853,64Zm0,0" transform="translate(-166.618 -60.588)" fill="#797979"/>
</svg>
