<svg id="maison-pour-animaux-de-compagnie" xmlns="http://www.w3.org/2000/svg" width="104.057" height="104.056" viewBox="0 0 104.057 104.056">
  <path id="Tracé_30" data-name="Tracé 30" d="M62.136,4.187a14.293,14.293,0,0,0-20.214,0L1.585,44.523A5.413,5.413,0,0,0,9.24,52.178l2.9-2.9v53.044a1.734,1.734,0,0,0,1.734,1.734H90.182a1.734,1.734,0,0,0,1.734-1.734V49.278l2.9,2.9a5.413,5.413,0,1,0,7.654-7.655Zm26.312,96.4H15.608V45.809L50.294,11.124a2.517,2.517,0,0,1,3.469,0L88.448,45.809Zm10.2-50.294a1.957,1.957,0,0,1-1.376-.568L56.215,8.671a5.922,5.922,0,0,0-8.373,0L6.788,49.726a1.945,1.945,0,0,1-2.75-2.75L44.373,6.639a10.827,10.827,0,0,1,15.31,0L100.02,46.975a1.944,1.944,0,0,1-1.375,3.319Zm0,0" transform="translate(0)" fill="#696662"/>
  <path id="Tracé_31" data-name="Tracé 31" d="M160.665,285.9c-2.168-8.255-8.072-13.9-14.719-13.9s-12.551,5.649-14.718,13.9a12.14,12.14,0,0,0-1.474,24.032,12.464,12.464,0,0,0,2.319.218,12.011,12.011,0,0,0,2.361-.232,40.1,40.1,0,0,1,7.681-.952h7.67a40.1,40.1,0,0,1,7.681.952,12.14,12.14,0,1,0,3.2-24.018Zm7.768,13.129a8.672,8.672,0,0,1-6.937,7.5,8.815,8.815,0,0,1-3.358,0,43.051,43.051,0,0,0-8.358-1.02h-7.669a43.042,43.042,0,0,0-8.357,1.02,8.815,8.815,0,0,1-3.358,0,8.672,8.672,0,0,1,1.675-17.185,3.786,3.786,0,0,1,.43.025,1.755,1.755,0,0,0,1.8-1.387c1.511-7.364,6.3-12.512,11.645-12.512s10.135,5.148,11.646,12.517a1.952,1.952,0,0,0,1.968,1.372c.085,0,.174-.014.26-.014a8.673,8.673,0,0,1,8.613,9.69Zm0,0" transform="translate(-93.918 -213.035)" fill="#696662"/>
  <path id="Tracé_32" data-name="Tracé 32" d="M156.034,179.408a8.338,8.338,0,0,0,4.948,1.717,7.465,7.465,0,0,0,1.925-.253c4.619-1.239,7.167-6.755,5.681-12.3a11.533,11.533,0,0,0-4.2-6.343,7.99,7.99,0,0,0-6.873-1.464c-4.618,1.239-7.168,6.755-5.681,12.3A11.529,11.529,0,0,0,156.034,179.408Zm2.385-15.289a3.917,3.917,0,0,1,1.011-.132,4.948,4.948,0,0,1,2.908,1.041,8.079,8.079,0,0,1,2.905,4.447c.992,3.694-.458,7.3-3.23,8.047a4.592,4.592,0,0,1-3.919-.905,8.08,8.08,0,0,1-2.91-4.45C154.2,168.471,155.647,164.861,158.419,164.119Zm0,0" transform="translate(-118.591 -125.728)" fill="#696662"/>
  <path id="Tracé_33" data-name="Tracé 33" d="M253.52,180.9a7.423,7.423,0,0,0,1.925.253,8.346,8.346,0,0,0,4.948-1.717,11.534,11.534,0,0,0,4.2-6.343c1.486-5.542-1.063-11.058-5.681-12.3a7.978,7.978,0,0,0-6.873,1.464,11.528,11.528,0,0,0-4.2,6.344C246.352,174.136,248.9,179.654,253.52,180.9Zm-2.336-11.4a8.073,8.073,0,0,1,2.9-4.45A4.95,4.95,0,0,1,256.992,164a3.921,3.921,0,0,1,1.011.132c2.775.742,4.221,4.353,3.229,8.047a8.079,8.079,0,0,1-2.9,4.45,4.6,4.6,0,0,1-3.919.905C251.647,176.8,250.2,173.188,251.184,169.495Zm0,0" transform="translate(-193.779 -125.749)" fill="#696662"/>
  <path id="Tracé_34" data-name="Tracé 34" d="M311.495,239.531a11.562,11.562,0,0,0-1.52,7.458,7.981,7.981,0,0,0,3.826,5.9,7.458,7.458,0,0,0,3.756.988,10.74,10.74,0,0,0,8.956-5.671,11.558,11.558,0,0,0,1.519-7.457,7.976,7.976,0,0,0-3.826-5.9C320.064,232.466,314.363,234.561,311.495,239.531Zm8.91-2.209a4.092,4.092,0,0,1,2.067.538,4.584,4.584,0,0,1,2.131,3.406,8.079,8.079,0,0,1-1.094,5.2c-1.908,3.311-5.492,4.84-7.978,3.407a4.588,4.588,0,0,1-2.128-3.407,8.082,8.082,0,0,1,1.095-5.2A7.293,7.293,0,0,1,320.405,237.321Zm0,0" transform="translate(-242.696 -183.167)" fill="#696662"/>
  <path id="Tracé_35" data-name="Tracé 35" d="M100.206,252.886a7.976,7.976,0,0,0,3.826-5.9,11.561,11.561,0,0,0-1.519-7.458c-2.87-4.968-8.571-7.065-12.712-4.682a7.981,7.981,0,0,0-3.826,5.9,11.558,11.558,0,0,0,1.52,7.457,10.738,10.738,0,0,0,8.955,5.664A7.459,7.459,0,0,0,100.206,252.886ZM90.5,246.469a8.08,8.08,0,0,1-1.095-5.2,4.589,4.589,0,0,1,2.135-3.406,4.1,4.1,0,0,1,2.068-.538,7.3,7.3,0,0,1,5.91,3.944,8.081,8.081,0,0,1,1.094,5.2,4.584,4.584,0,0,1-2.135,3.407C95.986,251.309,92.4,249.78,90.5,246.469Zm0,0" transform="translate(-67.255 -183.168)" fill="#696662"/>
</svg>
