<svg id="certification" xmlns="http://www.w3.org/2000/svg" width="104.056" height="104.056" viewBox="0 0 104.056 104.056">
  <g id="Groupe_51" data-name="Groupe 51">
    <g id="Groupe_50" data-name="Groupe 50">
      <path id="Tracé_36" data-name="Tracé 36" d="M88.818,15.239A52.028,52.028,0,1,0,15.239,88.818,52.028,52.028,0,1,0,88.818,15.239ZM52.028,99.911A47.883,47.883,0,1,1,99.911,52.028,47.937,47.937,0,0,1,52.028,99.911Z" fill="#696662"/>
      <path id="Tracé_37" data-name="Tracé 37" d="M92.457,51a41.457,41.457,0,1,0,41.457,41.457A41.5,41.5,0,0,0,92.457,51Zm0,78.768a37.311,37.311,0,1,1,37.311-37.311A37.353,37.353,0,0,1,92.457,129.768Z" transform="translate(-40.429 -40.429)" fill="#696662"/>
      <path id="Tracé_38" data-name="Tracé 38" d="M188.386,168.448a2.072,2.072,0,0,0-1.144-1.369,78.581,78.581,0,0,0-16.686-5.134,46.323,46.323,0,0,0-14.624-.612,22.939,22.939,0,0,0-13.468,6.255,18.6,18.6,0,0,0-2.673,22.922,44.087,44.087,0,0,0-3.409,5.592,2.073,2.073,0,1,0,3.7,1.867,38.274,38.274,0,0,1,2.4-4.065,18.594,18.594,0,0,0,26.277-.02c6.485-6.485,18.761-22.986,19.281-23.685A2.075,2.075,0,0,0,188.386,168.448Zm-22.556,22.5A14.449,14.449,0,1,1,145.4,170.519c4.023-4.023,9.713-5.375,15.548-5.375a61.085,61.085,0,0,1,18.092,3.267,86.9,86.9,0,0,0-16.17,4.978,2.073,2.073,0,1,0,1.674,3.793,86.487,86.487,0,0,1,16.814-5.01C177.176,177.637,170.078,186.706,165.831,190.953Z" transform="translate(-107.936 -127.629)" fill="#696662"/>
      <path id="Tracé_39" data-name="Tracé 39" d="M224.02,234.47a20.922,20.922,0,0,0-2.8,2.254A2.073,2.073,0,1,0,224.1,239.7a16.772,16.772,0,0,1,2.247-1.8,2.073,2.073,0,0,0-2.33-3.429Z" transform="translate(-174.862 -185.584)" fill="#696662"/>
      <path id="Tracé_40" data-name="Tracé 40" d="M243.073,89.146a30.489,30.489,0,0,1,6.21.637,2.073,2.073,0,1,0,.846-4.058A34.629,34.629,0,0,0,243.073,85a2.073,2.073,0,0,0,0,4.146Z" transform="translate(-191.045 -67.381)" fill="#696662"/>
      <path id="Tracé_41" data-name="Tracé 41" d="M111.066,95.065a2.073,2.073,0,1,0-1.14-3.986,34.655,34.655,0,0,0-17.859,12.193A34.1,34.1,0,0,0,85,124.165a2.073,2.073,0,1,0,4.146,0A30.388,30.388,0,0,1,111.066,95.065Z" transform="translate(-67.381 -72.136)" fill="#696662"/>
    </g>
  </g>
</svg>
