<svg id="ecosysteme" xmlns="http://www.w3.org/2000/svg" width="102.322" height="104.057" viewBox="0 0 102.322 104.057">
  <g id="Groupe_13" data-name="Groupe 13" transform="translate(0 67.603)">
    <g id="Groupe_12" data-name="Groupe 12">
      <path id="Tracé_21" data-name="Tracé 21" d="M20.344,326.837a8.671,8.671,0,1,0-12.257-.38q.184.2.38.38A8.517,8.517,0,0,0,4,334.3v10.533a1.733,1.733,0,0,0,1.732,1.734H23.077a1.733,1.733,0,0,0,1.734-1.732V334.3A8.515,8.515,0,0,0,20.344,326.837Zm-5.939-11.488a5.2,5.2,0,1,1-5.2,5.2A5.2,5.2,0,0,1,14.406,315.349ZM21.343,343.1H7.469v-8.8a5.081,5.081,0,0,1,5.076-5.076h3.723a5.081,5.081,0,0,1,5.076,5.076Z" transform="translate(-4 -311.847)" fill="#696662"/>
    </g>
  </g>
  <g id="Groupe_15" data-name="Groupe 15" transform="translate(41.623 10.406)">
    <g id="Groupe_14" data-name="Groupe 14">
      <path id="Tracé_22" data-name="Tracé 22" d="M204.671,48a8.671,8.671,0,1,0,8.671,8.671A8.671,8.671,0,0,0,204.671,48Zm0,13.874a5.2,5.2,0,1,1,5.2-5.2A5.2,5.2,0,0,1,204.671,61.874Z" transform="translate(-196 -48)" fill="#696662"/>
    </g>
  </g>
  <g id="Groupe_17" data-name="Groupe 17" transform="translate(48.343)">
    <g id="Groupe_16" data-name="Groupe 16" transform="translate(0)">
      <rect id="Rectangle_50" data-name="Rectangle 50" width="3.277" height="6.555" fill="#696662"/>
    </g>
  </g>
  <g id="Groupe_19" data-name="Groupe 19" transform="translate(48.343 31.136)">
    <g id="Groupe_18" data-name="Groupe 18" transform="translate(0 0)">
      <rect id="Rectangle_51" data-name="Rectangle 51" width="3.277" height="7.374" fill="#696662"/>
    </g>
  </g>
  <g id="Groupe_21" data-name="Groupe 21" transform="translate(31.136 17.207)">
    <g id="Groupe_20" data-name="Groupe 20" transform="translate(0 0)">
      <rect id="Rectangle_52" data-name="Rectangle 52" width="7.374" height="3.277" fill="#696662"/>
    </g>
  </g>
  <g id="Groupe_23" data-name="Groupe 23" transform="translate(62.272 17.207)">
    <g id="Groupe_22" data-name="Groupe 22" transform="translate(0 0)">
      <rect id="Rectangle_53" data-name="Rectangle 53" width="7.374" height="3.277" fill="#696662"/>
    </g>
  </g>
  <g id="Groupe_25" data-name="Groupe 25" transform="translate(57.897 3.984)">
    <g id="Groupe_24" data-name="Groupe 24" transform="translate(0 0)">
      <rect id="Rectangle_54" data-name="Rectangle 54" width="7.135" height="3.469" transform="translate(0 5.045) rotate(-45)" fill="#696662"/>
    </g>
  </g>
  <g id="Groupe_27" data-name="Groupe 27" transform="translate(35.194 26.681)">
    <g id="Groupe_26" data-name="Groupe 26" transform="translate(0 0)">
      <rect id="Rectangle_55" data-name="Rectangle 55" width="7.135" height="3.469" transform="translate(0 5.045) rotate(-45)" fill="#696662"/>
    </g>
  </g>
  <g id="Groupe_29" data-name="Groupe 29" transform="translate(35.193 3.976)">
    <g id="Groupe_28" data-name="Groupe 28" transform="translate(0 0)">
      <rect id="Rectangle_56" data-name="Rectangle 56" width="3.469" height="7.135" transform="translate(0 2.453) rotate(-45)" fill="#696662"/>
    </g>
  </g>
  <g id="Groupe_31" data-name="Groupe 31" transform="translate(57.895 26.677)">
    <g id="Groupe_30" data-name="Groupe 30" transform="translate(0 0)">
      <rect id="Rectangle_57" data-name="Rectangle 57" width="3.469" height="7.137" transform="translate(0 2.453) rotate(-45)" fill="#696662"/>
    </g>
  </g>
  <g id="Groupe_33" data-name="Groupe 33" transform="translate(64.168 38.152)">
    <g id="Groupe_32" data-name="Groupe 32">
      <path id="Tracé_23" data-name="Tracé 23" d="M320.81,221.129V208.4a20.688,20.688,0,0,0,5.492.862,10.339,10.339,0,0,0,10.406-10.248,9.834,9.834,0,0,0-.168-1.79,9.565,9.565,0,0,0,1.612-5.3,10.521,10.521,0,0,0-9.513-10.13,10.79,10.79,0,0,0-19.128,0A10.521,10.521,0,0,0,300,191.915a9.568,9.568,0,0,0,1.612,5.3,9.8,9.8,0,0,0-.168,1.79,10.338,10.338,0,0,0,10.406,10.248,20.7,20.7,0,0,0,5.492-.862v12.722C306.45,221.483,300,225.3,300,231.488c0,5.835,8.38,10.406,19.077,10.406s19.077-4.571,19.077-10.406C338.153,225.974,330.664,221.593,320.81,221.129Zm-8.961-15.34a6.867,6.867,0,0,1-6.937-6.779,6.649,6.649,0,0,1,.237-1.721,1.73,1.73,0,0,0-.312-1.521,6.2,6.2,0,0,1-1.37-3.853,7.193,7.193,0,0,1,7.332-6.763,1.735,1.735,0,0,0,1.592-1.216,7.23,7.23,0,0,1,13.37,0,1.734,1.734,0,0,0,1.592,1.216,7.193,7.193,0,0,1,7.332,6.763,6.2,6.2,0,0,1-1.37,3.853,1.73,1.73,0,0,0-.312,1.521,6.663,6.663,0,0,1,.237,1.721,6.867,6.867,0,0,1-6.937,6.779,16.682,16.682,0,0,1-5.492-1.083v-3.569l6.243-4.682-2.08-2.774L320.81,196.8v-5.2h-3.469v5.2l-4.163-3.121-2.08,2.774,6.243,4.682v3.569A16.676,16.676,0,0,1,311.849,205.789Zm7.227,32.636c-9.2,0-15.608-3.657-15.608-6.937,0-5.115,8.063-6.937,15.608-6.937,9.2,0,15.608,3.657,15.608,6.937S328.274,238.425,319.076,238.425Z" transform="translate(-299.999 -175.989)" fill="#696662"/>
    </g>
  </g>
  <g id="Groupe_35" data-name="Groupe 35" transform="translate(12.138 52.028)">
    <g id="Groupe_34" data-name="Groupe 34" transform="translate(0)">
      <path id="Tracé_24" data-name="Tracé 24" d="M65.2,243.181a7.812,7.812,0,0,0-5.2-3.181l0,3.469a5.805,5.805,0,0,1,2.764,2.22,3.009,3.009,0,0,0,4.879,0,5.816,5.816,0,0,1,2.764-2.222V240A7.812,7.812,0,0,0,65.2,243.181Z" transform="translate(-59.992 -240)" fill="#696662"/>
    </g>
  </g>
  <g id="Groupe_37" data-name="Groupe 37" transform="translate(26.012 52.028)">
    <g id="Groupe_36" data-name="Groupe 36">
      <path id="Tracé_25" data-name="Tracé 25" d="M129.2,243.181a7.812,7.812,0,0,0-5.2-3.181l0,3.469a5.805,5.805,0,0,1,2.764,2.22,3.009,3.009,0,0,0,4.879,0,5.815,5.815,0,0,1,2.764-2.222V240A7.812,7.812,0,0,0,129.2,243.181Z" transform="translate(-123.992 -240)" fill="#696662"/>
    </g>
  </g>
  <g id="Groupe_39" data-name="Groupe 39" transform="translate(85.214 91.769)">
    <g id="Groupe_38" data-name="Groupe 38" transform="translate(0 0)">
      <rect id="Rectangle_58" data-name="Rectangle 58" width="6.555" height="3.277" fill="#696662"/>
    </g>
  </g>
  <g id="Groupe_41" data-name="Groupe 41" transform="translate(72.924 90.131)">
    <g id="Groupe_40" data-name="Groupe 40" transform="translate(0 0)">
      <rect id="Rectangle_59" data-name="Rectangle 59" width="6.555" height="3.277" fill="#696662"/>
    </g>
  </g>
  <g id="Groupe_43" data-name="Groupe 43" transform="translate(3.469 21.604)">
    <g id="Groupe_42" data-name="Groupe 42" transform="translate(0)">
      <path id="Tracé_26" data-name="Tracé 26" d="M41.784,102.528l-1.944-2.872A45.077,45.077,0,0,0,20,137.017a46,46,0,0,0,.32,5.408l3.445-.41a42.409,42.409,0,0,1-.3-5A41.613,41.613,0,0,1,41.784,102.528Z" transform="translate(-20 -99.656)" fill="#696662"/>
    </g>
  </g>
  <g id="Groupe_45" data-name="Groupe 45" transform="translate(25.111 94.526)">
    <g id="Groupe_44" data-name="Groupe 44" transform="translate(0)">
      <path id="Tracé_27" data-name="Tracé 27" d="M154.94,440.447a41.754,41.754,0,0,1-33.3-4.409L119.836,439a45.21,45.21,0,0,0,36.072,4.778Z" transform="translate(-119.836 -436.039)" fill="#696662"/>
    </g>
  </g>
  <g id="Groupe_47" data-name="Groupe 47" transform="translate(71.867 20.857)">
    <g id="Groupe_46" data-name="Groupe 46">
      <path id="Tracé_28" data-name="Tracé 28" d="M337.46,96.211l-1.944,2.872a41.587,41.587,0,0,1,11.656,11.9l2.913-1.887A45.051,45.051,0,0,0,337.46,96.211Z" transform="translate(-335.516 -96.211)" fill="#696662"/>
    </g>
  </g>
  <g id="Groupe_49" data-name="Groupe 49" transform="translate(19.075 62.434)">
    <g id="Groupe_48" data-name="Groupe 48">
      <path id="Tracé_29" data-name="Tracé 29" d="M97.2,291.181a7.812,7.812,0,0,0-5.2-3.181l0,3.469a5.805,5.805,0,0,1,2.764,2.22,3.009,3.009,0,0,0,4.879,0h0a5.815,5.815,0,0,1,2.764-2.222V288A7.812,7.812,0,0,0,97.2,291.181Z" transform="translate(-91.992 -288)" fill="#696662"/>
    </g>
  </g>
</svg>
