<svg xmlns="http://www.w3.org/2000/svg" width="117.744" height="82" viewBox="0 0 117.744 82">
  <g id="Groupe_64" data-name="Groupe 64" transform="translate(781.363 -482.452)">
    <path id="Tracé_50" data-name="Tracé 50" d="M-473.745,753.841c.174,1.1,1.322,1.776,2.245,2.184l.061.028c2.02.958,2.752.545,4.124-.469a.447.447,0,0,1,.283,0c.958.843,4.688-.391,6-1.286.447-.3.152.022.757-.582a2.223,2.223,0,0,0,.167-.18c.117-.144,1-1.407,1.087-1.578l.292-.815a1.252,1.252,0,0,0,.11-.705,3.467,3.467,0,0,0-.2-1.068l-.161-.413a2.19,2.19,0,0,0-.793-.822,5.181,5.181,0,0,0-4.294.234,5.114,5.114,0,0,0-1.117.853,8.583,8.583,0,0,1-.813.876.34.34,0,0,1-.37.141,24.171,24.171,0,0,0-2.368-1.947c-.011-.006-.024-.016-.035-.022a2.377,2.377,0,0,0-2.2.048c-.064.035-.119.08-.176.118-2.312,1.62-2.69,2.622-2.6,5.405" transform="translate(-241.841 -208.588)" fill-rule="evenodd"/>
    <path id="Tracé_51" data-name="Tracé 51" d="M-582.91,689.248c-.083.126-.061.189-.118.329l-.034-.022-.084-.057c-.083-.045,0-.033-.081-.035-.235-.005-.439.353-.536.546a2.122,2.122,0,0,0-.087,1.416l.072.087-.008-.231c.232-.141-.06.156.219-.069-.082-.311-.111-.076-.153-.46-.067-.618.13.033.083-.555.209.121.051-.125.225.225l.146-.248c.436.491-.028-.451,1.251.693.481.43.158.2.4.619a.852.852,0,0,0,.737.37c-.012.02-.034.022-.041.056s-.03.041-.038.054l-.1.179c-.091.344.08.714-.095,1.032-.129.234-.214.1-.406.515-.588,1.279-.873-.434-.859.528.475.246-.94,3.166-1.406,3.766-.562.734-.18.509-.329.817a2.844,2.844,0,0,0-.426.422.729.729,0,0,1-.31-.068l-.865-.209c.225-.3.266.256,1.265.083.087-.322.178-.3.036-.615-.74-.17-1.937.385-2.263.379a7.945,7.945,0,0,1-2.145-.194l-.2-.2c-.081.35.188.236-.235.185.553.693,2.122.4,2.475.441l.794.153c.783.2,1.049.378,1.652.221q-.028.15-.06.287a12.057,12.057,0,0,0-.539,2.03,1.479,1.479,0,0,0,.08.437c.108.346-.044-.1.032.1.008.021.029.079.039.1l.1.156a8.572,8.572,0,0,0,.56.794l.808.927c1.081.845.811-.237.811-.25a.209.209,0,0,0-.014-.07l-.254-.33-.043-.044c-.64.224-.3-1.132-.517-1.336l-.11.378c.5,1.6-1.787-.738-1.046-1.951a5.025,5.025,0,0,0,.21-1.312c.005-.09-.074.124-.059.085.2-.534.839.078.892-.127,1.353-5.135,2.859-1.225,3.165-1.288a.485.485,0,0,1,.352.116,3.734,3.734,0,0,0,.57.371c.047.02.018.072.035.1s.083.062.107.1a1.3,1.3,0,0,0,.135.2c.056.066.108.154.172.216.036.036.168.186.168.181-.025-.234-.244,1.6-.086,1.3a13.582,13.582,0,0,0,.561-3.91c.023-.663-.323-1.422-.275-2.21.4-1.061.759-.923.605-2.095-.016-.52.578-.634.682-1.049.439-.373.473-1.2,1.49-1.546.219-.094-2.139-2.913-3.878-2.345a22.343,22.343,0,0,0-3.242,1.836" transform="translate(-151.012 -161.081)" fill-rule="evenodd"/>
    <path id="Tracé_52" data-name="Tracé 52" d="M-679.407,673.705l-.984.123a2.221,2.221,0,0,0-.426.091,3.639,3.639,0,0,0-1.248.4.988.988,0,0,0-.464.282c-.132.157-.229.446-.514.869-.2.4-.121.788-.3,1.106a4.189,4.189,0,0,0-.542.838c-.141.376-.379,2.477.132,2.289.241-.089-.09-.011.216-.084.018-.252-.032-.462.009-.7.048-.282.135-.208.176-.569.226-1.972-.472-1.281.979-.236a2.41,2.41,0,0,0,.291.17l-.05-.219.316-.022c-.081-.141-.118.039-.075-.186.032-.165.129-.17.234-.166.276.012.124.061.361.255l.211.123c.123-.1.053-.059.114-.145.043-.061.146-.3.322-.216.129.065.01.133.463.314-.1.318-.11.743-.188.926a2.825,2.825,0,0,0-.186,1.418c.1,2.424-1.877,2.435-1.877,2.435a.977.977,0,0,1-.618.84c.162-.089.164-.144.258-.32l-.282-.484a4.122,4.122,0,0,0-1.329.444c-.013.013-.04,0-.049.025l-.161.058-.233.047c-.14.031-.432.093-.468.091-.017,0-.135-.03-.152-.03s-.031,0-.041,0l-.041.007-.435.119c-.452,0,.36-.11-.483-.276l.108.277c0,.009.074.156.094.21l.769-.02.062,0,.349-.081c.617.05.5-.278.974-.049.221.107.571.378.812.359.279-.021.547-.353.918-.223l.094.044.047.024c.081.038.162.076.244.112.642.282,1.986,2.875,2.533,2.235.071-.084-.432-.119-.554-.532a2.084,2.084,0,0,0-1.065-1.448c-.62-.489-.24-.5-1.231-.755a.134.134,0,0,1-.038-.012,1.051,1.051,0,0,0,.275-.148c.647-.347.938-.117,1.108-.294.012.016.028.024.032.051,1.66.325.682.18,1.126,1.471.034.1.474,2.239.466,2.374.492-.228.534-.846.7-1.5-.038-1,.1-1.812.085-2.563l.033-.248c.4-.848-.222-.876.509-1.156a4.828,4.828,0,0,1,.192.952c-.3,1.827,1.752-1.683.484-2.3-.013-.006-.078-.015-.12-.031-.881-.333.126-1.671.21-1.837a1.239,1.239,0,0,1,.608-.673c1.4-.673-.446-.255-.6-.869-.064-.271-.141-.85.129-1.115.089-.087.182-.241.307-.237.287.008.522-.338-.291-.342.11-.348.182-.167-.025-.334a1.008,1.008,0,0,0-.371-.109c-.5.066-.023.055-.253.236-.092.072-.017.168-.366-.164l.408-.3c.161-.078-.025-.089.17-.008l.076.055c.06.044-.026.322.222-.109l.029-.056c.295-.64.485-.4.664-.435l.129-.045c.015,0,.155-.023.173-.026l-.159-.084a9.87,9.87,0,0,0-3,.1" transform="translate(-74.6 -150.221)" fill-rule="evenodd"/>
    <path id="Tracé_53" data-name="Tracé 53" d="M-498.49,655.869l-.878.858a9,9,0,0,1-1.85,1.124,8.866,8.866,0,0,1-3.55-.112c-.383-.027-.673-.141-1.082-.2a5.164,5.164,0,0,0-1.028-.109c-.565.011-1.114-.1-1.666-.056l-1.562.29a1.763,1.763,0,0,0,.349.589c.224.345.076.373.231.671.233.1.057-.075.437.078.193.078.673.364,1.01.518.006,0,1.718.979,1.721.984.081.147.746.3,1.025.4a10.911,10.911,0,0,1,1.246.418c.905.366,3.767,1.169,4.533.752a1.983,1.983,0,0,0-.515-1.633,2.4,2.4,0,0,1,.331-.9,4.83,4.83,0,0,1,1.2-1.234l.038-.03a14.878,14.878,0,0,0,3.085-3.763A8.352,8.352,0,0,0-493.9,649.6c.087-4.4-1.966-8.366-2.834-7.968-.141.064,2.024,4.241,1.687,8.3-.189,2.277-1.944,4.59-3.445,5.937" transform="translate(-213.263 -125.128)" fill-rule="evenodd"/>
    <path id="Tracé_54" data-name="Tracé 54" d="M-348.9,737.559c.017.029.01.033.019.038.038.018-.021-.019.066.037.391.255.62-.091,1.081.286l.278.272c.457.363.473.323.6.864-.517-.026-.257.042-.606-.362l-.068-.071c-.4-.443-.177-.319-.776-.533l1.259,1.083c1.057.844.627,1.373.912,1.941.154.307.233.282.317.291l.177.987c.385,1.217-.976,2.1-1.27,3.211l-.047.178-.083.19a3.18,3.18,0,0,1-.22.339c-.914,1.138-.042,2.889-1.017,3.768-.573.538-.849.677-.864.875s.223.448.678,1.193c.047.126.763,1.452,1.35,2.4a8.983,8.983,0,0,1,.648,1.251c.021.056.093-.02.068,0,.181-.112-.323-1.192-.858-2.018a7.6,7.6,0,0,1-.813-1.468,1.707,1.707,0,0,1-.26-1.1c.038-1.217.442-1.151.717-1.78l.8-2.051c.037-.113.038-.167.072-.279a6.729,6.729,0,0,1,.923-2.268c.013.012.03.015.035.04,1.14,6.185,1.06,10.5,7.017,13.931a5.045,5.045,0,0,0,2.444.472c.09-.038.062-.111-.147-.225-3.1-1.688-5.652-3.563-6.556-7.235-.928-3.765.367-10.875-1.758-13.176l-.235-.334c-.066-.1-.171-.192-.249-.292a10.125,10.125,0,0,0-2.225-1.232c-.113-.053-.182-.065-.3-.12a6.773,6.773,0,0,0-1.741-.422c-.133.272-1.03,2.014-1.029,2.181l-.1.222-.072.351c-.075.364,1.766-1.351,1.837-1.438" transform="translate(-338.56 -199.531)" fill-rule="evenodd"/>
    <path id="Tracé_55" data-name="Tracé 55" d="M-653.328,675.782c.029.033.113.109.147.139l.074.064a.551.551,0,0,1,.145.255.655.655,0,0,1,.026.275c-.043.265-.091.151.047.487,1.791,4.361.232,6.968.811,8.518.09.24.266.573-.027.69l-.115.04c-.288.1-.085-.02-.325.2a.445.445,0,0,1-.115.094c-.574.385-.205.174-.513.489.478-.149.527-.453.947-.53a.527.527,0,0,1-.221.322,3.236,3.236,0,0,0-.736.855c-.179.232-.246.4-.532.515-3.1,1.248-3.131,3.638-3.979,1.466-.236-1.025,1.011-2.82.9-2.829a3.243,3.243,0,0,0-1.023,1.891,3.074,3.074,0,0,0,.528,2.214l.1.108c.485.484.852,0,1.628-.833,1.215-1.308.719-1.209.491-.761a1.433,1.433,0,0,1-.49.623c-.312.27-.238.328-.491.444-.132-.242-.035-.282.117-.475.247-.312,1.327-1.443,1.682-1.46-.063.513.063.109-.2.35a2.694,2.694,0,0,0,.235.378c.231.242-.077-.027.38.2.3.146.14.34.643.58-.053-.219-.05-.209-.236-.345l.073-.108.035-.051c.007-.01.022-.033.034-.048l-.113-.172c-.155-.155-.014-.041-.185-.13.1-.3.085.1.1-.3-.35,0-.416.08-.436-.517.365-.112.612-.149.83-.427l.618-.7c.135-.136.1-.213.212-.407.191-.323.125-.046.294-.492.061-.161.032-.057.094-.207a1.406,1.406,0,0,1,.1-.255l.057-.087c.066-.087.042-.047.107-.108l.345.044c.01-.012.02-.022.132-.055.448-.133.634.146,1.358-.915.059-.087.067-.084.109-.106l.592-.357c.316-.29.3-.473.4-.871.084-.218.223-.559.337-.793.014-.029.032-.1.044-.131.043-.126-.027-.284-.008-.434a1.931,1.931,0,0,1,.321-.6c-.063.029.037-.066.12-.223a1.921,1.921,0,0,0,.253-.7c-.054-.151.025-.372-.024-.554a1.3,1.3,0,0,0-.272-.482,4.759,4.759,0,0,1-.466-.724,1.029,1.029,0,0,0-.046-.124l-.048-.055c-.079-.089-.147-.3-.21-.359a1.338,1.338,0,0,1-.265-.38c-.089-.182-.248-.15-.354-.322s-.31-.281-.543-.622c-.079-.116-.366-.257-.471-.381a7.251,7.251,0,0,0-.6-.5,1.274,1.274,0,0,1-.385-.493c-.018-.083-.331-.458-.414-.627-.064-.129-.1-.27-.125-.3a4.456,4.456,0,0,0-.488-.482.789.789,0,0,0-.237-.139c-.065-.025-.16-.01-.16-.063a4.077,4.077,0,0,0-.534-.168c-.261-.1-.007-.029-.232-.1a1.844,1.844,0,0,0-.9-.19c-.994.2-.225,1.09-.583.825l-.04-.217c-.2-.081-.36.065-.521.143l-.093.331c-.108.763,1.583.454,2.284,1.165" transform="translate(-97.104 -150.22)" fill-rule="evenodd"/>
    <path id="Tracé_56" data-name="Tracé 56" d="M-542.187,745.413a3.231,3.231,0,0,0-.555.982c-.13.262-.164.44-.422.609-2.8,1.828-2.363,4.178-3.618,2.212-.431-.96,1.687-5.86,1.576-5.848a18.618,18.618,0,0,0-1.879,4.951,3.074,3.074,0,0,0,.949,2.069l.12.086c.57.38.836-.163,1.435-1.134.409-.663.572-1.955,1.315-2.069a1,1,0,0,0,.677-.593l.469-.808c.106-.16.378-.038.453-.251.042-.173.124-.474.163-.634.313-1.267-.09-1.525-.18-1.507s.16.258.172.179c.026-.179-.181.049-.276.421a3.4,3.4,0,0,1-.4,1.338" transform="translate(-184.189 -205.133)" fill-rule="evenodd"/>
    <path id="Tracé_57" data-name="Tracé 57" d="M-543.93,747.3a7.762,7.762,0,0,0-1.61,1.842,2.293,2.293,0,0,1-.507.622c-.263.168-.514,0-.966-.709l0,0,0,0c-.324-.721.731-3.547,1.276-5.007.091-.245.168-.451.221-.6-.234.454-.724,1.563-1.123,2.613a7.648,7.648,0,0,0-.58,2.074,2.9,2.9,0,0,0,.275,1.113,2.718,2.718,0,0,0,.655.918l.116.084c.376.251.613.054.928-.42.093-.14.192-.3.3-.483l.132-.216a4.771,4.771,0,0,0,.34-.763,3.47,3.47,0,0,1,.541-1.061m1.139-1.517a2.111,2.111,0,0,1,.376-.589,2.093,2.093,0,0,0,.321-.957c.021-.13.041-.253.069-.363a1.359,1.359,0,0,1,.179-.416l-.008-.008a.3.3,0,0,1-.083-.127h0a.065.065,0,0,1,.056-.086.117.117,0,0,1,.05,0,.3.3,0,0,1,.155.117.753.753,0,0,1,.126.311,2.731,2.731,0,0,1-.092,1.139c-.018.073-.047.183-.076.3s-.065.248-.087.338v0c-.051.144-.164.164-.278.183a.258.258,0,0,0-.179.077l-.469.806a1.4,1.4,0,0,1-.318.422.777.777,0,0,1-.4.2h0c-.476.073-.708.68-.931,1.265a4.834,4.834,0,0,1-.349.78l-.132.216c-.111.182-.211.346-.3.486-.353.53-.622.746-1.069.448h0l-.12-.086,0,0a2.822,2.822,0,0,1-.683-.954,3,3,0,0,1-.284-1.153,7.676,7.676,0,0,1,.586-2.112,16.292,16.292,0,0,1,1.339-2.891.049.049,0,0,1,.06.05h0a6.5,6.5,0,0,1-.307.9c-.539,1.445-1.582,4.24-1.279,4.928.409.641.622.8.823.674a2.277,2.277,0,0,0,.477-.593,7.518,7.518,0,0,1,2.245-2.313.854.854,0,0,0,.333-.437c.021-.047.043-.1.071-.151.1-.2.149-.319.184-.4Zm.458-.527a2.052,2.052,0,0,0-.364.567h0c-.035.083-.083.2-.187.407-.025.051-.048.1-.069.148a.935.935,0,0,1-.371.48q-.18.118-.343.238a.709.709,0,0,1,.206-.064h0a.674.674,0,0,0,.344-.173,1.3,1.3,0,0,0,.294-.393v0l.469-.808,0,0a.327.327,0,0,1,.248-.124c.083-.014.167-.029.2-.114s.055-.216.087-.337.056-.215.076-.294a2.632,2.632,0,0,0,.091-1.1.846.846,0,0,0-.045-.156.094.094,0,0,1-.034,0,.124.124,0,0,1-.037-.013,1.252,1.252,0,0,0-.161.38c-.028.109-.047.229-.067.354A2.172,2.172,0,0,1-542.333,745.256Z" transform="translate(-184.002 -204.944)"/>
    <path id="Tracé_58" data-name="Tracé 58" d="M-639.873,750.655l.57.483c.1.077.073.069.171.186.18.215.189.182.406.261.53.193.763.017.827.366.087.474-.478.344-.7.237l-.847-.639c0-.016.017-.056.019-.045s.015-.035.016-.042c.043-.176.041-.181-.537-.584-.228-.159-.133-.043-.406-.165-.43-.193-.452.033-.292-.276a.522.522,0,0,0,.029-.062l-.41-.207c.123.053-.06.067.085-.009l.326-.337a1.082,1.082,0,0,0-.278-.489c-.359-.289-.545-.02-.713-.738-.042-.176.144-.23.234-.5-.157-.134-.183-.173-.18-.424,0-.317.016-.069-.039-.343a1.517,1.517,0,0,1-.057-.407c-.374.1-.176-.119-.345.207.05-.045.153.041-.133-.162a.413.413,0,0,0-.074-.045c0,.7.052.3.053.961-.025.292-.014.226-.025.292a.385.385,0,0,1,0,.266,2.319,2.319,0,0,0,.207,1.272c.141.339.377,1.027.839.91.156.105.12.037.266.124.3.176.076-.032.277.306a.9.9,0,0,0,.2.251c.21.158.177.033.315.259.169.278.378.6.475.807.15.319.006-.209.41.511a1.011,1.011,0,0,0,.244.312c.369.4.379.266.449.469s.071.266.459.557l.879.572a5.389,5.389,0,0,0,1.719.654c.452-.047.079-.073.093-.482.157.421.43.088-.2-.511l.32-.128c.1-.018.224,0,.346-.008-.143.031-.043-.308-.358-.455-.279-.13.07.15-.729-.331a2.93,2.93,0,0,1-.763-.619l-.63-.406c-.258-.118-.27-.022-.406-.26-.192-.334.184-.232.185-.232.4.019.054.186.629.5.313.173,1.472.264,1.318-.206,0,0,.074-.051.118-.075.176.009,1.949.05,2.028.034a2.087,2.087,0,0,0,.9-.465l.055-.062a.275.275,0,0,0,.094-.257c0-.022-.008-.051-.009-.07-.011-.179-.08-.133-.22-.157-.524-.089-.941-1.81-1.441-1.728-.141.023-.118.095-.165.374-.282,1.689-.543-1.494-.835-2.015.015-.01.044-.034.052-.017.766-.154.274-.214.226-.533a.376.376,0,0,1,0-.074c.19-3.891-1.734.79-1.733.788.363,2.3-.49-1.032-1.876.734.058.175-.08.044.205.183l-.124.094c-.069.094-.118-.039.007.086.64.633.459,2.269-.549.751a.714.714,0,0,0-.054-.071c-1.4-1.631-1.926-.254-.917.826" transform="translate(-109.409 -206.981)" fill-rule="evenodd"/>
    <path id="Tracé_59" data-name="Tracé 59" d="M-363.563,731.459a.476.476,0,0,1,.2.2c.226.4.364.391.354.622a.781.781,0,0,1-.272.572,2.048,2.048,0,0,0-.84.965c-.343,1.035-.2.091-.232,1.232-.077.245.112.563.119.834l.078.9a2.263,2.263,0,0,0,.18.718,10.764,10.764,0,0,1,.627,1.643c1.314,7,4.7,1.348,4.822.484.66-3.817,1.672-2.4,1.67-2.385-.285-.568.145-1.1-.912-1.941l-1.259-1.083c.6.214.379.09.776.533l.068.071c.35.4.09.336.606.362-.122-.541-.138-.5-.6-.864l-.278-.272c-.461-.377-.69-.031-1.081-.286-.108-.07-.035-.068-.187-.125-1.042.534-1.019.914-1.286.846-.181-.046-.409-.015.832-2.069a11.15,11.15,0,0,0-1.976-.749c-.782-.128-1.142-.331-1.439-.346-.038.063-.062,0,.025.141" transform="translate(-327.84 -195.66)" fill-rule="evenodd"/>
    <path id="Tracé_60" data-name="Tracé 60" d="M-363.663,731.3s0-.005,0,0h0Zm4.651,2.9.934.8a1.916,1.916,0,0,0-.175-.232l-.068-.071h0c-.086-.1-.144-.166-.186-.218a.687.687,0,0,0-.13-.137,1.12,1.12,0,0,0-.249-.1Zm-4.506-2.71a.417.417,0,0,0-.109-.078l0,0,0,0-.037-.058a.166.166,0,0,1-.025-.045c0-.014,0-.019.013-.027h0a.087.087,0,0,0,.023-.026l0-.008h.009a2.082,2.082,0,0,1,.478.112,6.81,6.81,0,0,0,.963.234,12.429,12.429,0,0,1,1.533.534c.133.055.247.1.326.141h0c.087.041.136.074.131.093v0h0c-1.009,1.669-1.046,1.948-.932,2.017a.251.251,0,0,0,.071.024h0l.019,0h0c.112.029.172-.03.294-.15a3.58,3.58,0,0,1,.981-.694l.006,0,.006,0c.094.035.106.049.124.071a.25.25,0,0,0,.066.056.673.673,0,0,0,.459.1.769.769,0,0,1,.624.19h0l.277.272.131.1c.335.261.36.281.47.77l0,.02h-.02l-.166-.007c-.062,0-.1,0-.136-.008l.12.1a1.714,1.714,0,0,1,.79,1.393,1.461,1.461,0,0,0,.126.553h0a.031.031,0,0,1,0,.009l-.009.044-.02-.04-.012-.025a.781.781,0,0,0-.184-.161.458.458,0,0,0-.22-.073.433.433,0,0,0-.272.088c-.307.217-.663.879-.952,2.552a5.877,5.877,0,0,1-1.535,2.38,2.266,2.266,0,0,1-1,.577,1.126,1.126,0,0,1-1.021-.278,5.618,5.618,0,0,1-1.3-3.163,4.71,4.71,0,0,0-.377-1.05c-.087-.193-.175-.388-.249-.59l0-.008a2.255,2.255,0,0,1-.178-.713h0l-.078-.9h0a1.457,1.457,0,0,0-.068-.344.919.919,0,0,1-.051-.493c.011-.374,0-.523,0-.592a.262.262,0,0,1,0-.059.106.106,0,0,1,.017-.037,2.8,2.8,0,0,0,.217-.546,1.53,1.53,0,0,1,.342-.55,2.941,2.941,0,0,1,.5-.423.554.554,0,0,0,.179-.225.912.912,0,0,0,.086-.335.341.341,0,0,0-.115-.273,2.046,2.046,0,0,1-.237-.341h0A.486.486,0,0,0-363.518,731.492Zm-.091-.1a.449.449,0,0,1,.112.081h0a.523.523,0,0,1,.09.119,2.011,2.011,0,0,0,.234.337.365.365,0,0,1,.122.294.944.944,0,0,1-.088.347.587.587,0,0,1-.19.238,2.9,2.9,0,0,0-.5.418,1.507,1.507,0,0,0-.335.539,2.84,2.84,0,0,1-.22.552.085.085,0,0,0-.013.027.254.254,0,0,0,0,.052c0,.069.012.219,0,.6v0a.891.891,0,0,0,.05.478,1.494,1.494,0,0,1,.069.35h0l.078.9h0a2.234,2.234,0,0,0,.176.706l0,.008c.074.2.162.4.248.588a4.73,4.73,0,0,1,.379,1.057,5.593,5.593,0,0,0,1.291,3.145,1.1,1.1,0,0,0,.994.271,2.235,2.235,0,0,0,.981-.57,5.835,5.835,0,0,0,1.526-2.361h0c.291-1.682.652-2.352.965-2.572a.463.463,0,0,1,.291-.093.489.489,0,0,1,.236.078.682.682,0,0,1,.137.115,1.743,1.743,0,0,1-.086-.467,1.687,1.687,0,0,0-.779-1.372h0l-1.259-1.083-.063-.055.079.028.2.071a1.1,1.1,0,0,1,.256.106.692.692,0,0,1,.137.143c.043.052.1.121.185.217l.068.071h0a1.934,1.934,0,0,1,.19.254h0a.214.214,0,0,0,.059.074.445.445,0,0,0,.18.022l.146.006a.893.893,0,0,0-.454-.732l-.131-.1h0l-.277-.271a.744.744,0,0,0-.6-.183.7.7,0,0,1-.478-.1.278.278,0,0,1-.072-.062c-.015-.017-.024-.029-.1-.06a3.551,3.551,0,0,0-.967.685c-.131.129-.195.191-.324.158l-.019,0h0a.268.268,0,0,1-.08-.028c-.128-.078-.1-.367.92-2.057,0,0-.046-.024-.114-.056h0c-.08-.038-.193-.087-.324-.14a12.434,12.434,0,0,0-1.526-.532,6.809,6.809,0,0,1-.967-.235,2.152,2.152,0,0,0-.461-.11.111.111,0,0,1-.025.027h0s.008.014.02.032Z" transform="translate(-327.783 -195.601)"/>
    <path id="Tracé_61" data-name="Tracé 61" d="M-539.052,820.424h0c.04,0-.032,0-.053,0l.01.007a.343.343,0,0,1,.043-.006m-1.067-6.357c.036.1.2.442.4.85A14.74,14.74,0,0,1-538.8,817a.945.945,0,0,1,.171.693,2.9,2.9,0,0,0,.016.35,3.066,3.066,0,0,0,.089.416c.026.1.052.2.07.294a.208.208,0,0,0,.058.012.411.411,0,0,1,.255.1l.12.083-.04.14-.086.3a.3.3,0,0,0-.006.054.618.618,0,0,1-.1.307l-.059.118-.132-.006a.728.728,0,0,1-.235-.056.513.513,0,0,0-.065-.022h0c-.024,0,.041.031.022.138a.139.139,0,0,1-.054,0c.114.034.187.124.136.394l0,.022-.008.02-.11.259-.008.02-.014.019c-.117.164-.149.166-.24.174h0s.006,0-.042.035l-.162.134,0,0-.029.022,0,0-.025.019-.007.005-.008.005a1.334,1.334,0,0,1-.753.284c-.076.01-.169.021-.286.039a2.013,2.013,0,0,0-1.493.73,2.024,2.024,0,0,1-.757.6.681.681,0,0,1-.469.3.673.673,0,0,0-.34.184,1.092,1.092,0,0,1,.15.013.679.679,0,0,1,.506.3,1.647,1.647,0,0,0,.491.179.52.52,0,0,0,.309,0v0a1.876,1.876,0,0,1,.709-.2,2.335,2.335,0,0,1,.695,0l.013,0h0a1.677,1.677,0,0,1,1.15.083c.04.016.017.041.042.035a2.3,2.3,0,0,1,.334-.06c.38-.046.471-.057,3.1-2.878l.082-.088.117.03a.364.364,0,0,0,.207,0,.3.3,0,0,0,.124-.079.258.258,0,0,0,.064-.11.164.164,0,0,0,0-.093c-.111-.332-.226-.82-.319-1.216-.052-.22-.1-.41-.129-.524l-.02-.068.028-.066s0-1.125,0-2.118c0-.686-.01-1.3-.024-1.432l.4-.043c.015.141.023.772.026,1.473,0,.841-.006,1.8-.018,2.143.034.119.08.315.133.542.092.39.2.872.308,1.179a.567.567,0,0,1,.01.323.664.664,0,0,1-.161.289.713.713,0,0,1-.292.186.745.745,0,0,1-.313.034c-2.662,2.85-2.785,2.865-3.28,2.925a2.044,2.044,0,0,0-.281.049.436.436,0,0,1-.3-.052,1.311,1.311,0,0,0-.9-.062h0l-.029.007h0l-.032.008-.061.016-.059-.022a1.68,1.68,0,0,0-.574,0,2.305,2.305,0,0,0-.483.084l-.021.027-.025.017a.846.846,0,0,1-.615.06,1.967,1.967,0,0,1-.693-.278l-.046-.034-.021-.052,0-.006a.285.285,0,0,0-.218-.112.647.647,0,0,0-.307.02h0l-.005,0-.337.164.047-.373a.855.855,0,0,1,.735-.8c.116-.036.22-.068.238-.126l.028-.091.09-.037a1.669,1.669,0,0,0,.684-.522,2.354,2.354,0,0,1,1.739-.865c.126-.019.22-.031.3-.041a1.032,1.032,0,0,0,.579-.22l.014-.011.028-.022h0l.164-.135.008-.006a.653.653,0,0,1,.184-.1l.073-.171c-.071-.056-.108-.169-.068-.408.075-.441.234-.509.447-.473h0a.636.636,0,0,1,.112.032.669.669,0,0,1,.015-.116l0-.013.037-.131a1.09,1.09,0,0,1-.217-.077l-.107-.048-.013-.116a2.45,2.45,0,0,0-.077-.357,3.4,3.4,0,0,1-.1-.47,3.4,3.4,0,0,1-.018-.4c0-.2,0-.371-.08-.433l-.073-.058,0-.095a13.136,13.136,0,0,0-.888-2.007c-.205-.417-.375-.763-.422-.9Z" transform="translate(-186.647 -260.717)"/>
    <path id="Tracé_62" data-name="Tracé 62" d="M-425.7,791.006c-.972.71.668.131,1.012.169.725-.739.377-.19,1.291-.429.034-.009.228,0,.34-.018,3.019-.616.555.231,2.166-.095l.4-.143c.361-.13.259-.014.487-.123a3.8,3.8,0,0,0,.894-.242c.629-.333.057.511.131.821.139-.034,1.178-.159,1.216-.158.467.014-.068-.6.658-.428-.03.2-.018.223-.192.323-.6.345-.03.147.3,0-.034.3,0,.129-.124.345-.243.431-.246.081-.462.381-.123.171-.043.351-.281.266s.259.151-.1-.047c-.016-.009-.074-.062-.093-.074-.557.408-.267.051-.655.365-.331.268-.091.134-.474.187l-.244.049a.547.547,0,0,0-.062.017l.041.16c0,.206-.32.152-.513.256.006-.021.9-1.133.362-.726-.4.306-.144-.049-.408.277-.094.116-.068.154-.182.306l-.064.075c-.42.513-.371.613-1.213.611-.254,0-1,.622-.267.965a1.632,1.632,0,0,0,1.648-.444c.229-.2.459-.367.707-.555.2-.206.032-.061.278-.133.284-.083.072-.109.424-.208l.729-.495c.813-.407.082.039.78-.534.385-.317.843-1.061,1.064-1.221l.533-.356c.761-.563.605-.821.5-1.143a2.683,2.683,0,0,0-2.455-1.127,3.292,3.292,0,0,0-2.427,1.225c-.623-.24-.931.358-1.974.335-.319.77-1.57.345-2.08.432-.015.009-.035.014-.05.022-.348.192-.161.185-.352.266a10.059,10.059,0,0,0-1.294.844" transform="translate(-279.382 -240.128)" fill-rule="evenodd"/>
    <path id="Tracé_63" data-name="Tracé 63" d="M-537.785,772.576c1.607,1.5-.1,2.457-.506,2.306a1.613,1.613,0,0,1-.261-.115l-.127-.153c-.028-.129-.188.1-.4-.081-.576-.517-.113-.1-.822-.5-1.343-.762.331-.258-1.26-.97-.941-.421-2.82.366-2.27.677l.984.886a1.809,1.809,0,0,1,.54.486c.124.294.9.809.9.809.373.279,1.27-.829,1.95-.449.4.225.064.078.339.363.244.253.2.034.447.234.184.148.076.192.341.364l.482.219c.132.062.039-.013.177.14.174.192-.063-.049.1.117l.037.036c.666.651.156.081.86.591a2.015,2.015,0,0,0,1.644.1c.439-.024-.477-.913-.46-1.453l-.36-.856c-.053-.173-.4-2.993-.359-3.3-1.007-.551.3-2.159.994-2.985.192-.228.033-.272.223-.827.345-1.055.083-.719.758-1.3-.231-.209-.046-.124-.151-.236-.622-.671-1.785,2.287-1.786,2.289-.807,1.4-1.26,1.279-2.01,3.611" transform="translate(-186.984 -223.379)" fill-rule="evenodd"/>
    <path id="Tracé_64" data-name="Tracé 64" d="M-540.593,701.215c-.032.54.06.077.367.68,0,0,.083.174.081.107,0-.011,0-.008.04.091.088.233.516.218.615.493a3.179,3.179,0,0,1,.029,1.423,1.249,1.249,0,0,0-.064.674c.01.5-.086.124-.127.539l.209.138-.1.374c.012.719.135-.267,0,.805l-.122.5c-.027.08-.027.1-.045.163-.143.47-.189.176-.289.6a6.5,6.5,0,0,0-.34,1.355l-.325,1.3a1.021,1.021,0,0,0-.167.493l.263-.331c.082-.083.058-.049.164-.121a3.111,3.111,0,0,0,.841-1.234c.087-.2.265-.425.412-.7.251-.476.131-.369-.015-.778-.17-.478.235-.851.2-1.5a1.189,1.189,0,0,1,.062-.476c.223-.783.8-.593.9.241a10.212,10.212,0,0,1-.016,3.161c-.172.216-.093.054-.252.233s-.1.191-.194.3c-.184.208-.053.029-.31.168-.207.112-.205.206-.434.336-.037.021-.132.067-.18.1-.143.1-.188.178-.29.254l-1.757,1.348a3.023,3.023,0,0,0-.3.777,1.018,1.018,0,0,0,.181.791c.247-.211-.034-.46.053-.954a1.789,1.789,0,0,1,.344-.606c.122-.2-.113.166.067-.135.082-.137-.009-.059.123-.154.218-.157.384-.142.589-.322a1.759,1.759,0,0,1,.717-.443,5.58,5.58,0,0,0,.712-.4c.272-.176.156-.078.408-.158.348-.11.342-.373.57-.588,1.051-1.652,1.133-.422,1.482-1.685,1.439-5.029-.14-2.828-.667-6.931a5.457,5.457,0,0,0-1.264-2.692c-.207-.283-.946.525-1.422,1.459-.327.443-.8.518-.852,1.034-.008.078.1.173.105.274" transform="translate(-188.378 -169.771)" fill-rule="evenodd"/>
    <path id="Tracé_65" data-name="Tracé 65" d="M-479.958,796.339c-.119.267.016.045-.158.158-.045.029,0-.063-.2.088a14.6,14.6,0,0,1-.471,2.7c-.084.494,0,.686-.065,1.085.392-.107.51-.015.811-.132l.439-.131c.27-.079.959-.3,1.005-.313l.248-.037c1.424-.468,2.5-.787,3.769-1.218.293-.1.36-.013.627-.107a14.952,14.952,0,0,1,2.931-.993c2.358-.538,5.35-.755,6.023-1.077.117-.056.092-.24.058-.3-2.083.352-4.193.6-6.239.99a27.584,27.584,0,0,0-4.126,1.066l-.331.071c-.118.024-.51.446-.576.409-.026.062-2.079.652-2.155.2-.055-.152-.1-.112-.253.005-.268.208-.5-.1-.856-.043-.205.031.42.3.475.241.067.25.08.076,0,.311-.642.265-1.059-.863-1.106-.1a1.064,1.064,0,0,1-.248-.824,2.785,2.785,0,0,0-.03-.351l.462-.312a.058.058,0,0,1,.022-.038c.183.126-.024-.018.115.088l.162.124c.422-.175.242-.144.692-.1.3.031.024.033.354.008s.394-.143.779-.062c.718.185,5.641-.542.947-.679-1.023-.03-1.829-.521-1.807-2.155.014-1.063.939-2.21-1.3,1.426" transform="translate(-236.265 -244.831)" fill-rule="evenodd"/>
    <path id="Tracé_66" data-name="Tracé 66" d="M-577.457,747.184a1.97,1.97,0,0,1,.441.732l.474,1.246a3.369,3.369,0,0,0,.156.847c0,.217.048.5-.083.659-.417-.128.42-.169-.247-.261-1.135-.157-.576-.955-1.172.154a.884.884,0,0,0-.032.1c-.444-.208-.871-.3-.606.352l.118.345c-1.13.068.04-.011-1.17.206-.122-.354-.21-.122-.4.089-.333.467-.233.437-.432.012-.2.082-.06.036-.26.03s-.08.007-.393.088l-.151.052c-.135.061-.11.123-.264.055-.067-.03-.209-.067-.21-.069s-.022.037-.036.054c-.489-.068-2.7-.5-1.061-.818.117-.022.315-.029.429-.055.167-.038.2-.13.353-.2.452-.216.935-.242.406-.6-.9-.527-.193-.192-.886-.637-.066-.042-.068-.138.086-.338a2.263,2.263,0,0,1-.461-.61c-.464-.674-.006.1-.064-.45a.209.209,0,0,0-.061-.02,1.815,1.815,0,0,0-.316-.03c-.275-.042.012-.063-.224-.081-.4-.03-.157.226-.481.1-.078.117-.106-.161-.051.18.226.211.105-.012.247.153.055.063.026.106.106.27.272.149.157.328.184.641a4.96,4.96,0,0,1,.128,1.5,6.453,6.453,0,0,0-.129,1.034c.039,1.229-.361,1.1-.019,1.674.106.179,1.111-.19,1.239-.231a7,7,0,0,0,.891-.285,2.933,2.933,0,0,1,1.981-.311c.38-.52.6-.58,1.426-.717.02,0,1.515-.473,1.74-.2s-.275,1.174.044,1.676c.176-.132.076.142.145-.294a20.851,20.851,0,0,0-.16-2.67,8.674,8.674,0,0,0-.371-1.909,2.67,2.67,0,0,1-.211-.58,5.351,5.351,0,0,1-.385-.89c-.322-.8.017-2.22-.305-3.019l-1.734-1.4c.019.1-.146.036.261.395.282.249,1.132.844,1.3,1.236.324.738-.519,2.625.291,2.621a.423.423,0,0,0-.08.172" transform="translate(-155.104 -204.656)" fill-rule="evenodd"/>
    <path id="Tracé_67" data-name="Tracé 67" d="M-387.222,752.843c-.316.241-.076,1.242.333,1.219.513.176.11.288.343.62.18.256.206.026.22.021.159-.064.006-.063.267.031l.1-.218c.065-.109.142-.323.2-.441.105-.2.015-.053.141-.214.045-.057.1-.112.146-.183a2.706,2.706,0,0,1,.334.081c.556.166.242.951.709.185s1.085-1.609.386-2.369a4.541,4.541,0,0,1-.85-.948c-.24-.141-.167.508-.667.313-.885-.346-.249-.268-1.4-.482-1.2-.4-1.227.757-.746,1.306.441.5.562.481.479,1.081" transform="translate(-309.267 -210.64)" fill-rule="evenodd"/>
    <path id="Tracé_68" data-name="Tracé 68" d="M-451.553,733.1c1.163.049,1.872.931,3.655.778l2.141-.3c.15-.059.278-.138.4-.19.665-.284,1.682-.373,2.145-.84l.138-.118a4.65,4.65,0,0,0,.627-.754,15.4,15.4,0,0,0-2.2.184c-.59.063-.853.2-1.469.281-.385.052-.865.068-1.236.119l-2.4.372a14.348,14.348,0,0,0-2.247.45Z" transform="translate(-258.947 -195.938)" fill-rule="evenodd"/>
    <path id="Tracé_69" data-name="Tracé 69" d="M-702.084,701.5l.172.148c.146.153,0,.042.171.184.025.02.182.119.209.134l.669.4c.539.133.025-.085.6-.085-.149-.494-.149.013-.111-.316.1.062,1.393-.179-.129-.532.318-.84-.195.013-.535-.4.183-.118.459-.138.658-.251.607-.344.434-.467.085-.741-.433-.2-.1-.218-.593-.078-.592.167-.424.349-.174-.41a1.471,1.471,0,0,0,.04-.175c0-.008.012-.026.015-.033.141-.326.062.028-.032-.4,2.616-1.751-4.283.349-.956-1.482l-1.455.592c-.481.307-.868.568-.513,1.226.1.19.013.024.114.16.082.11.038.046.114.159a1.335,1.335,0,0,0,.213.274l.511.526c.323.352.558,1.036.932,1.1" transform="translate(-60.74 -169.047)" fill-rule="evenodd"/>
    <path id="Tracé_70" data-name="Tracé 70" d="M-601.39,715.985a2.688,2.688,0,0,0,.389.783c.121.158.043.05.135.14l.07.062a2.748,2.748,0,0,1,.382.942c.1.454-.062,1.166,1.32,1.39.423.051.153.165.235-.185a3.823,3.823,0,0,1-1.035-1.247l-.038-1.151c.017-.094-.012-.066.089-.115,1.445-.686,1.592-3.016.26-2.909a11.106,11.106,0,0,0-1.1.159c-.113.023-.247-.007-.3.086-.706,1.3-1.126.191-.409,2.045" transform="translate(-141.202 -181.801)" fill-rule="evenodd"/>
    <path id="Tracé_71" data-name="Tracé 71" d="M-564.293,701.949l.129.455c-.128.149-.428.363-.311.581.221.411.463-.163.52-.264.385,0,.315.082.6.241.3.169.385.048.661.166-.1.216-.071.163-.36.351l-.041.025c-.27.244,0,.162.387.411-.376.454-.092.242-.092.636.156.054.341.067.415.1.071-.443.023.136.325-.521.192-.417.277-.281.406-.515.175-.318,0-.688.095-1.032l.1-.179c.008-.013.032-.022.038-.054s.029-.036.041-.056a.853.853,0,0,1-.737-.37c-.247-.421.077-.188-.4-.619-1.279-1.144-.815-.2-1.251-.693l-.146.248c-.174-.35-.016-.1-.225-.225.047.588-.15-.063-.083.555.042.384.071.149.153.46-.28.225.012-.072-.219.069Z" transform="translate(-170.497 -171.517)" fill-rule="evenodd"/>
    <path id="Tracé_72" data-name="Tracé 72" d="M-564.293,701.949l.129.455c-.128.149-.428.363-.311.581.221.411.463-.163.52-.264.385,0,.315.082.6.241.3.169.385.048.661.166-.1.216-.071.163-.36.351l-.041.025c-.27.244,0,.162.387.411-.376.454-.092.242-.092.636.156.054.341.067.415.1.071-.443.023.136.325-.521.192-.417.277-.281.406-.515.175-.318,0-.688.095-1.032l.1-.179c.008-.013.032-.022.038-.054s.029-.036.041-.056a.853.853,0,0,1-.737-.37c-.247-.421.077-.188-.4-.619-1.279-1.144-.815-.2-1.251-.693l-.146.248c-.174-.35-.016-.1-.225-.225.047.588-.15-.063-.083.555.042.384.071.149.153.46-.28.225.012-.072-.219.069Z" transform="translate(-170.497 -171.517)" fill="none" stroke="#000" stroke-miterlimit="22.926" stroke-width="0.216"/>
    <path id="Tracé_73" data-name="Tracé 73" d="M-649.621,723.34l-.086.492c-.057.286.06.166,0,.471-.058.275-.025.087-.085.26-.394,1.151.748.025,1.287.51l.134.155c.466-.142.768-.034.865-.433.18-.746.48-.646.665-1.463l.065-.815c0-.016-.022-.065-.029-.082l-.068-.143c-.085.082-.143.142-.238.243-.376.4-.277.7-.821,1.317-1.884,2.141.112-3.15-.427-3.107-.589.047-1.227,2.115-1.257,2.6" transform="translate(-103.374 -187.346)" fill-rule="evenodd"/>
    <path id="Tracé_74" data-name="Tracé 74" d="M-688.944,673.318h0m-13.935,5.535.138-.137.085-.1.02-.023.028-.014.148-.072.01,0,.157-.064.179-.073h0l4.44-1.688.263-.136.235-.146.238-.187.179-.189.161-.255.133-.294,0-.007.16-.311.007-.011.151-.241.006-.009.007-.009.147-.173.315-.63.013-.026.019-.018.207-.192.016-.014.019-.01.361-.186,0,0,.388-.188.014-.007.012,0,.5-.137.009,0,.356-.077h0l.665-.121h.006l1.075-.151h.007l.965-.094h.007l.485-.024h.007l.581,0h.01l.337.021h.011l.009,0,.307.059.022,0,.02.011.058.03.191.034h.008l.011,0,.109.034h0l.05.016.011,0,.011.005.076.038.067.03h0l.042.016.057.019.079.022h0l.069.018h0l.067.017h0l.12.033.009,0,.067.023.011,0,.008,0,.055.028.154.06.008,0,.008,0,.185.1.011.006.011.008.105.082.009.007.007.008.172.179,0,0,.085.1.121.115.042.035.02.016.014.025.077.134.007.012,0,.006.052.128.06.112.124.2h0l.078.115,0,0,.081.127h0l.1.156h0l.09.124.108.123.22.187h0l.12.1.16.134.2.165.311.261.007.007.174.165,0,0,.188.191.005.006.159.179.006.007.13.166.123.156.181.141.012.009.01.011.164.187.008.009.006.009.124.192h0l.119.188h0l.1.161.118.189.005.008.006.013.07.165.087.186.08.121.132.123.029.027.012.039a.616.616,0,0,0,.146.193.818.818,0,0,1,.217.314l.006.018v.02l.033.771-.3.012-.032-.747a.728.728,0,0,0-.141-.178.916.916,0,0,1-.2-.272l-.117-.11-.012-.012-.01-.015-.1-.145-.006-.009-.005-.011-.093-.2,0-.005-.065-.155-.113-.181-.1-.162h0l-.117-.186h0l-.118-.184-.146-.166-.184-.143-.015-.012-.012-.015-.135-.172L-685,676.9l-.151-.171-.184-.187-.168-.159-.309-.26-.2-.164-.16-.135-.12-.1h0l-.231-.2-.01-.008-.006-.007-.116-.132,0,0-.007-.01-.1-.134,0-.007-.105-.163h0l-.079-.124h0l-.081-.121,0-.006-.124-.205,0-.007-.068-.127,0-.009,0-.006-.052-.128-.056-.1-.024-.02-.007-.007-.13-.123-.009-.01-.086-.1-.164-.171-.085-.066-.166-.088-.152-.06-.006,0-.007,0-.054-.027-.051-.018-.111-.031h0l-.067-.017h0l-.069-.018h0l-.086-.024-.008,0-.064-.022-.007,0-.052-.02-.006,0-.068-.03-.007,0-.072-.036-.039-.013-.1-.03-.206-.037-.022,0-.022-.012-.059-.031-.276-.053-.325-.02-.566,0h0l-.482.023-.954.093h0l-1.075.151h0l-.654.119h0l-.348.075-.492.134-.372.18-.34.175-.173.16-.31.621-.008.016-.012.015-.152.179-.141.225-.154.3h0l-.137.3,0,.008-.006.01-.176.278-.008.013-.01.01-.2.208-.009.009-.008.006-.25.2,0,0-.01.006-.252.156-.01.006-.274.141-.008,0-.009,0-4.445,1.69h0l-.179.073-.151.062-.116.056-.064.074-.008.008-.145.145Z" transform="translate(-61.704 -149.672)"/>
    <path id="Tracé_75" data-name="Tracé 75" d="M-507.963,813.848s-.564.184-.6.2l-.057.027-.052.035s.084-.014-.038,0l-.156.034h-.016a.237.237,0,0,0-.035.011.7.7,0,0,0-.212.178c-.105.122,0,.078-.076.191-.03-.026.016-.006-.069-.024l-.282-.008c-.114-.013-.27.074-.418.055-.107-.014-.078-.057-.188-.032-.075.017-.113.083-.168.111l-1.141.114a.915.915,0,0,0-.248-.009,3.08,3.08,0,0,1-.385.013c-.195.014-.264.005-.474.006.009-.121.1-.122.179-.18l.032-.025.036-.047c.045-.064,0-.025.057-.076.151-.13.185-.01.254-.041.131-.062.049-.091.084-.14l.065-.035c.079-.033.022,0,.084-.034.079.118.024.1.042.258.189.012.1-.035.2.068.072.077.035.073.206.079.534.019.448-.092.815-.251.142-.062.126.014.21-.089.1-.119.655-.014,1.175-.21a7.16,7.16,0,0,0,1.523-.868c.536-.844.059-2.616.028-2.746-.042-.178.016-.34-.031-.516a18.026,18.026,0,0,1,.145-3.4,13.851,13.851,0,0,1,0,2.095c-.134,1.694.607,2.469.544,4.125-.031.817-1.035,1.137-1.033,1.14m-2.736-3.681c.124-.233-.075-.661-.089-.727-.072-.335-.1-.154-.134-.417l-.027-.46v-.01l-.059-.24c-.037-.146-.025.042-.014-.1-.023-1.45-1.318-3.685-1.869-5.125a2.5,2.5,0,0,1-.036-1.285c-.009-.3-.082-.1,0,0a16.486,16.486,0,0,1,2.254,5.242,16.171,16.171,0,0,1-.081,1.859c.061.475.347.271.33.575.057-.143,0-.065.11-.1.049.1.067.073.091.153l.111.628a.411.411,0,0,1-.135-.241s0-.072,0-.091c-.019.043-.007.029-.025.075-.033.085-.07.134-.051.219,0,0,0,.012.005.017l-.374.028c.034.1.46.252.454.368-.166-.053-.155-.234-.122-.374-.618.16-.244,1.077-.64,1.655-.08.117-.085.028-.1.105,0,0,0,.01,0,.012l-.005.068c-.029.067.026.006-.038.049s0,.016-.076.023c0-.007,0-.025,0-.021a.076.076,0,0,1,0-.02c.01-.131-.032.093,0-.037.029-.108,0,.033.045-.075a.106.106,0,0,0-.087,0c-.009,0-.155.01-.182.077-.05.121.053-.143.007.11l-.17.008c.022-.115.039-.084.038-.1-.075.026-.037.066-.073.159-.077.194-.506.09-.739.216a3.985,3.985,0,0,0-.609.313c-.236.187-.089.256-.389.425s-.363.5-.567.441a2,2,0,0,0,.212-.222c.055-.071.132-.1.181-.151a1.739,1.739,0,0,0,.215-.247.543.543,0,0,1,.056-.073,1.091,1.091,0,0,0,.1-.12.18.18,0,0,0,.041-.07c0-.007.129-.113.1-.1.229-.08.062-.111.137-.2.035-.04.114-.012.217-.108.148.043.031.106.2.058-.018-.106.779-.284,1.233-.771A2.087,2.087,0,0,0-510.7,810.167Zm-3.385,3.434c.132.025.041.018.1.039a.87.87,0,0,0,.388.058c.092.112.013.083.172.125.021.148,0,.3-.091.354,0,.164-.034.162.109.19l-.049.045c-.066.063-.1,0-.037.219l-.377-.01c-.072-.1-.012-.19-.323-.108l-.123.045-.022.01c-.071.033-.047-.057-.181-.05-.062,0-.172.123-.17-.125a.6.6,0,0,1,.138-.407c.036.052,0,.119-.007.165a1.585,1.585,0,0,0,0,.259c.008,0,.018-.019.022-.013l.309-.388c.027-.051.012-.048.034-.1.044-.109.07-.066.114-.195-.206.035-.043.079-.264.154-.17.058-.234.188-.228.02a.215.215,0,0,1,.192-.18C-514.18,813.691-514.231,813.668-514.085,813.6Z" transform="translate(-209.663 -250.953)" fill-rule="evenodd"/>
    <path id="Tracé_76" data-name="Tracé 76" d="M-512,814.023h0m2.648.251v0h0v0Zm.59-.486c.033-.013.552-.182.6-.2l.013,0h0c.108-.04.96-.36.988-1.09a6.229,6.229,0,0,0-.279-1.964,5.956,5.956,0,0,1-.265-2.163c.015-.193.044-.927.044-1.47v-.124c-.042.425-.087,1.032-.111,1.587a6.377,6.377,0,0,0,.026,1.3.9.9,0,0,1,.019.28.879.879,0,0,0,.013.238h0l.007.029h0c.067.27.48,1.934-.042,2.757h0a7.51,7.51,0,0,1-.807.531,5.378,5.378,0,0,1-.74.357,2.735,2.735,0,0,1-.823.141c-.173.01-.3.017-.331.054-.062.076-.085.077-.131.079a.229.229,0,0,0-.1.024,1.521,1.521,0,0,0-.238.13.808.808,0,0,1-.6.126h-.014a.473.473,0,0,1-.14-.014.138.138,0,0,1-.061-.05l-.027-.031c-.02-.021-.033-.037-.042-.048h0c0-.006.007,0,0-.006s0,0,0,0h0a.819.819,0,0,1-.121,0l-.043,0,0-.042a.521.521,0,0,1,0-.132.094.094,0,0,0-.011-.065l-.013,0-.03.012-.046.025v0c.007.045.014.09-.1.146h0a.121.121,0,0,1-.107-.006c-.028-.011-.06-.025-.134.039-.02.017-.016,0-.018.007h0a.15.15,0,0,1-.031.06l-.024.032a.206.206,0,0,1-.018.022v0l0,0-.032.025v0a.579.579,0,0,1-.073.042h0a.184.184,0,0,0-.065.046h.1c.1,0,.171,0,.3-.007a1.575,1.575,0,0,1,.187,0,.762.762,0,0,0,.193-.011.613.613,0,0,1,.2,0l.056.006,1.127-.113a.355.355,0,0,0,.042-.034.284.284,0,0,1,.131-.077.164.164,0,0,1,.14.011.177.177,0,0,0,.066.021.616.616,0,0,0,.218-.028.579.579,0,0,1,.2-.027l.278.008h.009l.037.007a.021.021,0,0,0,0-.011c-.007-.032-.013-.062.059-.146a1.083,1.083,0,0,1,.118-.118.5.5,0,0,1,.112-.073l.022-.007h0l.023-.006h0l.017,0h0l.153-.033h.042l.03-.021,0,0,0,0,.019-.009h0l.039-.018Zm.632-.1s-.544.177-.594.2l-.037.017h0l-.015.007,0,0a.124.124,0,0,1-.065.038l-.223.035h0l-.011,0a.388.388,0,0,0-.088.058.94.94,0,0,0-.106.106c-.039.046-.038.052-.037.058.006.027.012.057-.036.128l-.032.047-.043-.038-.006-.005-.036-.006-.277-.008h0a.52.52,0,0,0-.162.025.68.68,0,0,1-.256.03.262.262,0,0,1-.1-.031c-.015-.007-.025-.013-.071,0a.206.206,0,0,0-.085.054.326.326,0,0,1-.071.052l-.008,0h-.01l-1.141.114h-.007c-.021,0-.044,0-.068-.007h0a.527.527,0,0,0-.168,0,.84.84,0,0,1-.215.012,1.444,1.444,0,0,0-.175,0c-.133.009-.209.008-.311.007h-.222l0-.055a.2.2,0,0,1,.14-.183h0a.482.482,0,0,0,.06-.034h0l.026-.021.008-.01.022-.029c.014-.02.015-.022.015-.023h0c0-.021.005-.023.051-.063.121-.1.185-.078.239-.056.012,0,.023.009.028.007h0c.049-.023.048-.031.047-.039a.1.1,0,0,1,.018-.085l.007-.009.01-.005.065-.035h0a.2.2,0,0,1,.063-.021h0c.006,0-.006,0,.016-.012l.041-.022.026.039a.2.2,0,0,1,.05.17.406.406,0,0,0,0,.067.564.564,0,0,0,.063,0h0a.1.1,0,0,1,.045,0,.093.093,0,0,1,.046.037h0c.008.009.019.023.039.043l.031.035c.01.012.016.019.02.02a.486.486,0,0,0,.107.008h.014a.729.729,0,0,0,.541-.11,1.619,1.619,0,0,1,.252-.137.327.327,0,0,1,.135-.033c.015,0,.023,0,.055-.041.058-.071.205-.079.4-.091a2.647,2.647,0,0,0,.792-.135,5.281,5.281,0,0,0,.726-.35,8.123,8.123,0,0,0,.772-.5h0c.5-.786.095-2.414.029-2.677h0l-.007-.029h0a.954.954,0,0,1-.015-.265.81.81,0,0,0-.016-.249,6.413,6.413,0,0,1-.029-1.333c.036-.851.124-1.823.173-2.088l.01-.055.053.015c.015,0,.027.024.037.058a2.811,2.811,0,0,1,.041.611c0,.547-.029,1.285-.045,1.478a5.872,5.872,0,0,0,.262,2.129,6.313,6.313,0,0,1,.282,1.993c-.028.731-.791,1.078-1.009,1.164l0,0Zm-5.128-1.306h0m0,0,.023-.008.008.024A.122.122,0,0,0-513.262,812.382Zm-.138.288c.008-.017.016-.034.027-.053-.014.016-.026.03-.04.044l-.033.036h0l-.03.036h0c-.008.011-.015.021-.021.03a.663.663,0,0,1-.052.073A.344.344,0,0,0-513.4,812.67Zm.574-.434.11-.049c-.091.021-.1,0-.125-.035a.059.059,0,0,0-.034-.026.351.351,0,0,1-.155.072.111.111,0,0,0-.035.012.03.03,0,0,0,0,.032c.017.059.032.11-.137.172a.532.532,0,0,1-.054.054c-.015.013-.032-.02-.03,0v.009l0,.009a.2.2,0,0,1-.015.038.74.74,0,0,1,.083-.075A1.747,1.747,0,0,1-512.825,812.236Zm1.473-.455v0a.084.084,0,0,1-.02.02h0v0l0,0,.013-.008Zm.1-.059-.016,0,.02,0Zm0,0h0v0Zm0,0h0Zm.009-.143a1.638,1.638,0,0,0,.213-.794c-.028.062-.058.124-.092.185a2.1,2.1,0,0,1-.3.421,2.967,2.967,0,0,1-.968.612c-.15.067-.252.113-.251.116l0,.028.024-.013h0a1.011,1.011,0,0,1,.386-.083c.155-.013.3-.025.331-.107h0a.265.265,0,0,0,.016-.071c.006-.056.011-.09.087-.117l.064-.022,0,.068c0,.03-.005.039-.019.048h.013l.02-.048,0-.006h0l.012-.028a.113.113,0,0,1,.02-.032c.043-.078.109-.179.111-.06a.577.577,0,0,1,.084-.015h0l.017,0,.016-.222.039.22a.181.181,0,0,1,.047.013l.017.007c.013-.042.03-.044.06-.048C-511.275,811.623-511.268,811.623-511.237,811.578Zm.563-1.519.021.012.028.017c0-.02,0-.039,0-.059A.4.4,0,0,0-510.674,810.059Zm.186-.372h0m-.418-.406a1.186,1.186,0,0,1,.095.621l.238-.018a.313.313,0,0,1,.039-.158c.007-.016.015-.033.021-.049h0a.15.15,0,0,0,.009-.03.218.218,0,0,1,.016-.047l.052-.117-.026-.146a.1.1,0,0,0-.026-.047h0a.31.31,0,0,1-.042-.058l-.014,0c0,.014-.012.033-.023.061l-.116.29.018-.312a.148.148,0,0,0-.091-.166.443.443,0,0,1-.238-.4,3.451,3.451,0,0,1,.041-.66,4.663,4.663,0,0,0,.04-1.2,11.938,11.938,0,0,0-.808-2.52,17.955,17.955,0,0,0-1.359-2.593l-.011.066a1.917,1.917,0,0,0,.058,1.062c.162.422.386.91.624,1.427a11.114,11.114,0,0,1,1.249,3.715v0h0a.3.3,0,0,1,0,.031.279.279,0,0,1,.017.049h0l.059.24v.02l.027.457c.014.116.026.133.042.156a.6.6,0,0,1,.091.256c0,.008.01.03.02.059Zm-3.53,4.262.006-.012a.81.81,0,0,1-.13.018.15.15,0,0,0-.093.04h0a.159.159,0,0,0-.051.09c0,.023-.045.03-.027.031h0s.014-.01.035-.023a.7.7,0,0,1,.153-.077C-514.453,813.578-514.443,813.559-514.435,813.542Zm-.237.248a.238.238,0,0,1-.011.13c0,.011-.006.022-.008.03a.552.552,0,0,0-.005.124l.241-.3a.108.108,0,0,0,.013-.035.274.274,0,0,1,.017-.058l.005-.013a.53.53,0,0,1-.092.04.609.609,0,0,0-.131.067Zm-.138.5.014,0,0-.088c0-.034,0-.066,0-.1s0-.063,0-.1a.808.808,0,0,0-.023.177C-514.822,814.27-514.817,814.291-514.81,814.291Zm.04-.013a.366.366,0,0,1,.037-.014l0-.008-.053.03Zm.582-.8-.012,0-.015.044a.292.292,0,0,1-.072.127.193.193,0,0,0-.043.071.2.2,0,0,0-.012.039.2.2,0,0,1-.025.068l0,0,0,0-.309.388-.032.041h.009a.182.182,0,0,1,.154.052h0s0,0,.007,0h0l.022-.01h0l.123-.045h0c.283-.074.308-.018.348.074h0a.346.346,0,0,0,.016.033l.282.007c-.034-.138-.018-.148.037-.181l.007,0c-.06-.021-.058-.049-.054-.143,0-.018,0-.041,0-.074v-.031l.027-.015a.139.139,0,0,0,.06-.093.527.527,0,0,0,.008-.175h0a.262.262,0,0,1-.088-.031h0a.1.1,0,0,1-.031-.038h0a.366.366,0,0,0-.029-.045h-.026a.825.825,0,0,1-.354-.061Zm-.057-.07c0-.014,0,0-.01.019l0,.01-.032.015.01,0,.033-.006a.051.051,0,0,1-.006-.036Zm-.018-.068.045.01.034-.032.019-.018a1.705,1.705,0,0,0,.188-.2h0a.448.448,0,0,1,.115-.1.351.351,0,0,0,.068-.054h0c.026-.029.051-.054.074-.078a.891.891,0,0,0,.135-.161.449.449,0,0,1,.027-.039h0c.01-.013.021-.027.034-.041h0l.035-.038h0a.628.628,0,0,0,.064-.077l.017-.023a.078.078,0,0,0,.017-.032h0a.225.225,0,0,1,.06-.068c.016-.015.055.026.045,0h0c0-.011.007-.012.021-.008l.024-.008-.018-.049.006,0c.09-.032.088-.041.085-.052a.115.115,0,0,1,.026-.128.149.149,0,0,1,.087-.043.264.264,0,0,0,.133-.068l.021-.02.028.008a.169.169,0,0,1,.118.08s0,0,.027-.014a.776.776,0,0,1,.3-.177,2.884,2.884,0,0,0,.935-.588,1.992,1.992,0,0,0,.285-.4,2.625,2.625,0,0,0,.246-.634,1.184,1.184,0,0,0,.045-.277l-.01-.014-.031-.017.013-.025-.015-.042.037,0a1,1,0,0,0-.081-.595h0a.745.745,0,0,1-.024-.073.519.519,0,0,0-.075-.218.362.362,0,0,1-.059-.2v0l-.027-.458v-.006l-.058-.237s0,0,.007-.007a.06.06,0,0,1-.033-.056.063.063,0,0,1,.018-.045h-.007a11.061,11.061,0,0,0-1.239-3.674c-.239-.52-.465-1.011-.627-1.433a2.007,2.007,0,0,1-.063-1.116,1.463,1.463,0,0,0,.024-.171.255.255,0,0,1-.038-.154h0a.092.092,0,0,1,.024-.057c.035-.032.069-.029.093.026a.481.481,0,0,1,.022.15,16.721,16.721,0,0,1,1.439,2.709,12.026,12.026,0,0,1,.815,2.543,4.731,4.731,0,0,1-.039,1.226,3.419,3.419,0,0,0-.042.636c.029.232.117.283.188.325a.257.257,0,0,1,.122.114h.014a.112.112,0,0,0,.047-.01l.043-.015.02.042a.27.27,0,0,0,.046.072h0a.19.19,0,0,1,.048.089v.006l.111.628.017.1-.089-.043a.256.256,0,0,1-.1-.108.646.646,0,0,1-.037-.079.155.155,0,0,0-.008.092h0v0h0l0,.013.013.058-.059,0h0a.476.476,0,0,0-.01.172c.08.055.141.113.138.175l0,.066-.063-.02a.234.234,0,0,1-.162-.159l-.1-.057-.049-.029a1.166,1.166,0,0,0-.166.634,1.774,1.774,0,0,1-.233.872c-.041.06-.071.079-.093.086h0v.007l0,.042c.031.006.03.029.015.053,0,.017-.01.035-.048.047a.08.08,0,0,1-.022.009l-.007,0a.109.109,0,0,0-.019.014h0a.041.041,0,0,1-.021.014h0a.042.042,0,0,1-.02,0l-.012.127-.056-.125h0l-.015-.033a.1.1,0,0,1-.006-.021.088.088,0,0,1-.013-.07h0a.11.11,0,0,1,.013-.034.43.43,0,0,0-.1.021c0,.034-.011.075-.019.122l-.007.04-.041,0-.033,0-.463.893.363-.889h-.018c0,.009-.006.018-.01.028h0c-.056.14-.229.155-.417.171a.931.931,0,0,0-.345.071h0c-.071.039-.149.072-.227.106a1.684,1.684,0,0,0-.375.2.442.442,0,0,0-.147.183.476.476,0,0,1-.249.247.982.982,0,0,0-.276.257c-.079.1-.145.179-.236.194a.738.738,0,0,0,.235.027h.075l.015.018a.5.5,0,0,1,.054.078h0s0,0,0,.006h0l.054.015h0l.036.01.033.009,0,.033a.654.654,0,0,1-.007.248.252.252,0,0,1-.084.141c0,.019,0,.036,0,.051,0,.045,0,.047.07.062l.1.02-.074.067-.049.045h0a.25.25,0,0,1-.048.036c-.008,0-.009.005.026.133l.018.066-.068,0-.377-.01h-.025l-.015-.02a.362.362,0,0,1-.04-.073h0c-.019-.042-.03-.068-.226-.018l-.12.044-.019.009h0a.087.087,0,0,1-.119-.02h0a.094.094,0,0,0-.081-.025.144.144,0,0,0-.032.011.206.206,0,0,1-.079.021c-.064,0-.114-.043-.113-.208a.912.912,0,0,1,.045-.268.434.434,0,0,1,.082-.151.257.257,0,0,1-.009-.091.276.276,0,0,1,.084-.161h0a.249.249,0,0,1,.155-.068c.118-.009.136-.02.171-.043a.731.731,0,0,1,.1-.057l.015-.007Z" transform="translate(-209.476 -250.745)"/>
    <path id="Tracé_77" data-name="Tracé 77" d="M-582.755,691.528l-2.472-3.875-.435-.522-.543-.445-.008-.007-.956-.9-1.264-.759-.637-.117-.639-.019-.278.053-.286.116-.012,0-.014,0-.287.061h0l-.3.062-.3.129h0l-.223.106-.352.2-.009,0-.353.172-.032.016h-.038l-.381-.009-.516.079-.492.148-.651.358-.363.326-.136.338h0l-.118.307-.007.018-.009.013-.219.321,0,.006-.008.009-.181.2-.345.587,0,.008-.188.28-.006.009-.008.009-.174.193-.01.011-.008.007-.277.22-.01.008-.01.006-.433.243-.006,0-.007,0-.5.22h0l-1.007.419-.006,0-.5.183-.494.182h0l-.483.181-.089.107-.033.04-.05.012-.244.057h0l-1.144.231v0l-.006.011-.091.154-.013.022-.018.016-.1.09-.006,0-.009.006-.1.066-.2.185-.031.047-.061.117-.029.053a.349.349,0,0,1-.185.248c-.1.1-.147.086-.15-.028-.049-.058-.052-.177.053-.345l0-.011a.3.3,0,0,1,.035-.058l.064-.122,0-.007.005-.008.047-.07.01-.015.012-.011.22-.206.01-.009.009-.006.1-.066.08-.069.072-.121.019-.052.029-.081.084-.017,1.223-.248h0l.194-.045.081-.1.026-.032.038-.014.523-.2h0l.494-.182.493-.182,1-.416h0l.491-.217.417-.234.258-.206.156-.173.181-.268.35-.6.007-.013.01-.012.183-.205.206-.3.112-.291v0l.149-.371.013-.033.026-.024.4-.361.013-.012.016-.008.681-.375.015-.008.015,0,.518-.155.011,0,.01,0,.537-.083.01,0h.016l.359.009.317-.154.353-.2.01-.005.227-.109.005,0,.318-.137.015-.007.014,0,.31-.065h0l.273-.058.288-.117.013-.005.016,0,.31-.059.015,0h.017l.669.02h.012l.011,0,.675.124.027.005.023.014,1.3.782.014.009.012.011.965.908.548.449.011.009.01.011.451.541.006.007.005.008,2.478,3.884Z" transform="translate(-140.742 -158.914)"/>
    <path id="Tracé_78" data-name="Tracé 78" d="M-607.651,708.287l-.136-.047h0l-.24-.077-.271-.059-.242.03-.041.005-.039-.018-.232-.1-.025-.011-.019-.018-.28-.269-.014-.013-.01-.017-.145-.237-.016-.027,0-.03-.013-.084-.042-.1-.072-.089-.068-.045-.123-.051-.008,0-.008,0-.192-.106-.012-.007-.009-.007-.1-.081-.015-.012-.012-.015-.09-.119-.065-.032.134-.274.1.048.034.016.021.028.1.132.078.062.172.1.13.053.015.006.012.008.1.067.02.013.015.018.1.123.012.015.009.02.06.138.009.02,0,.018.011.072.118.193.247.237.167.075.226-.028.025,0,.025.006.3.066h0l.01,0,.25.08h0l.139.048Z" transform="translate(-134.571 -176.042)"/>
    <path id="Tracé_79" data-name="Tracé 79" d="M-641.346,751.137h0m-2.61-6.379-.122.326-.006.374.262.5.022.042v.048l.008.337.039.32v.021l.005.284v.011l-.024.557v0l-.022.353.078.439.137.394.176.406.225.292.775.333.066.028.034.065.121.232.126.147.164.092.038.021.026.036.157.213.007.01.315.489.44.664.015.023.008.026.09.273.3.624.008.017.006.022.155.622.148.288h0l.131.242.01.018.006.022.077.266,0,.015,0,.014.026.19,0,.01.016.187v0l.014.181.029.143.057.151.079.165.012.025,0,.025.042.224,0,.016.026.243v.006l.021.261h0l.025.241.073.213.108.208h0l.119.215.006.011.077.162,0,.009,0,.013.061.181.005.015,0,.018.029.185,0,.016v.154l0,.011-.018.131,0,.014,0,.011-.038.143,0,.007-.006.014-.082.214,0,.007-.072.17,0,0-.074.166,0,0-.1.219,0,0-.1.2,0,.009-.1.169-.006.012-.009.012-.048.063-.008.058-.008.058-.038.045-.189.224-.037.043-.053.018-.213.072-.017.006-.02,0-.263.037h-.008l-.29.029-.1.017-.155.032-.145.05-.02.014-.007.015-.01.019-.013.017-.11.136-.006.007-.081.093h0l-.128.145-.1.113-.11.125-.017.019-.016.012-.137.1-.006,0-.016.009-.115.063h0l-.1.059-.091.082-.031.041-.059.116-.01.019-.014.018-.144.178,0,0-.143.168-.029.034-.041.019-.058.027-.018.085.761.021h.052l.045.026.053.031.568-.042.542-.107.052-.01.05.016.029.01h.058l.082-.008h0l.15-.012h.009l.09,0h.009l.151,0h.081l.124-.009.115-.017.162-.037h0l.19-.051.026-.007h.03l.888.019.178,0,.005.046h.092l.09-.005.073-.01h.007l-.073-.26-.06-.212.217-.043.191-.038.26-.159.026-.016.031-.008.055-.014.029-.019.018-.025.025-.06.013-.063.007-.094v-.078l-.012-.113-.017-.082-.033-.1-.012-.034v-.039l.048-1.487v-.036l.013-.033.353-.881h0l.358-.959-.171-.895,0-.013v-.01l-.041-.581-.085-.34-.085-.341.338.1.652.186.473.044.055.005.044.032.535.379.054.038.021.062.211.625.08.215.078.155.082.073.127.035.024.007.02.011.131.072.022.012.019.018.149.14.008.007.008.009.1.121.129.115h0l.133.109.028.023.018.03.412.695,0,.007,0,.009.283.6.011.023.005.027.141.757.118.381.008.025v.03l.013.451h0l.023.284.046.258.014.078-.044.068-.124.191-.029.045-.048.025-.194.1-.049.034-.052.051-.05.072-.067.122-.071.131,0,.005-.07.119-.011.02-.012.013-.237.266,0,0-.216.234-.01.011-.27.251-.089.338-.007.026-.015.025-.076.129-.053.1-.021.059,1.324-.157.034,0,.033.007.161.035,1.073.039h.013l.133.013h0l.227.017.105-.031.214-.1h0l.11-.059h0l.14-.078.089-.075.018-.038.018-.2v-.009l.028-.2,0-.032.014-.029.08-.165.012-.025.021-.023.111-.123.044-.064.063-.143.024-.054.05-.033.139-.093.014-.009.005,0,.121-.063.061-.032.07.013.081.015,0-.485-.077-.34h0l-.117-.409-.1-.352-.1-.333v0l-.1-.372-.182-.384-.006-.012,0-.012-.112-.341-.019-.058.017-.06.036-.128,0-.171v-.055l.026-.045.067-.117-.006-.042-.016-.054-.246-.208-.056-.016-.118-.033-.217-.061-.049-.014-.037-.036-.136-.131-.028-.027-.016-.034-.242-.519,0-.006-.006-.019-.105-.331-.016-.052.011-.051.309-1.468.022-.382v-.017l0-.014.083-.389.024-.279h0v-.344l.039-.52v-.01l0-.009.088-.5.011-.389-.013-.338-.094-.477v-.02l-.034-.354v-.024l0-.176-.151-.231-.012-.019-.009-.027-.053-.154-.23-.171-.065-.049-.014-.08-.022-.131-.141-.349-.013-.032,0-.036-.02-.424v-.033l.021-.173,0-.032.015-.031.087-.185.368.174-.072.154-.015.127.017.369.136.339.008.021,0,.02.012.071.214.16.049.037.021.061.065.188.173.264.034.052v.064l-.006.228.031.327.1.484,0,.012v.02l.014.363v.013l-.012.414v.018l0,.011-.088.5-.039.51h0v.347l-.025.29v.012l0,.014-.083.389-.021.38v.016l0,.015-.3,1.431.083.261.223.479.071.068.168.047.118.033.1.028.043.012.034.029.326.275.046.039.017.059.037.127,0,.014,0,.017.017.128.009.069-.034.059-.075.131v.174l-.007.024-.026.093.089.271.185.39.008.017,0,.017.1.387h0l.1.333.1.352.117.409,0,.011.084.371,0,.02v.023l.007.692v.033l-.009.029-.053.168-.009.029-.018.026-.1.148-.026.037-.038.022-.087.051-.38.224.071-.41-.021.048-.008.019-.011.016-.059.085,0,.006-.012.014-.1.114-.054.111-.024.172-.021.228,0,.037-.015.032-.052.11-.019.04-.034.028-.137.116-.014.012-.018.01-.159.088,0,0-.121.065-.008,0-.227.108-.013.006-.016,0-.157.047-.036.011-.037,0-.265-.02h0l-.133-.014-1.086-.039h-.021l-.015,0-.143-.031-1.49.177-.166.02-.052-.16-.03-.091-.007-.021,0-.021-.01-.1,0-.024,0-.021.007-.06,0-.022.008-.022.041-.116,0-.013.009-.016.063-.116,0-.005.063-.107.1-.369.015-.057.043-.04.312-.291.2-.22h0l.226-.253.057-.1.07-.128.075-.137.008-.015,0,0,.064-.092.01-.015.016-.015.08-.077.012-.011.014-.01.075-.052.012-.008.011-.006.157-.081.05-.077-.034-.189v-.019l-.024-.295v-.01l-.012-.432-.114-.365,0-.009,0-.015-.138-.745-.268-.568-.39-.657-.11-.091-.006,0-.138-.123-.009-.008-.01-.012-.108-.125-.122-.115-.089-.049-.149-.042-.047-.013-.035-.032-.144-.13-.028-.025-.018-.036-.1-.206-.007-.015,0-.006-.082-.221,0,0-.192-.567-.436-.31-.44-.041-.023,0-.015,0-.328-.093,0,.016,0,.018v.017l.042.587.179.937.01.055-.02.054-.38,1.017v0l-.34.849-.046,1.411.024.07,0,.008,0,.017.023.112,0,.012v.006l.013.124v.019l0,.108v.019l-.009.107v.009l0,.016-.02.1,0,.017-.008.019-.043.106-.011.027-.013.018-.052.069-.02.026-.029.02-.087.06-.03.021-.036.009-.06.015-.264.162-.031.019-.035.007-.009,0,.064.227.045.158-.146.077-.03.016-.015.007-.074.031-.009,0-.014,0-.082.024-.015,0-.032.007-.013,0-.088.012h-.016l-.1.006h-.3l-.18,0-.006-.05-.679-.015-.164.044h-.008l-.183.042-.015,0-.121.018-.016,0-.135.01h-.113l-.144,0-.079,0h0l-.15.012h0l-.083.008h-.015l-.1,0h-.036l-.032-.01-.01,0-.5.1-.011,0h-.014l-.644.048-.062,0-.055-.032-.063-.037-.954-.027-.245-.007.051-.239.091-.424.022-.1.092-.043.11-.051.114-.134.127-.156.057-.113.008-.015.01-.014.055-.074.013-.018.014-.012.118-.106.014-.012.017-.01.114-.069.009,0,.108-.059.115-.083.093-.105.1-.113.128-.145h0l.082-.093h0l.091-.113.021-.042.024-.047.043-.03.087-.059.024-.016.025-.009.179-.062.009,0,.016,0,.174-.036h.009l.115-.019h.013l.291-.029.243-.034.142-.048.115-.136.008-.053.008-.053.032-.042.07-.092.089-.158h0l.093-.185.1-.215h0l.073-.163h0l.072-.169h0l.074-.193.033-.126.014-.106v-.092l-.023-.151-.051-.152-.07-.146-.117-.211,0,0-.116-.223-.005-.01-.006-.017-.087-.253-.008-.024,0-.022-.028-.268v0l-.021-.261h0l-.025-.23-.036-.19-.071-.148,0-.009,0-.008-.065-.174-.005-.015,0-.016-.035-.176,0-.017v-.008l-.015-.187h0l-.015-.187h0l-.023-.165-.066-.228-.121-.225,0,0-.161-.314-.011-.022-.006-.022-.155-.621-.294-.617,0-.01,0-.015-.086-.262-.426-.644v0l-.312-.484-.126-.172-.156-.087-.03-.017-.025-.029-.166-.195-.015-.018-.01-.019-.1-.187-.757-.325-.048-.021-.033-.042-.273-.354-.015-.019-.01-.024-.189-.438-.006-.014-.146-.421-.007-.02,0-.01-.084-.471,0-.022,0-.026.023-.379h0l.023-.55,0-.258-.039-.32v-.02l-.007-.306-.264-.506-.024-.046V745.5l.007-.461v-.035l.012-.033.134-.359Z" transform="translate(-107.608 -206.114)"/>
    <path id="Tracé_80" data-name="Tracé 80" d="M-568.129,755.364l.059.789.07.232h0l.054.177.052.173.031.1.036.069.048.059.082.088h0l.1.1,0,0,.1.111,0,0,.066.075,0,0,.063.077,0,.006.076.1,0,.006.064.1,0,.007.056.093,0,.007.076.144L-567,758l.069.083.073.071.065.051.144.086.09.04.08.028.2.018.208-.069.151-.1.135-.132.114-.144.146-.241.118-.267.064-.2.022-.089,0-.008.026-.085.005-.018.007-.013.041-.072.01-.017.014-.015.091-.094.219.213-.077.079-.024.043-.018.06h0l-.023.093,0,.01-.07.216,0,.01,0,0-.123.277,0,.006-.007.012-.158.261-.005.008-.006.007-.127.161-.007.009-.006.006-.15.147-.009.009-.011.007-.179.123-.017.012-.021.007-.259.086-.03.01-.031,0-.256-.023-.021,0-.017-.006-.1-.036-.011,0-.109-.049-.011-.005-.005,0-.154-.093-.005,0-.01-.008-.082-.064-.007-.006,0,0-.086-.082-.008-.008,0-.005-.076-.092,0,0-.008-.012-.085-.135-.006-.01-.075-.142-.051-.085-.059-.088-.074-.1-.056-.068h0l-.066-.075h0l-.1-.107-.1-.1,0,0-.084-.09-.007-.008-.063-.078-.01-.013-.007-.014-.049-.093-.006-.011,0-.015-.035-.117-.052-.173-.054-.178h0l-.075-.247,0-.016v-.017l-.06-.807Z" transform="translate(-167.405 -214.564)"/>
    <path id="Tracé_81" data-name="Tracé 81" d="M-547.419,736.7l.931.5.02.011.013.018.654.868-.163.123-.64-.85-.912-.494Z" transform="translate(-183.851 -199.893)"/>
    <path id="Tracé_82" data-name="Tracé 82" d="M-547.711,792.3a.593.593,0,0,0,0,.416,1.551,1.551,0,0,0,.3.56l4.093,3.683-.2.227-4.1-3.687,0,0-.005-.006A1.88,1.88,0,0,1-548,792.8a.883.883,0,0,1,.018-.638Z" transform="translate(-183.429 -243.493)"/>
    <path id="Tracé_83" data-name="Tracé 83" d="M-462.373,731.428l2.453.4.228-.059h0l.589-.123h0l.684-.126.7-.129h0l.678-.121.8-.143.685-.122h0l.211-.028h0l.248-.025h0l.345-.032h0l.429-.051.274-.051.311-.077h0l.336-.091h0l.281-.063.008,0,.417-.06h0l.457-.065.4-.056h0l.391-.044h0l.328-.023h0l.284-.006h0l.161,0,.894-.078h.006l.945-.027h0l1.026-.027h2.106l1.048-.081h0l.945-.027h.005l.972.027h0l.864.054h.007l1.136.149h.009l.009,0,.668.214-.062.194-.659-.212-1.122-.147-.862-.054h0l-.966-.027-.937.027h0l-1.053.081h-2.114l-1.023.027-.939.027h0l-.9.078h-.011l-.168,0-.277.006h0l-.326.023-.388.044-.4.056-.457.065h0l-.416.06-.27.06h0l-.336.091h0l-.314.078h-.006l-.285.053h-.006l-.429.051h0l-.347.032h0l-.248.025-.2.027h0l-.685.122-.8.143-.678.121h0l-.7.129-.681.126h0l-.589.124h0l-.244.063-.021.005-.021,0-2.474-.4Z" transform="translate(-250.765 -194.692)"/>
    <path id="Tracé_84" data-name="Tracé 84" d="M-386.333,795.929l-.351-.239-.012-.008,0,0-.421-.367h0l-.427-.36-.2-.171-.226-.191-.01-.008-.01-.012-.192-.234-.008-.01,0,0-.2-.308,0-.006,0-.01-.137-.284,0-.011-.057-.146,0,0-.184-.514-.1-.179-.145-.122-.02-.017-.013-.022-.16-.272h0l-.18-.3-.168-.188-.245-.244-.013-.013-.01-.017-.194-.323-.016-.027,0-.03-.042-.3,0-.012v-.015l.006-.185-.04-.122-.068-.082-.013-.016-.009-.022-.32-.755-.388-.7h0l-.392-.616-.389-.391-.529-.3-.358-.125-.329-.093-.011,0-.292-.107-.268-.07-.3.033-.521.146-.156.222-.026.036-.041.017-.291.121-.2.193,0,0-.006,0-.416.338-.193-.237.41-.333.215-.209.021-.021.027-.011.277-.115.161-.23.031-.044.053-.015.586-.164.013,0h.011l.337-.038.027,0,.028.007.306.08.01,0h0l.291.107.323.092.009,0,.378.132.012,0,.011.006.559.313.019.011.015.015.417.418.013.013.008.013.4.629,0,.008.4.711,0,.006,0,.009.314.741.073.088.018.022.009.028.057.175.008.025v.027l-.007.2.037.255.168.279.232.231.006.007.185.206.011.013.006.01.186.307v0l.148.251.146.123.021.018.013.022.125.215.008.013,0,.012.188.526h0l.053.137.129.268.189.3.175.213.217.183.2.171.429.362h0l.418.364.339.231Z" transform="translate(-303.246 -239.496)"/>
    <path id="Tracé_85" data-name="Tracé 85" d="M-408.684,804.075a1.31,1.31,0,0,1,.659-.2.946.946,0,0,1,.672.127.849.849,0,0,1,.162.363,1.216,1.216,0,0,1,.019.439,1.622,1.622,0,0,1-.443.7,1.452,1.452,0,0,0-.372.55l-.3-.057a1.624,1.624,0,0,1,.443-.7,1.453,1.453,0,0,0,.371-.55.892.892,0,0,0-.018-.317.551.551,0,0,0-.1-.229.93.93,0,0,0-.416-.021,1.046,1.046,0,0,0-.489.128Z" transform="translate(-293.001 -252.701)"/>
    <path id="Tracé_86" data-name="Tracé 86" d="M-359.315,817.118a2.085,2.085,0,0,1,.032,1.8h0l-.023.08,0,.013,0,.009-1.509,3.7-.1.475-.015.371v.014l0,.011-.082.5,0,.024-.011.025-.149.336-.038.087-.09.027-.312.092-.391.182-.024.011-.028,0-.228.038-.391.066.174-.356.151-.309-.067.014-.114.1-.117.2-.1.372,0,.011-.077.239-.049.152-.158-.01-.778-.052h0l-.165-.007h-.031l-.025-.008-.191-.063-.064-.021-.039-.055-.138-.2-.008-.011-.007-.013-.015-.029-.058.047-.072.109-.007.009-.133.177-.031.042-.047.021-.083.038-.053.024-.057-.008-.2-.026-.016,0-.156-.033-.418-.012-.254-.007-.185-.005-.171,0-.025-.17-.023-.156-.023-.042-.008-.007-.047-.009-.047.029-.214.192-.017.015-.019.011-.131.073-.208.116-.082-.225-.024-.067-.007-.02,0-.024-.013-.1,0-.031,0-.028.018-.105,0-.024.011-.025.033-.074.008-.019.013-.017.068-.094.011-.015.012-.012.08-.078.006-.006.014-.01.1-.077.011-.008.006,0,.126-.078.013-.007.038-.02.07-.154.013-.029.02-.022.093-.106h0l.131-.149.1-.165.009-.013.012-.014.143-.16.165-.184,0,0,.16-.172.01-.01.014-.011.157-.123.015-.012.015-.008.181-.1.019-.01.019-.006.207-.059.019-.006.02,0,.21-.018h.014l.021,0,.309.029h.012l.01,0,.045.009v-.021l.054-.055.1-.1.011-.011.013-.01.108-.08.01-.008.012-.007.112-.062.008,0,.008,0,.122-.054.064-.031.057-.04.039-.039.063-.088.053-.1h0l.055-.1v0l.073-.13h0l.059-.116.072-.229.061-.427v-.011l0-.012.086-.323.107-.754,0-.013.063-.3-.037-.154-.028-.017-.058-.035-.026-.062-.1-.237,0-.01,0-.01-.151-.5-.125-.344h0l-.146-.409-.325-.386-.492-.388h0l-.48-.386,0,0-.53-.447-.011-.01-.013-.016-.4-.484-.017-.02-.009-.019-.291-.583-.006-.011,0-.011-.188-.526.384-.137.184.515.277.554.373.448.519.437.475.383h0l.506.4.016.013.013.016.363.432.025.03.012.032.158.441h0l.129.352,0,.011.148.492.069.165.045.027.074.044.02.083.067.28.01.043-.009.045-.071.338-.108.76,0,.011,0,.012-.086.323-.062.434,0,.019,0,.014-.082.26,0,.016-.008.015-.067.131,0,.006-.077.137h0l-.055.1v0l-.059.109-.007.012-.006.009-.079.11-.01.014-.012.012-.064.064-.013.013-.015.011-.086.059-.013.009-.012.006-.077.038-.007,0-.121.054-.092.051-.085.063-.032.032,0,.081-.086.056-.146.1-.07.045-.083-.017-.126-.026-.275-.025-.176.015-.169.049-.146.077-.127.1-.151.162h0l-.163.181-.131.146-.1.164-.008.013-.011.012-.142.162h0l-.074.084-.086.189-.029.063-.063.033.128.024.062.012.045.045.072.072.02.02.014.025.056.1.019.033.005.037,0,.023h.013l.254.008.439.013h.021l.016,0,.169.036.117.016.087-.116.089-.135.017-.025.025-.02.146-.119.023-.019.028-.012.154-.063.173-.071.086.166.1.2.091.13.1.034.139.006h0l.62.041.027-.083.1-.393.007-.028.013-.023.148-.255.018-.031.027-.023.18-.151.038-.032.05-.011.223-.048.053-.011.051.016.235.074.226.071-.1.213-.057.117.153-.071.012-.006.015,0,.237-.07.1-.224.076-.461.015-.378v-.021l0-.015.11-.507,0-.017.007-.016,1.512-3.7.019-.068h0a1.79,1.79,0,0,0,.017-1.469Z" transform="translate(-325.505 -260.942)"/>
    <path id="Tracé_87" data-name="Tracé 87" d="M-531.32,849.307l-.414.142-.173.2-.007.008-.007.006-.254.232-.176.16-.007.005-.225.182-.159.272-.1.319h0l-.1.329-.293-.085.1-.329v0l.109-.34.006-.017.008-.013.18-.31.014-.024.022-.018.241-.195.176-.16.247-.226.194-.229.027-.032.04-.014.454-.156Z" transform="translate(-195.081 -288.195)"/>
    <path id="Tracé_88" data-name="Tracé 88" d="M-388.059,815.924l-.147.821v0l-.2.969,0,.008-.132.534,0,.016,0,.012-.281.688-.005.013-.011.017-.319.517,0,0-.38.588-.013.021-.014.014-.448.444,0,0-.873.818-.048.045-.066.008-.614.078h0l-.614.077-.423.08-.368.212-.462.446-.013.011-.573.466-.016.013-.017.009-.312.165.014,0,.5-.111.2-.044.044.2.056.257.013.058.014,0,.5-.024h.02l.57.03,1.035-.029h.022l.02,0,.558.1.311.011.127-.222h0l.193-.333.024-.042.042-.027.353-.225.014-.009.426-.224.117-.062.1.082.143.113,0,0,.187-.307.132-.36.006-.014.223-.5.006-.014.351-.648.01-.019.014-.017.481-.562.621-.783.006-.007.009-.009.924-.943.29.285-.916.934-.615.776,0,.006-.472.55-.339.625-.215.482-.136.372-.006.018-.011.018-.294.483-.1.157-.165-.078-.188-.09-.02-.009-.019-.015-.059-.047-.306.161-.3.191-.168.29h0l-.188.328-.061.106-.123,0-.449-.016h-.015l-.014,0-.552-.1-1.023.028h-.016l-.566-.03-.521.025h-.027l-.027-.006-.524-.118-.718-.162.032-.011-.157.023.075-.295.092-.365.022-.088.081-.043.421-.222.549-.447.474-.458.017-.016.023-.013.422-.243.031-.018.033-.006.468-.089.013,0,.614-.077h0l.547-.07.825-.773.43-.426.364-.564h0l.309-.5.271-.663.128-.518h0l.2-.961h0l.146-.816Z" transform="translate(-303.752 -262.12)"/>
    <path id="Tracé_89" data-name="Tracé 89" d="M-558.7,702.456c.589-.145,1.132,0,1.213.333s-.33.714-.919.859-1.132,0-1.213-.332.33-.714.919-.859" transform="translate(-174.328 -172.924)" fill="#fff" fill-rule="evenodd"/>
    <path id="Tracé_90" data-name="Tracé 90" d="M-668.229,686.042c.589-.145,1.132,0,1.214.333s-.33.714-.919.859-1.132,0-1.213-.332.33-.714.919-.859" transform="translate(-88.216 -160.019)" fill="#fff" fill-rule="evenodd"/>
    <path id="Tracé_91" data-name="Tracé 91" d="M-734.8,485.123a.364.364,0,0,1-.016.176.975.975,0,0,1-.074.168,1,1,0,0,1-.1.122.734.734,0,0,0-.1.119q-.068.09-.145.176a2.287,2.287,0,0,0-.149.174,3.725,3.725,0,0,0-.419,1.082q-.127.584-.232,1.153-.045.22-.076.436c-.02.144-.045.289-.075.436,0,.02-.014.062-.031.125s-.032.134-.045.2a.649.649,0,0,0-.009.174c.007.05.027.069.059.059a1.492,1.492,0,0,0,.325-.112,1.5,1.5,0,0,1,.325-.111,1.345,1.345,0,0,1,.156-.033.25.25,0,0,1,.158.022.322.322,0,0,1,.18.158.323.323,0,0,1,.008.19.427.427,0,0,1-.1.183.851.851,0,0,1-.157.138,1.383,1.383,0,0,1-.408.184,3.053,3.053,0,0,0-.416.147.566.566,0,0,0-.233.158.732.732,0,0,0-.133.228,1.263,1.263,0,0,0-.063.267c-.013.095-.029.188-.049.277-.063.314-.13.621-.2.924s-.143.605-.209.909a12.458,12.458,0,0,1-.561,1.754,5.92,5.92,0,0,1-.945,1.58,6.7,6.7,0,0,1-1.372,1.259,9.379,9.379,0,0,1-1.632.9c-.171.07-.345.137-.518.2a4.6,4.6,0,0,1-.516.164,5.191,5.191,0,0,1-.639.123,4,4,0,0,1-.681.026,1.735,1.735,0,0,1-1.076-.462,1.094,1.094,0,0,1-.244-.307,1.817,1.817,0,0,1-.146-.347,2.423,2.423,0,0,1-.036-.714.969.969,0,0,1,.28-.628.841.841,0,0,1,.563-.238,1.056,1.056,0,0,1,.605.135.569.569,0,0,1,.217.218.7.7,0,0,1,.08.266,1.173,1.173,0,0,1-.012.3c-.02.108-.036.209-.054.306a2.49,2.49,0,0,0-.036.295.329.329,0,0,0,.106.263.705.705,0,0,0,.367.184,1.518,1.518,0,0,0,.444.018,2.328,2.328,0,0,0,.459-.088,2.837,2.837,0,0,0,.389-.145,3.9,3.9,0,0,0,1.143-.765,4.9,4.9,0,0,0,.837-1.084c.076-.142.156-.287.242-.431a1.977,1.977,0,0,0,.2-.445q.242-.941.461-1.884t.414-1.894a.584.584,0,0,1,.033-.139.5.5,0,0,0,.035-.143,1.486,1.486,0,0,0,.032-.258.332.332,0,0,1-.288.023.282.282,0,0,1-.217-.188c-.061-.175-.046-.3.049-.368a1.779,1.779,0,0,1,.347-.193.626.626,0,0,0,.355-.286,1.684,1.684,0,0,0,.126-.451,7.053,7.053,0,0,1,.494-1.687,7.862,7.862,0,0,1,.871-1.522,4.284,4.284,0,0,1,.308-.4c.109-.124.222-.252.341-.378a5.406,5.406,0,0,1,.622-.545q.144-.114.3-.222a.615.615,0,0,1,.347-.11c.046-.005.084.024.123.087a.187.187,0,0,1,.027.088m2.606-2.653c.119-.036.185-.018.2.058a.431.431,0,0,1-.006.227,1.113,1.113,0,0,1-.168.313c-.073.094-.146.184-.221.273a5.964,5.964,0,0,1-.5.465,4.471,4.471,0,0,1-.56.4,2.609,2.609,0,0,1-.483.228l-.5.177c-.149.055-.3.114-.444.172a2.5,2.5,0,0,1-.469.136,9.036,9.036,0,0,1-1.044.2c-.345.046-.7.084-1.066.122a10.653,10.653,0,0,0-1.233.164,8.649,8.649,0,0,0-1.213.32,6.7,6.7,0,0,0-1.127.513,3.907,3.907,0,0,0-.952.777,4.939,4.939,0,0,0-.416.561,4.161,4.161,0,0,0-.333.616,6.749,6.749,0,0,0-.362,1.041,6.954,6.954,0,0,0-.2,1.136,5.02,5.02,0,0,0,.021,1.143,3.406,3.406,0,0,0,.319,1.062,2.111,2.111,0,0,0,.445.583,1.269,1.269,0,0,0,.643.331,1.13,1.13,0,0,0,.544-.026,2.014,2.014,0,0,0,.508-.235,3.247,3.247,0,0,0,.458-.358,3.6,3.6,0,0,0,.375-.4c.025-.035.061-.09.1-.161a1.491,1.491,0,0,1,.141-.2.636.636,0,0,1,.168-.147.18.18,0,0,1,.192,0,.234.234,0,0,1,.13.223.946.946,0,0,1-.093.359,3.236,3.236,0,0,1-.24.439c-.1.154-.2.3-.3.434s-.188.255-.271.363-.139.179-.174.218a1.961,1.961,0,0,1-.481.462,3.572,3.572,0,0,1-.587.342,1.778,1.778,0,0,1-1.276.066,2.178,2.178,0,0,1-.669-.364,2.655,2.655,0,0,1-.516-.553,3.28,3.28,0,0,1-.361-.677,3.329,3.329,0,0,1-.2-.733,4.758,4.758,0,0,1-.045-.91c.012-.307.037-.61.078-.906a7.415,7.415,0,0,1,.581-2.055,7.746,7.746,0,0,1,1.124-1.807c.129-.149.264-.3.4-.44s.275-.276.422-.4c.123-.112.245-.22.364-.33a3.96,3.96,0,0,1,.369-.3,8.063,8.063,0,0,1,1.592-.92,6.791,6.791,0,0,1,1.766-.517q.959-.152,1.917-.254a12.173,12.173,0,0,0,1.9-.356,5.674,5.674,0,0,0,.574-.181,2.946,2.946,0,0,0,.533-.262,2.977,2.977,0,0,0,.313-.226A1.189,1.189,0,0,1-732.195,482.47Zm-21.573,20.371a2.4,2.4,0,0,0,.367-.686,6.142,6.142,0,0,0,.216-.754c.092-.441.166-.882.228-1.323a12.886,12.886,0,0,0,.114-1.343c.006-.2.012-.4.018-.6a4.064,4.064,0,0,0-.029-.608,3.264,3.264,0,0,0-.091-.369.453.453,0,0,0-.24-.278.354.354,0,0,0-.4.056,1.583,1.583,0,0,0-.3.316,2.933,2.933,0,0,0-.427,1.033c-.083.389-.154.761-.21,1.116a5.955,5.955,0,0,0-.083.591c-.019.2-.04.4-.066.6s-.042.4-.048.6-.009.405-.012.614c.006.086.007.183.007.293a2.386,2.386,0,0,0,.028.327,1.739,1.739,0,0,0,.077.308.475.475,0,0,0,.17.233.4.4,0,0,0,.363.1A.638.638,0,0,0-753.767,502.841Zm-.661,1.376a.2.2,0,0,1-.029,0,.764.764,0,0,1-.45-.057,1.224,1.224,0,0,1-.367-.266,1.825,1.825,0,0,1-.28-.385,3.118,3.118,0,0,1-.188-.414,3.836,3.836,0,0,1-.171-.654,4.573,4.573,0,0,1-.043-.927,13.14,13.14,0,0,1,.165-1.359,6.673,6.673,0,0,1,.378-1.32c.047-.122.1-.243.156-.362s.121-.24.186-.362c.1-.169.2-.336.313-.5a3.671,3.671,0,0,1,.375-.473c.113-.126.228-.256.346-.385a1.424,1.424,0,0,1,.409-.313c.074-.029.152-.057.231-.089a1.129,1.129,0,0,1,.24-.063.383.383,0,0,1,.326.071,1.715,1.715,0,0,0,.3.19c-.015-.013-.019-.061-.008-.15a.944.944,0,0,1,.023-.169.493.493,0,0,1,.121-.284,1.037,1.037,0,0,1,.363-.259c.149-.068.288-.139.418-.214a.515.515,0,0,0,.167-.138.218.218,0,0,1,.2-.078.152.152,0,0,1,.118.058.2.2,0,0,1,.045.117c0,.044,0,.091,0,.143s-.006.092-.011.124q-.087.725-.12,1.448t-.073,1.452c-.007.143-.013.282-.02.425s-.017.285-.031.431c-.025.3-.052.611-.086.933a2.7,2.7,0,0,0,.068.944.557.557,0,0,0,.06.177.166.166,0,0,0,.166.093.233.233,0,0,0,.167-.079.725.725,0,0,0,.14-.19,1.964,1.964,0,0,0,.107-.224c.03-.075.057-.133.076-.172q.131-.378.241-.746c.073-.245.141-.5.206-.758.053-.226.1-.447.148-.668s.077-.446.1-.674c0-.032.009-.076.013-.131a.422.422,0,0,1,.04-.154.242.242,0,0,1,.08-.1.13.13,0,0,1,.135.014.174.174,0,0,1,.083.115.557.557,0,0,1,.006.157,1.015,1.015,0,0,1-.029.163c-.013.051-.025.1-.037.132-.029.133-.055.27-.073.408a3.071,3.071,0,0,1-.085.414c-.014.105-.035.21-.057.311s-.045.2-.073.3c-.057.237-.117.472-.179.705s-.13.47-.2.7a4.8,4.8,0,0,1-.2.552,2.561,2.561,0,0,1-.327.567,1.487,1.487,0,0,1-.447.4.69.69,0,0,1-.572.04.925.925,0,0,1-.486-.33,1.41,1.41,0,0,1-.266-.531c0-.048-.009-.093-.013-.142a.229.229,0,0,0-.048-.123.22.22,0,0,0-.074.133,1.552,1.552,0,0,1-.041.164,2.5,2.5,0,0,0-.087.252c-.022.079-.046.165-.068.257a3.824,3.824,0,0,1-.492,1.067,2.3,2.3,0,0,1-.417.489A1.26,1.26,0,0,1-754.428,504.217Zm-3.924-10.691a.267.267,0,0,1,.219-.014.468.468,0,0,1,.158.166c.054.1.1.205.15.311a.862.862,0,0,1,.069.331q.007,1.494.049,2.967.026.982,0,1.959c-.021.653-.019,1.308,0,1.963.005.121.01.243.02.362a2.843,2.843,0,0,1,0,.36c.009.275.017.551.028.825s.02.549.02.831c0,.084,0,.191-.006.322a3.032,3.032,0,0,0,.009.4,1.308,1.308,0,0,0,.083.363.345.345,0,0,0,.2.215.258.258,0,0,0,.242-.028.7.7,0,0,0,.184-.163,1.868,1.868,0,0,0,.26-.577c.058-.221.11-.429.153-.622a7.976,7.976,0,0,0,.113-.924c.018-.308.03-.619.039-.936,0-.033,0-.121-.006-.271a2.834,2.834,0,0,1,.017-.438.99.99,0,0,1,.1-.348c.042-.086.115-.076.211.029a.386.386,0,0,1,.105.23,2.252,2.252,0,0,1,.021.305,1.813,1.813,0,0,1-.019.325,2.224,2.224,0,0,0-.024.259c-.015.456-.043.911-.091,1.363a6.1,6.1,0,0,1-.3,1.334c-.092.3-.191.567-.291.809a2.616,2.616,0,0,1-.475.722.744.744,0,0,1-.124.125c-.042.032-.089.066-.141.1a.98.98,0,0,1-.5.087.869.869,0,0,1-.475-.168,1.529,1.529,0,0,1-.446-.592,3.664,3.664,0,0,1-.241-.776,6.257,6.257,0,0,1-.1-.827c-.013-.279-.023-.531-.03-.755q-.029-.638-.011-1.267t.006-1.26c-.006-.455-.014-.9-.029-1.346s-.031-.889-.044-1.34c-.012-.43-.006-.865.013-1.3a8,8,0,0,0-.049-1.3,2.212,2.212,0,0,0-.06-.343c-.03-.112-.064-.225-.1-.335a.378.378,0,0,1,.033-.318.734.734,0,0,1,.247-.2c.083-.052.155-.1.221-.156s.136-.111.208-.179a1.437,1.437,0,0,1,.175-.157A.734.734,0,0,1-758.352,493.526Zm-8.036,15.274a1.092,1.092,0,0,0,.107-.226c.029-.088.048-.142.056-.161a4,4,0,0,0,.158-.887,5.586,5.586,0,0,0-.011-.891,3.792,3.792,0,0,0-.084-.535,1.1,1.1,0,0,0-.235-.484.289.289,0,0,0-.183-.111.174.174,0,0,0-.189.079.708.708,0,0,0-.1.357c-.009.145-.015.267-.018.367,0,.08.006.161.007.239s0,.149.006.219c.018.225.036.446.057.661s.048.431.083.651c0,.032.018.1.036.2a2.447,2.447,0,0,0,.073.311.774.774,0,0,0,.1.239C-766.484,508.882-766.439,508.872-766.387,508.8Zm1.565,3.3a1.459,1.459,0,0,1-.6.287,1.129,1.129,0,0,1-.763-.064,1.786,1.786,0,0,1-.584-.459,3.047,3.047,0,0,1-.423-.67,5.261,5.261,0,0,1-.275-.689,7.45,7.45,0,0,1-.39-1.723,5.726,5.726,0,0,1,.1-1.78,5.345,5.345,0,0,1,.356-1.1,4.12,4.12,0,0,1,.613-.976c.273-.315.53-.43.778-.346a1.22,1.22,0,0,1,.6.391,1.442,1.442,0,0,1,.283.6,2.309,2.309,0,0,1,.031.729,5.672,5.672,0,0,1-.139.779,5.386,5.386,0,0,1-.243.739c-.1.234-.183.434-.264.607-.095.2-.18.373-.258.529a1.922,1.922,0,0,0-.16.456,1.264,1.264,0,0,0-.005.467,1.8,1.8,0,0,0,.193.548,1.211,1.211,0,0,0,.242.345.894.894,0,0,0,.321.213.683.683,0,0,0,.365.031.787.787,0,0,0,.375-.217,1.363,1.363,0,0,0,.294-.4,2.1,2.1,0,0,0,.166-.48,3.88,3.88,0,0,0,.076-.511,4.561,4.561,0,0,0,.006-.5c-.005-.381-.022-.763-.048-1.147s-.068-.759-.125-1.129c0-.032-.023-.1-.051-.2a2.83,2.83,0,0,1-.059-.288.309.309,0,0,1,.026-.2c.03-.046.1-.032.2.041a.546.546,0,0,1,.227.409c.027.188.042.351.05.487q.036.545.107,1.091c.045.366.076.731.087,1.092a6.219,6.219,0,0,1-.06,1.085,3.757,3.757,0,0,1-.323,1.059,2.887,2.887,0,0,1-.305.494A2.075,2.075,0,0,1-764.822,512.1Zm-9.642,10.664a2.6,2.6,0,0,0,.124-.23,4.3,4.3,0,0,0,.19-.416,1.97,1.97,0,0,0,.115-.412c.021-.125,0-.2-.066-.211-.026-.009-.06.006-.1.044a.477.477,0,0,1-.083.07c-.118.087-.233.174-.346.255l-.339.244-.2.146a2.985,2.985,0,0,0-.391.385.865.865,0,0,0-.223.49.4.4,0,0,0,.122.349.376.376,0,0,0,.356.094.742.742,0,0,0,.378-.231c.108-.118.207-.232.295-.341A1.8,1.8,0,0,0-774.465,522.768Zm.31.956-.031.043a4.046,4.046,0,0,1-.575.571,1.953,1.953,0,0,1-.718.368.882.882,0,0,1-.366.038.8.8,0,0,1-.354-.119.868.868,0,0,1-.424-.576,1.626,1.626,0,0,1,.023-.732,3.054,3.054,0,0,1,.292-.73,6.974,6.974,0,0,1,.385-.611c.15-.194.305-.382.461-.562s.323-.353.5-.52c.1-.1.19-.2.282-.3a2.153,2.153,0,0,1,.306-.267.851.851,0,0,0,.381-.483,1.475,1.475,0,0,0-.051-.629,5.588,5.588,0,0,0-.335-.935q-.212-.451-.425-.9c-.2-.392-.375-.789-.538-1.2s-.333-.81-.505-1.218c-.153-.361-.309-.714-.465-1.061a7.5,7.5,0,0,1-.394-1.088,12.248,12.248,0,0,1-.3-1.2,8.481,8.481,0,0,1-.143-1.232,4.76,4.76,0,0,1,.229-1.625c.02-.074.051-.175.1-.305s.1-.258.155-.383a1.594,1.594,0,0,1,.21-.336.492.492,0,0,1,.26-.18c.11-.018.187,0,.225.049a.3.3,0,0,1,.054.2.836.836,0,0,1-.049.248c-.03.086-.054.156-.07.21a1.349,1.349,0,0,0-.058.668c.039.217.086.436.141.661a8.205,8.205,0,0,0,.346,1.145q.216.561.469,1.11t.527,1.083c.184.354.366.71.543,1.066.1.216.209.428.314.634s.208.417.306.628a11.2,11.2,0,0,1,.565,1.482,8.493,8.493,0,0,1,.321,1.55c.006.069.014.147.025.237a.212.212,0,0,0,.128.183.278.278,0,0,0,.236-.034,1.3,1.3,0,0,0,.217-.143,2.83,2.83,0,0,0,.388-.29c.12-.108.242-.209.367-.305a5.2,5.2,0,0,0,.575-.594,4.225,4.225,0,0,0,.462-.7,3.521,3.521,0,0,0,.3-.776,2.468,2.468,0,0,0,.078-.816,7.8,7.8,0,0,0-.339-1.895,9.493,9.493,0,0,0-.765-1.782q-.13-.226-.265-.445c-.09-.146-.184-.3-.277-.451a9.766,9.766,0,0,0-1.257-1.551,6.466,6.466,0,0,0-1.606-1.181,4.436,4.436,0,0,0-1.393-.452,2.446,2.446,0,0,0-1.426.208,4.38,4.38,0,0,0-1.538,1.185,7.565,7.565,0,0,0-1.046,1.654c-.077.182-.151.367-.217.549a5.1,5.1,0,0,0-.171.554c-.04.176-.08.346-.117.509s-.065.33-.089.5a5.512,5.512,0,0,0,.029,2.022,6.593,6.593,0,0,0,.673,1.9,4.238,4.238,0,0,0,.365.563,2.949,2.949,0,0,0,.523.54,2.172,2.172,0,0,0,.63.357,1.014,1.014,0,0,0,.677.01,1.2,1.2,0,0,0,.5-.3,1.961,1.961,0,0,0,.346-.466,2.256,2.256,0,0,0,.206-.558,3.684,3.684,0,0,0,.092-.578.574.574,0,0,0-.018-.224.152.152,0,0,1,.073-.191.143.143,0,0,1,.18,0,.562.562,0,0,1,.134.13.8.8,0,0,1,.2.344,1.624,1.624,0,0,1,.054.39,2.126,2.126,0,0,1-.029.4c-.023.136-.046.267-.069.39a5.659,5.659,0,0,1-.26,1,2.154,2.154,0,0,1-.545.859,1.829,1.829,0,0,1-.981.5,2.03,2.03,0,0,1-1.092-.111,4.969,4.969,0,0,1-.618-.293,2.285,2.285,0,0,1-.543-.4,4.156,4.156,0,0,1-.914-1.417,10.872,10.872,0,0,1-.495-1.616,8.64,8.64,0,0,1-.184-1.451,6.458,6.458,0,0,1,.119-1.461,11.1,11.1,0,0,1,.487-1.758,11.765,11.765,0,0,1,.757-1.658,5.533,5.533,0,0,1,.8-1.059q.456-.477.962-.927a6.5,6.5,0,0,1,.85-.682,4.2,4.2,0,0,1,.977-.474,3.77,3.77,0,0,1,.607-.142,5.882,5.882,0,0,1,.609-.056,3.837,3.837,0,0,1,1.159.13,5.543,5.543,0,0,1,1.1.422,8.344,8.344,0,0,1,1.671,1.114,6.744,6.744,0,0,1,1.31,1.524,7.027,7.027,0,0,1,.523.953c.148.332.281.675.4,1.033a1.777,1.777,0,0,1,.1.319c.019.108.046.216.075.325a7.73,7.73,0,0,1,.052,3.038,8.456,8.456,0,0,1-1.068,2.852,8.732,8.732,0,0,1-.776,1.058,10.993,10.993,0,0,1-.906.935,5.208,5.208,0,0,1-.61.471,1.75,1.75,0,0,0-.53.545,1.8,1.8,0,0,0-.249.683,3.239,3.239,0,0,1-.187.711,5.082,5.082,0,0,1-.458.825C-773.775,523.233-773.959,523.484-774.155,523.724Z" fill-rule="evenodd"/>
    <path id="Tracé_92" data-name="Tracé 92" d="M-528.539,520.842c.13-.041.213-.014.25.086a.193.193,0,0,1-.019.154.546.546,0,0,1-.123.144,1,1,0,0,1-.159.121l-.142.085a2.739,2.739,0,0,1-.343.232c-.115.067-.24.137-.373.206-.257.144-.515.285-.777.427s-.525.279-.795.406a5.45,5.45,0,0,1-.768.318,1.876,1.876,0,0,1-.816.084,1.416,1.416,0,0,1-.544-.2.769.769,0,0,1-.357-.457.8.8,0,0,1,.05-.563,2.355,2.355,0,0,1,.283-.512.946.946,0,0,0,.133-.226c0-.015-.06.007-.17.068-.045.019-.119.055-.218.1a3.206,3.206,0,0,1-.3.129,6.023,6.023,0,0,1-.907.347c-.159.041-.323.081-.49.122a1.171,1.171,0,0,1-.506.019,1.974,1.974,0,0,1-.313-.091.845.845,0,0,1-.282-.162c-.035-.034-.066-.063-.1-.1s-.061-.067-.093-.108a.555.555,0,0,1-.108-.285,1.153,1.153,0,0,1,.005-.311,1.534,1.534,0,0,1,.222-.608,3.031,3.031,0,0,1,.412-.509,4.457,4.457,0,0,1,.5-.438c.176-.134.349-.267.516-.4.191-.142.384-.284.585-.428s.395-.288.588-.438q.261-.193.53-.384a5.394,5.394,0,0,0,.518-.418,2.3,2.3,0,0,0,.191-.17,1.7,1.7,0,0,0,.158-.2,2.213,2.213,0,0,0,.172-.3c.041-.1.139-.135.291-.11a.852.852,0,0,1,.317.113,2.031,2.031,0,0,0,.3.151,1.032,1.032,0,0,0,.155.039,1.435,1.435,0,0,1,.2.057.5.5,0,0,1,.172.089.165.165,0,0,1,.064.14.51.51,0,0,1-.128.332c-.089.115-.168.211-.236.289a4.082,4.082,0,0,1-.537.487c-.193.147-.381.29-.572.433-.215.161-.425.321-.628.487s-.418.324-.643.482-.446.31-.664.464a7.719,7.719,0,0,0-.636.507c-.078.074-.166.166-.268.277a.388.388,0,0,0-.121.335.241.241,0,0,0,.242.225,1.5,1.5,0,0,0,.459-.057,2.785,2.785,0,0,0,.483-.176c.151-.073.262-.122.331-.151a1.651,1.651,0,0,0,.291-.159,3.313,3.313,0,0,1,.285-.179c.171-.093.338-.191.5-.3l.5-.313a7.787,7.787,0,0,0,.672-.47q.482-.348.97-.714a5.042,5.042,0,0,0,.876-.834,1.47,1.47,0,0,1,.12-.137c.04-.041.067-.067.081-.081.047-.047.086-.086.116-.11a.294.294,0,0,1,.15-.054,1.468,1.468,0,0,1,.311.04.8.8,0,0,1,.227.072c.073.032.143.068.214.106a1.043,1.043,0,0,0,.242.091,1.7,1.7,0,0,1,.245.076.223.223,0,0,1,.144.123.239.239,0,0,1-.013.152.778.778,0,0,1-.095.167c-.044.059-.081.109-.118.152a1.083,1.083,0,0,1-.25.255c-.1.074-.2.147-.3.222-.218.168-.426.318-.621.447a9.919,9.919,0,0,0-.969.734c-.311.265-.631.509-.96.738a4.973,4.973,0,0,0-.834.731c-.338.368-.422.6-.256.708a.306.306,0,0,0,.279.05l.288-.078a2.1,2.1,0,0,0,.3-.12,3.069,3.069,0,0,1,.292-.124c.1-.047.184-.091.267-.134s.172-.087.267-.134c.257-.144.5-.287.741-.428s.471-.3.7-.472a.892.892,0,0,1,.137-.093,1,1,0,0,1,.192-.088m-12.97-1.326a1.855,1.855,0,0,0,.826-.274c.253-.159.5-.325.745-.5.333-.243.661-.495.981-.76a9.692,9.692,0,0,0,.911-.859c.085-.087.181-.186.284-.3a3.978,3.978,0,0,0,.3-.346,3.442,3.442,0,0,0,.252-.372,1.229,1.229,0,0,0,.144-.386.456.456,0,0,0-.056-.295.463.463,0,0,0-.224-.212.862.862,0,0,0-.468,0,2.366,2.366,0,0,0-.506.194,5.528,5.528,0,0,0-.479.279c-.154.1-.285.189-.393.263-.3.2-.6.418-.878.642s-.556.453-.831.683a8.13,8.13,0,0,0-.7.666,2.243,2.243,0,0,0-.506.839.5.5,0,0,0,.073.554.556.556,0,0,0,.518.18Zm-.789.59a.908.908,0,0,1-.6-.7,1.8,1.8,0,0,1,.136-.938,4.362,4.362,0,0,1,.523-.938,7.9,7.9,0,0,1,.567-.715,6.544,6.544,0,0,1,1.394-1.119,9.261,9.261,0,0,1,1.6-.779,5.459,5.459,0,0,1,.561-.172,3.376,3.376,0,0,1,.647-.1,2.117,2.117,0,0,1,.627.052.929.929,0,0,1,.5.3c.064.07.117.13.16.176a.272.272,0,0,0,.128.087.2.2,0,0,0,.142-.024,1.819,1.819,0,0,0,.214-.145,3.457,3.457,0,0,0,.445-.413c.139-.15.274-.3.412-.446.223-.235.448-.47.677-.708s.456-.47.687-.7c.122-.125.246-.243.37-.356a3.224,3.224,0,0,0,.346-.375,1.627,1.627,0,0,0,.138-.192c.038-.066.077-.141.115-.221a.981.981,0,0,0,.055-.2.27.27,0,0,1,.106-.172.438.438,0,0,1,.252-.081,1.531,1.531,0,0,1,.286.031,2.639,2.639,0,0,1,.285.08.847.847,0,0,0,.259.052,2.883,2.883,0,0,1,.384.043c.122.023.178.126.166.314a.875.875,0,0,1-.109.381,1.858,1.858,0,0,1-.241.339,3.1,3.1,0,0,1-.3.3c-.1.091-.208.179-.311.262a8.651,8.651,0,0,0-.661.623c-.21.219-.418.439-.629.658-.352.393-.709.771-1.069,1.141s-.731.728-1.113,1.086-.75.739-1.1,1.117-.7.756-1.061,1.129c-.146.146-.284.293-.412.446s-.252.318-.368.487a.992.992,0,0,0-.154.288c-.021.084,0,.141.061.165a.532.532,0,0,0,.2.037,1.434,1.434,0,0,0,.592-.185c.181-.1.36-.209.543-.318s.369-.231.558-.344.372-.233.561-.367c.133-.095.262-.2.39-.3a3.516,3.516,0,0,0,.361-.35,1.737,1.737,0,0,0,.17-.188.573.573,0,0,1,.206-.166.274.274,0,0,1,.2-.019c.069.017.1.073.08.17a.234.234,0,0,1-.062.14c-.038.042-.075.079-.111.116a3.708,3.708,0,0,1-.337.342c-.123.111-.247.213-.372.309a15.989,15.989,0,0,1-1.31.93,14.632,14.632,0,0,1-1.4.784,1.505,1.505,0,0,1-.352.134,1.347,1.347,0,0,1-.384.034,2.22,2.22,0,0,1-.48-.094.651.651,0,0,1-.387-.3.706.706,0,0,1-.1-.352,1.368,1.368,0,0,1,.039-.372c0-.018.021-.06.047-.132s.055-.142.082-.216.056-.144.079-.206.037-.092.037-.092c-.025-.006-.05.006-.077.035a.452.452,0,0,1-.085.066q-.064.045-.146.094c-.165.114-.331.224-.5.332a4.934,4.934,0,0,1-.522.287,2.916,2.916,0,0,1-.554.2,1.836,1.836,0,0,1-.605.046A1.75,1.75,0,0,1-542.3,520.106Zm-7.215-4.672a1.069,1.069,0,0,0,.242-.066c.086-.036.139-.056.158-.062a4.012,4.012,0,0,0,.777-.457,5.606,5.606,0,0,0,.67-.589,3.755,3.755,0,0,0,.352-.412,1.1,1.1,0,0,0,.215-.494.288.288,0,0,0-.034-.211.175.175,0,0,0-.183-.093.713.713,0,0,0-.337.156c-.116.088-.212.162-.291.225-.059.054-.118.109-.177.161s-.112.1-.163.146c-.159.16-.315.318-.465.474s-.3.317-.44.487c-.021.024-.064.078-.129.159a2.353,2.353,0,0,0-.189.257.773.773,0,0,0-.114.234C-549.637,515.415-549.6,515.443-549.512,515.434ZM-551,518.773a1.462,1.462,0,0,1-.607-.268,1.131,1.131,0,0,1-.448-.622,1.8,1.8,0,0,1-.03-.742,3.036,3.036,0,0,1,.235-.757,5.225,5.225,0,0,1,.345-.657,7.456,7.456,0,0,1,1.055-1.416,5.724,5.724,0,0,1,1.419-1.081,5.371,5.371,0,0,1,1.068-.445,4.117,4.117,0,0,1,1.14-.169c.417,0,.672.124.769.366a1.216,1.216,0,0,1,.092.709,1.443,1.443,0,0,1-.273.607,2.309,2.309,0,0,1-.534.5,5.616,5.616,0,0,1-.683.4,5.45,5.45,0,0,1-.719.3c-.24.079-.449.143-.633.194-.211.056-.4.106-.57.148a1.916,1.916,0,0,0-.45.175,1.264,1.264,0,0,0-.358.3,1.8,1.8,0,0,0-.291.5,1.205,1.205,0,0,0-.1.408.9.9,0,0,0,.047.383.681.681,0,0,0,.213.3.787.787,0,0,0,.409.144,1.349,1.349,0,0,0,.5-.037,2.089,2.089,0,0,0,.473-.186,3.854,3.854,0,0,0,.437-.275,4.4,4.4,0,0,0,.387-.323q.429-.378.84-.782t.776-.828c.021-.024.059-.081.117-.168a2.718,2.718,0,0,1,.18-.232.306.306,0,0,1,.172-.114c.054-.007.087.052.1.179a.546.546,0,0,1-.164.438c-.125.143-.239.26-.338.355q-.39.382-.759.791c-.248.272-.506.533-.773.776a6.215,6.215,0,0,1-.864.659,3.753,3.753,0,0,1-1.014.443,2.86,2.86,0,0,1-.573.089A2.071,2.071,0,0,1-551,518.773Zm-5.173-.992a1.626,1.626,0,0,0,.326-.178q.169-.115.322-.238a3.116,3.116,0,0,0,.272-.232,2.141,2.141,0,0,1,.181-.16,3.556,3.556,0,0,0,.577-.647c.158-.234.325-.463.5-.689.136-.174.269-.356.4-.545s.259-.382.388-.572a3.4,3.4,0,0,0,.261-.456,3.021,3.021,0,0,0,.183-.5,1.225,1.225,0,0,0,.054-.3.943.943,0,0,0-.028-.3.361.361,0,0,0-.141-.206.358.358,0,0,0-.3-.028,1.714,1.714,0,0,0-.722.393c-.224.2-.426.386-.607.567a8.5,8.5,0,0,0-.569.634c-.182.226-.353.449-.517.675q-.258.363-.484.734c-.151.248-.3.5-.434.751-.036.071-.077.151-.124.248a1.95,1.95,0,0,0-.118.3,1.469,1.469,0,0,0-.068.31.461.461,0,0,0,.047.27.338.338,0,0,0,.259.2A.821.821,0,0,0-556.178,517.781Zm-4.479,4.837a2.306,2.306,0,0,1-.537-.2.906.906,0,0,1-.406-.379,1.075,1.075,0,0,1-.154-.531.965.965,0,0,1,.13-.512.707.707,0,0,1,.456-.32.62.62,0,0,1,.4.035.731.731,0,0,1,.312.24.536.536,0,0,1,.111.343.492.492,0,0,1-.193.36.155.155,0,0,0-.069.144.334.334,0,0,0,.057.147.535.535,0,0,0,.116.129.741.741,0,0,0,.122.087,1.054,1.054,0,0,0,.525.136,1.706,1.706,0,0,0,.557-.093,2.951,2.951,0,0,0,.539-.239,3.955,3.955,0,0,0,.45-.285,4.919,4.919,0,0,0,1.1-1.111q.458-.636.869-1.3c.063-.112.154-.253.268-.417s.221-.322.328-.476.189-.281.252-.39.077-.156.043-.149a1.1,1.1,0,0,0-.254.153,1.782,1.782,0,0,1-.322.243q-.121.077-.241.145c-.08.048-.166.091-.254.134a1.748,1.748,0,0,1-.523.134,1.121,1.121,0,0,1-.522-.052,1,1,0,0,1-.607-.594,1.876,1.876,0,0,1-.073-.868,3.71,3.71,0,0,1,.251-.924c.126-.306.245-.568.356-.784a5.12,5.12,0,0,1,.623-.944,7.6,7.6,0,0,1,.79-.82c.17-.155.353-.311.546-.471a5.02,5.02,0,0,1,.6-.427,4.062,4.062,0,0,1,.651-.323,2.568,2.568,0,0,1,.7-.162l.383-.023a2.776,2.776,0,0,1,.47.011,1.1,1.1,0,0,1,.406.12.409.409,0,0,1,.209.322c.007.045.022.064.046.059a.172.172,0,0,0,.08-.043.679.679,0,0,0,.087-.091c.027-.034.046-.057.054-.065a.616.616,0,0,1,.409-.207q.242-.03.468-.037c.061,0,.138,0,.225-.008a.988.988,0,0,1,.251.011.515.515,0,0,1,.2.084.223.223,0,0,1,.08.194.767.767,0,0,1-.169.471c-.109.138-.212.267-.312.389a4.139,4.139,0,0,0-.34.455c-.1.156-.2.313-.3.468q-.37.586-.747,1.15t-.771,1.139c-.137.216-.276.43-.418.638s-.284.422-.429.637-.284.416-.415.625-.276.417-.431.624c-.2.286-.411.572-.632.858a10.507,10.507,0,0,1-.707.816,7.021,7.021,0,0,1-.792.714,5.43,5.43,0,0,1-.905.568,6.18,6.18,0,0,1-1.463.487A3.41,3.41,0,0,1-560.657,522.618Zm-4.036-3.609a.265.265,0,0,1,.032-.32,1.2,1.2,0,0,1,.262-.229c.108-.079.222-.153.337-.227a2.853,2.853,0,0,0,.332-.255,4.31,4.31,0,0,0,.608-.671,7.09,7.09,0,0,0,.5-.767c.119-.2.24-.4.365-.585s.243-.387.362-.588.231-.421.341-.627.223-.412.341-.623a6.663,6.663,0,0,0,.37-.787,8.329,8.329,0,0,1,.357-.783.887.887,0,0,1,.21-.292c.08-.067.194-.058.341.03a1.417,1.417,0,0,0,.965.186,5.637,5.637,0,0,0,.974-.264.429.429,0,0,1,.278-.006c.089.028.134.1.134.229a.557.557,0,0,1-.147.362c-.1.115-.178.221-.244.313-.1.131-.189.256-.278.382s-.176.253-.265.383a16.878,16.878,0,0,0-.935,1.637q-.13.247-.237.492c-.073.164-.139.327-.2.49a2.33,2.33,0,0,0-.1.266,2.714,2.714,0,0,0-.1.409,1.5,1.5,0,0,0-.021.385.2.2,0,0,0,.167.2.5.5,0,0,0,.284-.025,1.146,1.146,0,0,0,.26-.152,1.312,1.312,0,0,0,.229-.214c.071-.079.135-.152.192-.217a7.33,7.33,0,0,0,.684-.959c.2-.339.4-.67.613-.994.041-.064.093-.152.162-.263a.273.273,0,0,1,.232-.161c.106,0,.157.051.15.144a.919.919,0,0,1-.093.31,2.643,2.643,0,0,1-.182.322c-.07.1-.115.167-.14.195-.113.167-.224.33-.337.491s-.224.322-.338.481c-.088.138-.179.279-.276.423s-.193.278-.29.409a6.068,6.068,0,0,1-.706.784,2.159,2.159,0,0,1-.927.5,1.771,1.771,0,0,1-.373.039,1.053,1.053,0,0,1-.356-.055.881.881,0,0,1-.295-.171.694.694,0,0,1-.2-.312,1.428,1.428,0,0,1-.084-.463,1.945,1.945,0,0,1,.048-.461c.035-.153.078-.3.128-.459a4.227,4.227,0,0,1,.169-.435,4.775,4.775,0,0,1,.676-1.157c.285-.363.568-.708.856-1.037a2.3,2.3,0,0,1,.229-.214.539.539,0,0,0,.19-.238c.023-.054.023-.089,0-.1a.185.185,0,0,0-.093-.012.811.811,0,0,0-.131.022.846.846,0,0,1-.112.021.5.5,0,0,1-.255-.049.87.87,0,0,0-.256-.075.3.3,0,0,0-.277.1,1.653,1.653,0,0,0-.175.263c-.071.129-.141.261-.211.4l-.21.411q-.221.439-.45.856c-.153.28-.319.559-.494.835-.1.157-.2.31-.3.457s-.213.3-.327.445c-.032.037-.092.117-.182.237s-.2.257-.322.406-.265.3-.414.451a5.123,5.123,0,0,1-.424.386.958.958,0,0,1-.37.2A.2.2,0,0,1-564.693,519.01Zm-1.536-.195a2.49,2.49,0,0,0,.747-.733,7.454,7.454,0,0,0,.516-.911c.055-.108.1-.211.145-.317s.084-.209.129-.315c.112-.258.209-.522.3-.8s.165-.542.237-.812c.041-.194.079-.379.113-.553a2.19,2.19,0,0,0,.03-.566,1.092,1.092,0,0,0-.106-.366.38.38,0,0,0-.282-.228.543.543,0,0,0-.444.151,2.813,2.813,0,0,0-.332.347c-.1.142-.2.276-.31.4a3.253,3.253,0,0,0-.284.4,7.371,7.371,0,0,0-.5.869c-.148.3-.285.6-.4.906a8.378,8.378,0,0,0-.285.812c-.081.277-.153.553-.216.831a2.922,2.922,0,0,0-.059.5.588.588,0,0,0,.16.469.4.4,0,0,0,.283.1.833.833,0,0,0,.3-.047A2.874,2.874,0,0,0-566.23,518.815Zm-.974.85a1.626,1.626,0,0,1-.781-.29,1.1,1.1,0,0,1-.457-.689,2.689,2.689,0,0,1-.056-.518,4.461,4.461,0,0,1,.023-.533,3.561,3.561,0,0,1,.172-.936,5.916,5.916,0,0,1,.923-1.764c.228-.3.463-.568.7-.819.144-.156.3-.31.469-.462a4.866,4.866,0,0,1,.527-.418,3.993,3.993,0,0,1,.576-.332,2.681,2.681,0,0,1,.622-.206,2.066,2.066,0,0,1,.734-.009,1.04,1.04,0,0,1,.562.338,1.355,1.355,0,0,1,.362.851,5.747,5.747,0,0,1-.038.941,6.132,6.132,0,0,1-.518,1.873,5.292,5.292,0,0,1-1.108,1.606,7.252,7.252,0,0,1-.959.78,3.934,3.934,0,0,1-1.1.536c-.1.024-.21.044-.317.058A1.239,1.239,0,0,1-567.2,519.665Z" transform="translate(-167.355 -22.621)" fill-rule="evenodd"/>
    <path id="Tracé_93" data-name="Tracé 93" d="M-351.268,575.518c-.012-.033-.023-.07-.035-.1a.771.771,0,0,1-.031-.121.764.764,0,0,1,.2-.711,1.461,1.461,0,0,1,.666-.321,4.01,4.01,0,0,1,.845-.09c.292,0,.538-.009.74-.023.4-.016.794-.017,1.187,0a10.119,10.119,0,0,0,1.193-.017c.137-.016.3-.034.476-.056a.553.553,0,0,0,.407-.232.21.21,0,0,0,0-.267,1.046,1.046,0,0,0-.268-.235,2.681,2.681,0,0,0-.357-.187q-.184-.074-.264-.1a3.44,3.44,0,0,0-.842-.184c-.292-.028-.583-.051-.879-.07-.106,0-.211-.011-.311-.019a1.949,1.949,0,0,0-.315,0q-.595.007-1.173-.005c-.387,0-.775,0-1.166.01-.115,0-.226,0-.334,0s-.219.007-.33.015a2.293,2.293,0,0,0-.408.059,1.283,1.283,0,0,1-.413.032c-.026-.005-.051-.011-.083-.016s-.056-.014-.082-.019-.028-.014-.032-.011-.013,0-.03-.012a.615.615,0,0,1-.112-.1c-.035-.04-.07-.074-.1-.108a3.969,3.969,0,0,1-.244-.313q-.111-.164-.209-.337a1.34,1.34,0,0,1-.139-.287c-.008-.048.023-.1.094-.146a.392.392,0,0,1,.231-.08c.18-.013.36-.026.539-.041s.355-.025.535-.025c.561-.008,1.122-.015,1.68-.027s1.122-.025,1.686-.043c.165,0,.328-.008.487-.016l.5-.022c.333,0,.667-.013,1-.027s.679-.03,1.025-.044c.54-.026,1.076-.042,1.608-.056s1.062-.03,1.593-.05a6.144,6.144,0,0,0,.883-.068,1.712,1.712,0,0,0,.272-.05c.085-.024.17-.053.253-.085a.286.286,0,0,1,.189-.034c.036.012.093.081.175.208.029.044.068.1.116.17s.1.126.143.181c.132.156.236.278.312.37a2.573,2.573,0,0,1,.163.218.179.179,0,0,1,.043.114.155.155,0,0,1-.034.069.712.712,0,0,1-.458.249c-.187.027-.362.052-.527.074a6.969,6.969,0,0,1-.868.043,3.345,3.345,0,0,0-.457.013c-.152.013-.3.021-.448.022q-.486,0-.951,0c-.307,0-.625.005-.953.019a1.521,1.521,0,0,0-.263.006q-.132.015-.268.023a6.918,6.918,0,0,0-.824.015.072.072,0,0,0-.058.006.484.484,0,0,0,.08.027l.073.016a.594.594,0,0,0,.1.046.823.823,0,0,1,.094.034c.165.06.329.13.5.208a2.558,2.558,0,0,1,.453.263,1.022,1.022,0,0,1,.242.214c.07.083.14.167.212.246a1.614,1.614,0,0,1,.24.395.682.682,0,0,1,.038.448.941.941,0,0,1-.36.547,1.817,1.817,0,0,1-.6.273,3.508,3.508,0,0,1-.7.1c-.24.008-.455.021-.642.038-.238.006-.468.01-.692.014s-.451.008-.689.015c-.179,0-.354,0-.532-.011s-.354-.007-.533-.008a2.928,2.928,0,0,0-.513.043.942.942,0,0,0-.464.2.45.45,0,0,0,.216.295,1.876,1.876,0,0,0,.335.167c.112.043.229.088.353.133s.245.087.364.126a8.8,8.8,0,0,0,1.6.286c.168.017.337.03.506.044s.343.014.522.014a1.661,1.661,0,0,0,.246.007.5.5,0,0,1,.233.029.137.137,0,0,1,.094.112.179.179,0,0,1-.037.134.309.309,0,0,1-.112.094.106.106,0,0,1-.123-.006l-.2,0c-.129,0-.278,0-.444-.011l-.511-.022c-.173-.01-.3-.019-.381-.03-.166-.028-.331-.054-.5-.072s-.328-.045-.494-.073c-.056,0-.1-.011-.143-.017s-.087-.013-.134-.023q-.493-.106-1.007-.244a4.035,4.035,0,0,1-.965-.4,2.038,2.038,0,0,1-.41-.342,1.272,1.272,0,0,1-.286-.466m-4.05-5.531a1.72,1.72,0,0,1-.254-.594,1.044,1.044,0,0,1,.058-.644,1.617,1.617,0,0,1,.359-.511,3.06,3.06,0,0,1,.491-.381,4.088,4.088,0,0,1,.627-.307,7.416,7.416,0,0,1,1.175-.317,5.817,5.817,0,0,1,1.216-.088,11.983,11.983,0,0,1,1.237.1,5.432,5.432,0,0,1,1.206.308,3.821,3.821,0,0,1,.59.289,3.721,3.721,0,0,1,.843.734c.034.051.075.113.126.182a1.552,1.552,0,0,1,.127.212.975.975,0,0,1,.076.225.421.421,0,0,1-.015.214,1.377,1.377,0,0,1-.1.19.409.409,0,0,1-.158.14,1.087,1.087,0,0,1-.425.129c-.147.013-.292.029-.437.052-.105.012-.22.029-.343.05a.291.291,0,0,1-.3-.118.144.144,0,0,1-.045-.13.361.361,0,0,1,.07-.121.528.528,0,0,1,.119-.1.925.925,0,0,0,.117-.086,2.278,2.278,0,0,0,.283-.257.777.777,0,0,0,.184-.349.337.337,0,0,0-.131-.367,1.071,1.071,0,0,0-.426-.163,2.394,2.394,0,0,0-.514-.032c-.173.008-.307.011-.4.013a9.439,9.439,0,0,0-1.47.119q-.734.12-1.454.281a6.948,6.948,0,0,0-.667.2,1.322,1.322,0,0,0-.567.4.484.484,0,0,0-.149.509,1.049,1.049,0,0,0,.334.438,2.467,2.467,0,0,0,.546.327,2.548,2.548,0,0,0,.5.176c.118.026.236.048.357.065s.241.033.365.054c.1.006.2.014.3.024s.2.016.3.022c.118,0,.237.005.356.013s.235.01.353.012l.7.006a4.349,4.349,0,0,0,.684-.051,2.423,2.423,0,0,0,.282-.091.358.358,0,0,1,.284.014c.073.031.106.072.095.127a.207.207,0,0,1-.092.135.548.548,0,0,1-.248.106c-.091.013-.177.023-.266.031-.245.03-.489.056-.738.082a4.51,4.51,0,0,1-.745.014q-.663-.033-1.332-.084a11.384,11.384,0,0,1-1.326-.173q-.194-.04-.382-.085a1.371,1.371,0,0,1-.362-.138c-.122-.058-.238-.117-.35-.177a1.738,1.738,0,0,1-.326-.23Zm2.453-3.091c.136.008.2.063.2.17a.2.2,0,0,1-.073.137.557.557,0,0,1-.167.09,1,1,0,0,1-.192.056l-.163.028a2.735,2.735,0,0,1-.4.093c-.132.022-.273.041-.422.057-.292.042-.584.081-.879.119s-.59.071-.888.093a5.4,5.4,0,0,1-.831.02,1.877,1.877,0,0,1-.792-.215,1.418,1.418,0,0,1-.433-.387.767.767,0,0,1-.169-.555.8.8,0,0,1,.249-.507,2.365,2.365,0,0,1,.448-.376.931.931,0,0,0,.205-.162c0-.015-.058-.015-.183,0-.049,0-.131.008-.241.018a3.184,3.184,0,0,1-.328.011,6,6,0,0,1-.971,0c-.163-.019-.33-.041-.5-.063a1.171,1.171,0,0,1-.479-.164,1.973,1.973,0,0,1-.259-.2.843.843,0,0,1-.2-.252c-.02-.044-.038-.083-.055-.123a1.414,1.414,0,0,1-.048-.135.551.551,0,0,1,0-.3,1.143,1.143,0,0,1,.117-.288,1.529,1.529,0,0,1,.426-.488,3.058,3.058,0,0,1,.568-.326,4.448,4.448,0,0,1,.627-.227c.213-.062.422-.123.625-.186.23-.064.461-.126.7-.189s.472-.127.707-.2q.313-.086.633-.167a5.438,5.438,0,0,0,.634-.2,2.431,2.431,0,0,0,.24-.09,1.725,1.725,0,0,0,.22-.131,2.248,2.248,0,0,0,.269-.219c.074-.076.178-.075.312,0a.86.86,0,0,1,.255.219,2.013,2.013,0,0,0,.229.25,1.048,1.048,0,0,0,.13.093,1.409,1.409,0,0,1,.17.126.505.505,0,0,1,.128.145.164.164,0,0,1,.009.153.51.51,0,0,1-.239.264q-.187.113-.324.185a4.021,4.021,0,0,1-.677.261c-.233.068-.46.134-.69.2-.259.072-.512.147-.762.229s-.507.152-.773.217-.528.129-.787.194a7.75,7.75,0,0,0-.776.244c-.1.041-.215.095-.349.161a.388.388,0,0,0-.233.27.241.241,0,0,0,.145.3,1.49,1.49,0,0,0,.449.112,2.8,2.8,0,0,0,.514.01c.167-.013.289-.019.363-.022a1.643,1.643,0,0,0,.329-.044,3.348,3.348,0,0,1,.33-.064c.193-.025.385-.056.576-.095l.575-.114a7.8,7.8,0,0,0,.8-.2q.575-.152,1.162-.317a5.042,5.042,0,0,0,1.118-.464,1.452,1.452,0,0,1,.161-.084c.052-.024.086-.038.1-.047.061-.026.111-.049.148-.061a.3.3,0,0,1,.159,0,1.476,1.476,0,0,1,.276.149.815.815,0,0,1,.186.149c.056.056.109.116.161.176a1.045,1.045,0,0,0,.193.172,1.685,1.685,0,0,1,.2.159.223.223,0,0,1,.09.167.238.238,0,0,1-.066.137.749.749,0,0,1-.149.121c-.062.04-.115.073-.165.1a1.085,1.085,0,0,1-.326.148c-.12.032-.24.065-.357.1-.264.078-.512.143-.741.194a9.936,9.936,0,0,0-1.169.336c-.386.135-.772.248-1.161.343a4.992,4.992,0,0,0-1.042.382c-.448.221-.611.412-.494.568a.3.3,0,0,0,.242.147l.3.031a2.09,2.09,0,0,0,.327,0,3.089,3.089,0,0,1,.317-.011c.107-.009.205-.018.3-.029s.192-.019.3-.029c.292-.042.574-.085.845-.132s.547-.111.825-.188a.9.9,0,0,1,.161-.037A.989.989,0,0,1-352.865,566.9Zm-10.924-10.782a.382.382,0,0,0-.031-.048.231.231,0,0,1-.033-.045,2.484,2.484,0,0,1-.357-.642,1.159,1.159,0,0,1-.009-.724,2.529,2.529,0,0,1,.486-.917,4.461,4.461,0,0,1,.769-.719c.141-.095.284-.185.432-.271s.3-.163.454-.236a6.366,6.366,0,0,1,1.459-.488,8.374,8.374,0,0,1,1.526-.165c.339-.011.676,0,1.011.014a8.038,8.038,0,0,1,1,.122,10.036,10.036,0,0,1,1.188.273c.386.115.768.247,1.148.393a7.483,7.483,0,0,1,1.651.886,5.658,5.658,0,0,1,1.326,1.306,3.35,3.35,0,0,1,.6,1.511,2.89,2.89,0,0,1-.225,1.6,3.128,3.128,0,0,1-.459.726,4.47,4.47,0,0,1-.494.467,3.547,3.547,0,0,1-.569.385,3.683,3.683,0,0,1-.654.267,3.213,3.213,0,0,1-1.008.2,5.2,5.2,0,0,1-1.027-.074,3.2,3.2,0,0,1-.9-.276c-.29-.139-.571-.28-.844-.428-.076-.043-.164-.092-.26-.149a1.056,1.056,0,0,1-.248-.2.909.909,0,0,1-.168-.253.422.422,0,0,1-.015-.3.228.228,0,0,1,.1-.132.179.179,0,0,1,.151-.046.366.366,0,0,1,.248.166,1.752,1.752,0,0,0,.183.231,1.517,1.517,0,0,0,.769.467,2.677,2.677,0,0,0,.91.056,3.672,3.672,0,0,0,.928-.231,4.694,4.694,0,0,0,.8-.4,4.548,4.548,0,0,0,.938-.836,2.437,2.437,0,0,0,.554-1.116,2.5,2.5,0,0,0,.05-.731,2.076,2.076,0,0,0-.2-.692,2.518,2.518,0,0,0-.394-.588,3.971,3.971,0,0,0-.535-.5,6.977,6.977,0,0,0-.606-.423c-.209-.13-.412-.249-.607-.353a5.173,5.173,0,0,0-1.2-.476,6.7,6.7,0,0,0-1.308-.2,7.265,7.265,0,0,0-1.329.044,8.39,8.39,0,0,0-1.266.259,8.677,8.677,0,0,0-.853.322,4.877,4.877,0,0,0-.9.5,2.9,2.9,0,0,0-.693.692,1.354,1.354,0,0,0-.247.884.933.933,0,0,0,.162.506,1.287,1.287,0,0,0,.355.345,1.539,1.539,0,0,0,.467.207,3.89,3.89,0,0,0,.511.1,1.882,1.882,0,0,0,.192.012,1.481,1.481,0,0,1,.258.035.75.75,0,0,1,.219.092.138.138,0,0,1,.075.155.263.263,0,0,1-.165.19,1.618,1.618,0,0,1-.317.1,1.734,1.734,0,0,1-.354.033c-.118,0-.2,0-.261,0a4.353,4.353,0,0,1-.943-.111,3.421,3.421,0,0,1-.889-.331A2.162,2.162,0,0,1-363.788,556.114Zm-5.427,2.237q-.1-.107-.193-.193a1.575,1.575,0,0,1-.177-.2,1.729,1.729,0,0,1-.326-.649,1.635,1.635,0,0,1-.043-.7,1.459,1.459,0,0,1,.255-.633,1.52,1.52,0,0,1,.56-.479,1.1,1.1,0,0,1,.547-.1,1.012,1.012,0,0,1,.52.187.608.608,0,0,1,.238.3.809.809,0,0,1,.044.375,1,1,0,0,1-.119.368.858.858,0,0,1-.258.286.473.473,0,0,1-.174.088l-.2.054a1.319,1.319,0,0,0-.191.066.35.35,0,0,0-.146.117.51.51,0,0,0-.1.375.789.789,0,0,0,.15.352,1.685,1.685,0,0,0,.287.3c.112.094.209.172.3.232a2.783,2.783,0,0,0,1.019.422,4.788,4.788,0,0,0,1.1.083,6.209,6.209,0,0,0,1.109-.149c.372-.085.723-.182,1.057-.292.221-.071.439-.144.653-.22s.43-.144.646-.209a6.749,6.749,0,0,0,.955-.386c.321-.159.625-.323.917-.5a8.705,8.705,0,0,1,1.136-.566c.393-.16.783-.323,1.172-.479q.83-.338,1.679-.592a7.3,7.3,0,0,1,1.746-.3,5.612,5.612,0,0,1,.824.028,7.632,7.632,0,0,1,.817.135,1.369,1.369,0,0,1,.587.266c.135.117.167.223.1.324a.216.216,0,0,1-.164.111.524.524,0,0,1-.25-.094.9.9,0,0,0-.364-.125,1.629,1.629,0,0,0-.388,0,1.9,1.9,0,0,0-.386.091c-.128.046-.249.094-.359.145-.311.137-.622.277-.936.418a8.5,8.5,0,0,0-.907.468,8.911,8.911,0,0,1-.833.423,6.969,6.969,0,0,0-.826.431q-.895.52-1.819.958a14.955,14.955,0,0,1-1.917.748,9.987,9.987,0,0,1-1.116.284,8.774,8.774,0,0,1-1.09.108,7.441,7.441,0,0,1-1.1-.042,12.394,12.394,0,0,1-1.618-.335,6.018,6.018,0,0,1-1.5-.66c-.156-.1-.313-.2-.466-.31S-369.075,558.472-369.215,558.352Z" transform="translate(-323.434 -54.563)" fill-rule="evenodd"/>
  </g>
</svg>
