<svg xmlns="http://www.w3.org/2000/svg" width="64.4" height="64.408" viewBox="0 0 64.4 64.408">
  <g id="Groupe_76" data-name="Groupe 76" transform="translate(-1295.861 -1295.815)">
    <path id="Tracé_129" data-name="Tracé 129" d="M1323.912,1570.4c-.067-.2-.243-.121-.371-.129a69.03,69.03,0,0,1-12.482-1.755,32.181,32.181,0,0,1-10.679-4.35,9.578,9.578,0,0,1-4.234-5.272c-.8-2.861.139-5.271,2.13-7.339a18.941,18.941,0,0,1,6.592-4.145,42.566,42.566,0,0,1,6.329-2,2.688,2.688,0,0,1,3.349,1.875,2.639,2.639,0,0,1-1.952,3.29,40.054,40.054,0,0,0-6.926,2.366,11.9,11.9,0,0,0-3.651,2.506,1.974,1.974,0,0,0-.032,3.091,11.07,11.07,0,0,0,3.781,2.529,41.608,41.608,0,0,0,10.636,3.041,72.854,72.854,0,0,0,17.227.718,52,52,0,0,0,15.188-3.1,16.21,16.21,0,0,0,4.7-2.584,6.349,6.349,0,0,0,.711-.706,1.94,1.94,0,0,0-.094-2.949,11.671,11.671,0,0,0-3.642-2.52,37.057,37.057,0,0,0-6.8-2.331,2.683,2.683,0,0,1-1.779-4.1,2.624,2.624,0,0,1,2.9-1.14,34.45,34.45,0,0,1,10.142,3.881,11.688,11.688,0,0,1,4.635,4.735c.322.656.411,1.38.669,2.052v2.012c-.382,2.855-2.185,4.713-4.432,6.229a33.516,33.516,0,0,1-11.624,4.587,61.422,61.422,0,0,1-9.251,1.368c-1,.07-2,.029-2.993.141h-.377c-.087-.093-.2-.056-.306-.065h-.672c-.136.018-.285-.048-.406.065h-1.006a.962.962,0,0,0-.755,0h-.755a.962.962,0,0,0-.755,0h-.88c-.156-.124-.34-.04-.509-.065h-.688c-.107.009-.223-.03-.312.065Z" transform="translate(0 -210.174)" fill="#433e36"/>
    <path id="Tracé_131" data-name="Tracé 131" d="M1493.017,1703.76a.57.57,0,0,1,.755,0Z" transform="translate(-166.087 -343.537)" fill="#1e1e1e"/>
    <path id="Tracé_132" data-name="Tracé 132" d="M1502.594,1703.759a.57.57,0,0,1,.755,0Z" transform="translate(-174.155 -343.537)" fill="#1e1e1e"/>
    <path id="Tracé_133" data-name="Tracé 133" d="M1480.8,1703.831h.5c.044.022.059.046.046.07s-.027.038-.041.038h-.5c-.04-.022-.054-.046-.042-.071S1480.783,1703.831,1480.8,1703.831Z" transform="translate(-155.756 -343.718)" fill="#646464"/>
    <path id="Tracé_134" data-name="Tracé 134" d="M1484.215,1703.824c0-.036,0-.072,0-.108.178,0,.373-.092.507.108Z" transform="translate(-158.669 -343.602)" fill="#515151"/>
    <path id="Tracé_135" data-name="Tracé 135" d="M1515.921,1703.855h.5q.056.038.035.072c-.013.022-.027.033-.04.033h-.5c-.042-.025-.055-.048-.04-.071S1515.906,1703.855,1515.921,1703.855Z" transform="translate(-185.339 -343.737)" fill="#666"/>
    <path id="Tracé_136" data-name="Tracé 136" d="M1514.149,1703.757c0,.035,0,.07,0,.1h-.377C1513.858,1703.691,1514.008,1703.741,1514.149,1703.757Z" transform="translate(-183.568 -343.639)" fill="#565656"/>
    <path id="Tracé_137" data-name="Tracé 137" d="M1477.853,1703.879c.03-.158.143-.12.247-.106.044.022.059.045.046.069s-.027.037-.041.037Z" transform="translate(-153.312 -343.657)" fill="#9a9a9a"/>
    <path id="Tracé_138" data-name="Tracé 138" d="M1479.425,1703.939a.958.958,0,0,0,0-.106l.251,0a.84.84,0,0,1,0,.109Z" transform="translate(-154.633 -343.717)" fill="#7f7f7f"/>
    <path id="Tracé_139" data-name="Tracé 139" d="M1519.355,1703.959c0-.035,0-.07,0-.105h.251c.037.025.049.049.035.072s-.027.033-.04.033Z" transform="translate(-188.274 -343.737)" fill="#7f7f7f"/>
    <path id="Tracé_140" data-name="Tracé 140" d="M1520.951,1703.872c0-.035,0-.07,0-.105.1-.017.218-.055.247.105Z" transform="translate(-189.619 -343.65)" fill="#9a9a9a"/>
    <path id="Tracé_141" data-name="Tracé 141" d="M1418.723,1314.53a18.843,18.843,0,0,1-3.1,10.432c-2.837,4.441-5.682,8.879-8.285,13.464-1.724,3.036-3.27,6.165-4.839,9.282a2.669,2.669,0,0,1-3.077,1.7,2.776,2.776,0,0,1-2.021-1.706c-1.937-3.891-3.916-7.759-6-11.577-2.136-3.92-4.645-7.6-7.144-11.288a18.1,18.1,0,0,1-2.963-12.183,18.782,18.782,0,0,1,14.761-16.4,18.081,18.081,0,0,1,15.34,3.516A18.434,18.434,0,0,1,1418.723,1314.53Z" transform="translate(-71.893 0)" fill="#433e36"/>
    <path id="Tracé_142" data-name="Tracé 142" d="M1457.161,1380.054a8.045,8.045,0,1,1,8.067-7.982A8.052,8.052,0,0,1,1457.161,1380.054Z" transform="translate(-129.118 -57.41)" fill="#f35f39"/>
    <path id="Tracé_143" data-name="Tracé 143" d="M1488.633,1400.77a2.666,2.666,0,1,1-2.647-2.7A2.688,2.688,0,0,1,1488.633,1400.77Z" transform="translate(-157.903 -86.14)" fill="#fcf8f2"/>
  </g>
</svg>
